<?xml version="1.0" encoding="UTF-8"?>
<svg version="1.1" xmlns="http://www.w3.org/2000/svg" width="301" height="289">
<path d="M0 0 C0.99 0.99 0.99 0.99 2 2 C4.31979381 3.03101947 6.65429915 4.02936517 9 5 C12.86440678 6.72881356 12.86440678 6.72881356 14 9 C15.65848177 10.01351664 17.32665961 11.01120795 19 12 C26.93384366 17.95038274 34.49469502 25.74204253 40 34 C40 34.99 40 35.98 40 37 C40.66 37 41.32 37 42 37 C55.74127214 54.46003226 59.71763822 81.46597324 58 103 C57.43829213 107.08214081 56.67456437 111.09634273 55.8125 115.125 C55.61640137 116.05957031 55.42030273 116.99414062 55.21826172 117.95703125 C53.88854417 123.68002126 51.92642144 128.63392917 49.15966797 133.81640625 C48.10241174 135.80716409 47.1828164 137.79722254 46.3125 139.875 C45.28966465 142.31032225 44.21747741 144.65869728 43 147 C42.34 147 41.68 147 41 147 C40.6596875 148.30324219 40.6596875 148.30324219 40.3125 149.6328125 C38.79088046 153.53649121 36.84866681 155.81930799 34 158.875 C32.6696875 160.32519531 32.6696875 160.32519531 31.3125 161.8046875 C29 164 29 164 27 164 C26.67 165.32 26.34 166.64 26 168 C25.01 168 24.02 168 23 168 C22.67 168.99 22.34 169.98 22 171 C21.34 171 20.68 171 20 171 C19.67 171.99 19.34 172.98 19 174 C17.35 174.33 15.7 174.66 14 175 C13.67 175.99 13.34 176.98 13 178 C10.77734375 179.46484375 10.77734375 179.46484375 7.9375 180.9375 C6.94105469 181.45699219 5.94460937 181.97648438 4.91796875 182.51171875 C3.95503906 183.00285156 2.99210938 183.49398437 2 184 C1.25363281 184.39832031 0.50726563 184.79664063 -0.26171875 185.20703125 C-6.81915176 188.64678491 -13.85451001 190.26243882 -21 192.0625 C-21.67289062 192.23587891 -22.34578125 192.40925781 -23.0390625 192.58789062 C-35.95630224 195.84213732 -49.0390318 195.96357236 -62.125 193.6875 C-62.81062012 193.56987305 -63.49624023 193.45224609 -64.20263672 193.33105469 C-68.78875506 192.45226406 -72.74316311 190.87744847 -77 189 C-78.15886719 188.67386719 -79.31773438 188.34773437 -80.51171875 188.01171875 C-103.89192122 181.23067458 -122.02956174 162.43572057 -134 142 C-147.68478085 116.91123511 -149.13600795 88.09060563 -141.8515625 60.71875 C-140.57281133 56.63613159 -138.89863044 52.82776096 -137 49 C-136.484375 47.9275 -135.96875 46.855 -135.4375 45.75 C-130.45610678 36.22037818 -123.85479916 26.40898623 -116 19 C-115.34 19 -114.68 19 -114 19 C-113.505 17.515 -113.505 17.515 -113 16 C-109.55555556 13 -109.55555556 13 -107 13 C-107 12.34 -107 11.68 -107 11 C-105.04402816 9.60287726 -103.0340906 8.28072371 -101 7 C-99.989375 6.29875 -98.97875 5.5975 -97.9375 4.875 C-95.27837283 3.17768479 -92.93000832 2.11619365 -90 1 C-88.3603125 0.1028125 -88.3603125 0.1028125 -86.6875 -0.8125 C-60.81341584 -13.7738142 -25.51519279 -14.0296148 0 0 Z M-55 17 C-55.56997552 19.99500054 -55.4796521 22.8405465 -55.3125 25.875 C-55.28994141 26.65875 -55.26738281 27.4425 -55.24414062 28.25 C-55.18568018 30.1675026 -55.09601283 32.0840106 -55 34 C-59.455 35.485 -59.455 35.485 -64 37 C-64 37.66 -64 38.32 -64 39 C-64.53625 39.226875 -65.0725 39.45375 -65.625 39.6875 C-71.69187172 43.0402449 -75.03761673 46.87774124 -78 53 C-78.86625 54.7015625 -78.86625 54.7015625 -79.75 56.4375 C-81.57919418 61.65070341 -81.9907676 65.48322252 -79.98046875 70.58984375 C-78.00461725 74.65496421 -75.95101213 78.55055954 -73 82 C-72.34 82 -71.68 82 -71 82 C-70.67 82.99 -70.34 83.98 -70 85 C-67.8957225 86.48980528 -65.83908767 87.8223148 -63.625 89.125 C-63.03460938 89.48464844 -62.44421875 89.84429687 -61.8359375 90.21484375 C-59.24753697 91.77138191 -56.87444614 93.04185129 -54 94 C-53.505 112.315 -53.505 112.315 -53 131 C-61.46816479 126.16104869 -61.46816479 126.16104869 -64 121 C-64.14712847 119.46183875 -64.24912227 117.91888149 -64.3125 116.375 C-64.54697428 113.12205558 -64.54697428 113.12205558 -66.328125 110.5 C-69.52386244 108.42708923 -72.38680889 107.70418242 -76.1875 107.875 C-80.12256635 108.69124597 -80.12256635 108.69124597 -82.5 111.625 C-84.991613 117.23112925 -84.44609749 121.25344966 -82.375 126.875 C-77.2562305 138.58773992 -70.41270321 145.51404174 -58.5 150.4375 C-55.32803495 151.65841894 -55.32803495 151.65841894 -52 152 C-52.04640625 153.01320312 -52.0928125 154.02640625 -52.140625 155.0703125 C-52.17816758 156.42184532 -52.21456506 157.77341028 -52.25 159.125 C-52.28351563 159.79015625 -52.31703125 160.4553125 -52.3515625 161.140625 C-52.45197684 166.26175642 -51.33039591 169.1379093 -48 173 C-45.33238135 174.35540947 -42.94587215 174.44668695 -40 174 C-36.42451147 172.10076201 -34.29890007 169.89670022 -33 166 C-32.93029948 163.60509014 -32.91551997 161.20832309 -32.9375 158.8125 C-32.94652344 157.54019531 -32.95554688 156.26789063 -32.96484375 154.95703125 C-32.97644531 153.98121094 -32.98804688 153.00539062 -33 152 C-32.09121094 151.86980469 -31.18242187 151.73960937 -30.24609375 151.60546875 C-21.57934849 149.98892782 -14.63269929 144.51669502 -9.1875 137.75 C-3.9363069 129.76056099 -4.09267894 119.18278937 -5.51269531 110.00292969 C-7.81285588 100.54876269 -15.34780886 92.59066796 -22.875 86.875 C-23.49117187 86.39804688 -24.10734375 85.92109375 -24.7421875 85.4296875 C-27.66299372 83.49640075 -27.66299372 83.49640075 -34 81 C-34.99 65.655 -34.99 65.655 -36 50 C-34.68 50.33 -33.36 50.66 -32 51 C-31.31974363 52.99541868 -30.65509503 54.99617991 -30 57 C-28 60 -28 60 -25 62 C-22.19375467 62.41130497 -19.85852227 62.24224765 -17 62 C-17 61.34 -17 60.68 -17 60 C-16.360625 59.814375 -15.72125 59.62875 -15.0625 59.4375 C-12.64872371 58.08384697 -12.64872371 58.08384697 -12.125 54.75 C-11.9731155 50.19346494 -12.98436558 47.03126885 -15 43 C-15.66 43 -16.32 43 -17 43 C-17.4021875 42.1028125 -17.4021875 42.1028125 -17.8125 41.1875 C-20.41294135 36.39721331 -24.98153626 32.97352254 -30.16796875 31.30078125 C-32.10047838 30.81850894 -34.04953053 30.40354541 -36 30 C-36.01417969 29.13117188 -36.02835938 28.26234375 -36.04296875 27.3671875 C-36.14814678 19.87768957 -36.14814678 19.87768957 -39.0625 13.1875 C-42.32564979 10.75749484 -43.99103949 10.29860388 -47.9375 10.203125 C-51.33833381 11.51708352 -53.32868124 13.8624826 -55 17 Z " fill="#F47A13" transform="translate(197,57)"/>
<path d="M0 0 C1.28003906 0.97453125 1.28003906 0.97453125 2.5859375 1.96875 C7.75050498 6.00114503 12.53457009 10.20576171 17 15 C17.57363281 15.60328125 18.14726562 16.2065625 18.73828125 16.828125 C22.90490355 21.37353115 26.21370678 26.22885513 29.44140625 31.4765625 C30.60433392 33.35939777 31.84583451 35.19411931 33.125 37 C39.18032179 46.68851486 42.81148789 57.68527827 45.625 68.6875 C45.8415625 69.51572266 46.058125 70.34394531 46.28125 71.19726562 C48.60806164 80.16698086 49.27940638 88.40433248 49.3125 97.6875 C49.31642761 98.73219955 49.31642761 98.73219955 49.32043457 99.79800415 C49.32495216 111.00211149 48.30768554 121.26150701 45 132 C44.566875 133.57587891 44.566875 133.57587891 44.125 135.18359375 C38.62141654 153.68447922 27.71518102 169.74761053 15 184 C14.40445313 184.66902344 13.80890625 185.33804688 13.1953125 186.02734375 C6.58627401 193.01451131 -1.68535913 199.2246995 -10 204 C-11.11375 204.66 -12.2275 205.32 -13.375 206 C-16.8082349 207.95441727 -20.34386976 209.49837508 -24 211 C-25.60875 211.70769531 -25.60875 211.70769531 -27.25 212.4296875 C-57.34235588 225.31903476 -91.83020995 223.87735624 -122 212 C-130.7400551 208.14039167 -139.78411564 203.28206403 -147 197 C-147 196.34 -147 195.68 -147 195 C-147.66 194.814375 -148.32 194.62875 -149 194.4375 C-153.33253822 192.3614921 -156.5111033 189.26197659 -160 186 C-160.9075 185.154375 -161.815 184.30875 -162.75 183.4375 C-165.18131828 180.80357186 -167.01503036 177.97745445 -169 175 C-170.485 174.01 -170.485 174.01 -172 173 C-172.9718171 171.39147515 -173.93429259 169.77601362 -174.83203125 168.125 C-176.60429618 164.90054475 -178.53256006 161.77229208 -180.4375 158.625 C-180.953125 157.75875 -181.46875 156.8925 -182 156 C-182.64839844 154.93007812 -183.29679687 153.86015625 -183.96484375 152.7578125 C-196.66671864 130.34984491 -198.08059274 102.71128453 -194.6875 77.75 C-194.51130127 76.44579102 -194.51130127 76.44579102 -194.33154297 75.11523438 C-193.54315632 69.94792877 -192.21566637 65.72913736 -190 61 C-189.690625 59.88625 -189.38125 58.7725 -189.0625 57.625 C-186.52685841 48.97398751 -182.06634771 41.01070499 -178 33 C-177.34 33 -176.68 33 -176 33 C-175.67 31.68 -175.34 30.36 -175 29 C-174.34 29 -173.68 29 -173 29 C-172.938125 28.278125 -172.87625 27.55625 -172.8125 26.8125 C-171.95204661 23.83400748 -170.89879793 22.63336748 -168.6484375 20.578125 C-166.50100376 18.52228796 -164.58527827 16.29708342 -162.625 14.0625 C-153.06025026 3.39963423 -153.06025026 3.39963423 -148.92578125 2.59765625 C-148.29027344 2.40042969 -147.65476563 2.20320313 -147 2 C-146.317058 0.67492927 -145.65164426 -0.65926066 -145 -2 C-143.01171875 -3.37890625 -143.01171875 -3.37890625 -140.6875 -4.5625 C-137.38223492 -6.27405492 -134.18821878 -8.07836589 -131 -10 C-123.40167066 -14.55401064 -116.05417891 -17.54013223 -107.5 -19.8125 C-105.92412109 -20.26012695 -105.92412109 -20.26012695 -104.31640625 -20.71679688 C-68.88368659 -30.41809156 -29.03088635 -22.13726451 0 0 Z M-96.37207031 -4.73901367 C-98.80152151 -4.05581516 -101.20878326 -3.52895869 -103.6875 -3.0625 C-108.44726936 -2.01809018 -112.63534939 -0.13089003 -117 2 C-117.82757813 2.39445312 -118.65515625 2.78890625 -119.5078125 3.1953125 C-124.89536665 5.81494892 -130.01567697 8.67711798 -135 12 C-135.61875 12.4125 -136.2375 12.825 -136.875 13.25 C-142.9204848 17.41929986 -147.58383417 22.58844065 -152.3515625 28.1328125 C-154 30 -154 30 -155.7109375 31.6171875 C-157.22729213 32.92874521 -157.22729213 32.92874521 -157 35 C-157.66 35 -158.32 35 -159 35 C-167.1758561 44.16817637 -172.80198691 57.24021769 -176 69 C-176.26554687 69.92425781 -176.53109375 70.84851563 -176.8046875 71.80078125 C-181.46823974 89.63331672 -181.34633931 109.37600537 -176 127 C-175.53207031 128.54880859 -175.53207031 128.54880859 -175.0546875 130.12890625 C-173.17320954 136.0474137 -171.04422699 141.58684989 -168 147 C-167.59265625 147.74378906 -167.1853125 148.48757812 -166.765625 149.25390625 C-153.78732257 171.96593551 -134.92523563 187.9101025 -110.80859375 197.80078125 C-108 199 -108 199 -107 200 C-105.21594402 200.37192046 -103.42223085 200.69810295 -101.625 201 C-98.61763093 201.50784069 -95.89790837 202.03403054 -93 203 C-65.63298234 206.569611 -37.60589558 202.55845854 -15 186 C-13.81527036 185.24563144 -12.62806085 184.49513161 -11.4375 183.75 C-10.633125 183.1725 -9.82875 182.595 -9 182 C-9 181.34 -9 180.68 -9 180 C-8.443125 179.938125 -7.88625 179.87625 -7.3125 179.8125 C-4.04655697 178.6650065 -2.2686084 176.50408421 0 174 C0.68449219 173.27296875 1.36898437 172.5459375 2.07421875 171.796875 C17.20324659 155.46060725 27.34031045 136.23885 30 114 C30.1753125 112.88625 30.350625 111.7725 30.53125 110.625 C34.33074688 81.24222412 24.81195554 54.17657994 7 31 C3.64316808 26.75690171 0.28602835 23.3335776 -4 20 C-4.99 18.515 -4.99 18.515 -6 17 C-7.65071396 15.97388051 -9.31970006 14.97691857 -11 14 C-11.7425 13.38125 -12.485 12.7625 -13.25 12.125 C-26.07290795 2.21638931 -41.34426746 -2.8950399 -57 -6 C-57.77827148 -6.17418457 -58.55654297 -6.34836914 -59.35839844 -6.52783203 C-64.22106654 -7.39700025 -69.13532142 -7.22682691 -74.0625 -7.25 C-75.13177734 -7.270625 -76.20105469 -7.29125 -77.30273438 -7.3125 C-84.00655056 -7.34490515 -89.91567693 -6.5561849 -96.37207031 -4.73901367 Z " fill="#F37D18" transform="translate(227,51)"/>
<path d="M0 0 C4.36690946 2.18345473 6.16073819 4.08642291 9 8 C10.94415937 13.83247812 10.69813736 20.48108267 8 26 C2.94736842 30 2.94736842 30 0 30 C0 20.1 0 10.2 0 0 Z " fill="#F5790F" transform="translate(163,160)"/>
<path d="M0 0 C0.66 0 1.32 0 2 0 C1.98839844 1.1859375 1.97679687 2.371875 1.96484375 3.59375 C0.78551765 20.74498428 0.78551765 20.74498428 4 37 C1.6875 39.5 1.6875 39.5 -1 42 C-1.99 42 -2.98 42 -4 42 C-4.66 43.32 -5.32 44.64 -6 46 C-6.99 46 -7.98 46 -9 46 C-8.51789063 45.46632812 -8.03578125 44.93265625 -7.5390625 44.3828125 C-0.16843778 35.68848374 0.48009025 28.04777206 -0.18725586 16.91967773 C-0.74632896 10.83094278 -2.68978363 6.08136536 -6 1 C-5.34 1 -4.68 1 -4 1 C-4 1.66 -4 2.32 -4 3 C-3.01 3.33 -2.02 3.66 -1 4 C-0.67 2.68 -0.34 1.36 0 0 Z " fill="#E89242" transform="translate(191,154)"/>
<path d="M0 0 C2.64366429 0.36561315 3.72188586 0.65043664 5.4140625 2.77734375 C6.01347656 3.84662109 6.01347656 3.84662109 6.625 4.9375 C7.98511175 7.32419292 9.04330487 9.04330487 11 11 C13.65537372 11.56520003 16.29144713 11.73788198 19 12 C19 11.34 19 10.68 19 10 C19.99 9.67 20.98 9.34 22 9 C22 10.32 22 11.64 22 13 C15.73960391 13.93213141 10.97802937 14.20927172 5 12 C4.67 10.35 4.34 8.7 4 7 C2.78554409 9.42891182 2.87075802 11.00719443 2.8671875 13.71875 C2.86589844 14.65074219 2.86460937 15.58273438 2.86328125 16.54296875 C2.86714844 17.51878906 2.87101563 18.49460937 2.875 19.5 C2.87113281 20.47582031 2.86726562 21.45164063 2.86328125 22.45703125 C2.86457031 23.38902344 2.86585938 24.32101563 2.8671875 25.28125 C2.86831543 26.13783203 2.86944336 26.99441406 2.87060547 27.87695312 C2.86413554 30.05491534 2.86413554 30.05491534 4 32 C3.01 31.67 2.02 31.34 1 31 C0.08012389 20.63496744 -0.1132812 10.39669641 0 0 Z " fill="#EA9D58" transform="translate(161,107)"/>
<path d="M0 0 C-0.91483154 -0.10501831 -0.91483154 -0.10501831 -1.84814453 -0.2121582 C-9.49872554 -1.00643093 -17.11416175 -1.18621465 -24.79980469 -1.18530273 C-26.89277646 -1.18751882 -28.98524384 -1.20583586 -31.078125 -1.22460938 C-32.4244774 -1.22753923 -33.77083225 -1.22952675 -35.1171875 -1.23046875 C-36.31972168 -1.23457764 -37.52225586 -1.23868652 -38.76123047 -1.24291992 C-41.96220002 -1.00283514 -44.08905118 -0.27500245 -47 1 C-50.33203125 1.1953125 -50.33203125 1.1953125 -53.8125 1.125 C-54.97394531 1.10695313 -56.13539062 1.08890625 -57.33203125 1.0703125 C-58.21246094 1.04710937 -59.09289062 1.02390625 -60 1 C-47.66335091 -7.22443272 -12.5137043 -8.34246953 0 0 Z " fill="#E5A360" transform="translate(182,31)"/>
<path d="M0 0 C0 0.33 0 0.66 0 1 C-0.99443115 0.99476318 -1.9888623 0.98952637 -3.01342773 0.98413086 C-6.69033921 0.96607959 -10.36724675 0.95456754 -14.04418945 0.94506836 C-15.63794614 0.94002843 -17.23169819 0.9331965 -18.82543945 0.92456055 C-21.11150253 0.91248001 -23.39750467 0.90676845 -25.68359375 0.90234375 C-26.40026718 0.89718246 -27.11694061 0.89202118 -27.85533142 0.88670349 C-29.57063672 0.88650737 -31.28581266 0.93807993 -33 1 C-33.33 1.33 -33.66 1.66 -34 2 C-36.51489516 2.28393978 -39.02989582 2.4481124 -41.5546875 2.62109375 C-44.25068778 2.8632494 -44.25068778 2.8632494 -47 5 C-51.33070198 6.23734342 -55.53382725 6.07569784 -60 6 C-43.2824619 -5.1450254 -18.78590594 -2.670078 0 0 Z " fill="#E99E56" transform="translate(175,49)"/>
<path d="M0 0 C0.33 0 0.66 0 1 0 C4.07208465 18.93612836 2.22143261 39.52041453 -6 57 C-6.33 57 -6.66 57 -7 57 C-7.08167446 55.58430936 -7.13949698 54.16723195 -7.1875 52.75 C-7.22230469 51.96109375 -7.25710937 51.1721875 -7.29296875 50.359375 C-7 48 -7 48 -5.5625 46.09375 C-3.52619103 43.36509597 -3.28583582 41.09976122 -2.8125 37.75 C-2.65394531 36.67234375 -2.49539062 35.5946875 -2.33203125 34.484375 C-2.16767578 33.25460938 -2.16767578 33.25460938 -2 32 C-1.34 32 -0.68 32 0 32 C0 21.44 0 10.88 0 0 Z " fill="#ECA564" transform="translate(253,133)"/>
<path d="M0 0 C2.475 0.99 2.475 0.99 5 2 C5 14.21 5 26.42 5 39 C0.1882276 37.7970569 -1.42599077 36.33032678 -5 33 C-5 32.34 -5 31.68 -5 31 C-1.35446828 32.2808625 0.16671013 33.16671013 3 36 C3 24.78 3 13.56 3 2 C2.01 2 1.02 2 0 2 C0 1.34 0 0.68 0 0 Z " fill="#E5954E" transform="translate(139,149)"/>
<path d="M0 0 C0.66 0.33 1.32 0.66 2 1 C0.02 1.99 0.02 1.99 -2 3 C-2 3.66 -2 4.32 -2 5 C-6.16982776 9.43884891 -10.22085395 9.74818536 -16 10 C-16.33 10.99 -16.66 11.98 -17 13 C-20.97490952 16.46201797 -24.56091808 16.20315367 -29.55078125 16.0390625 C-32.45724951 15.99270734 -35.16002286 16.40211008 -38 17 C-38 16.34 -38 15.68 -38 15 C-37.030625 14.79246094 -36.06125 14.58492187 -35.0625 14.37109375 C-27.54753258 12.6763012 -20.43722135 10.60554521 -13.375 7.5 C-12.7253125 7.21568115 -12.075625 6.9313623 -11.40625 6.63842773 C-7.29708743 4.7676718 -3.68034616 2.58190438 0 0 Z " fill="#E99340" transform="translate(209,238)"/>
<path d="M0 0 C0.99 0 1.98 0 3 0 C3.33 1.65 3.66 3.3 4 5 C3.34 5 2.68 5 2 5 C2 6.98 2 8.96 2 11 C2.66 11 3.32 11 4 11 C3.1875 12.9375 3.1875 12.9375 2 15 C-1 16 -1 16 -4.1875 14.5625 C-5.115625 14.046875 -6.04375 13.53125 -7 13 C-6.25 10.0625 -6.25 10.0625 -5 7 C-2.875 6.125 -2.875 6.125 -1 6 C-0.67 4.02 -0.34 2.04 0 0 Z " fill="#F57910" transform="translate(245,203)"/>
<path d="M0 0 C0.66 0 1.32 0 2 0 C2.29988466 35.40023068 2.29988466 35.40023068 0 40 C-0.66 40 -1.32 40 -2 40 C-2.33 43.3 -2.66 46.6 -3 50 C-3.66 50 -4.32 50 -5 50 C-5 51.32 -5 52.64 -5 54 C-5.66 54 -6.32 54 -7 54 C-6.42621803 49.96578035 -5.50638762 46.4281455 -4.0625 42.625 C0.6143525 28.78151661 0.26613089 14.43020803 0 0 Z " fill="#E59A54" transform="translate(257,138)"/>
<path d="M0 0 C0.99 0 1.98 0 3 0 C4.03590199 5.05002222 4.10251672 9.87416389 4 15 C0.20148999 14.18431996 -1.68730047 13.25491046 -4 10 C-3.75 6.25 -3.75 6.25 -3 3 C-2.01 2.67 -1.02 2.34 0 2 C0 1.34 0 0.68 0 0 Z " fill="#E5A566" transform="translate(139,113)"/>
<path d="M0 0 C11.13513514 1.69369369 11.13513514 1.69369369 15 3.0625 C26.53304276 6.66657586 40.03985475 5.10376528 52 5 C52 5.33 52 5.66 52 6 C36.83229428 8.81534155 17.35884299 9.47555664 3 3 C1.12890625 1.36328125 1.12890625 1.36328125 0 0 Z " fill="#E8984E" transform="translate(116,249)"/>
<path d="M0 0 C1.4589426 0.47730838 2.91713496 0.95691042 4.375 1.4375 C5.18710938 1.70433594 5.99921875 1.97117188 6.8359375 2.24609375 C9 3 9 3 11 4 C11.29903012 7.10385697 11.4154923 10.16219075 11.47851562 13.27734375 C11.65508142 17.66134328 12.3206753 20.49778688 15 24 C15.66 24.33 16.32 24.66 17 25 C17 25.66 17 26.32 17 27 C15.68 26.67 14.36 26.34 13 26 C12.67 26.66 12.34 27.32 12 28 C11.67 27.34 11.34 26.68 11 26 C11.33 25.01 11.66 24.02 12 23 C11.01 22.67 10.02 22.34 9 22 C8.67 16.72 8.34 11.44 8 6 C6.02 5.34 4.04 4.68 2 4 C2 3.34 2 2.68 2 2 C1.34 2 0.68 2 0 2 C0 1.34 0 0.68 0 0 Z " fill="#E8A565" transform="translate(134,205)"/>
<path d="M0 0 C-3.46540896 2.31027264 -6.60606496 2.92080838 -10.625 3.625 C-11.37120605 3.75616211 -12.11741211 3.88732422 -12.88623047 4.02246094 C-23.23584606 5.69070544 -33.65278472 5.6663048 -44 4 C-44 3.67 -44 3.34 -44 3 C-42.99622314 2.94465088 -41.99244629 2.88930176 -40.95825195 2.83227539 C-37.22139061 2.6252713 -33.48480841 2.41355457 -29.74829102 2.20043945 C-28.1334541 2.10899084 -26.51854503 2.01880713 -24.90356445 1.92993164 C-22.57743358 1.80169714 -20.25160327 1.668862 -17.92578125 1.53515625 C-17.20787918 1.49656998 -16.48997711 1.4579837 -15.75032043 1.41822815 C-10.42232565 1.10523424 -5.33404625 -0.15240132 0 0 Z " fill="#E6A15D" transform="translate(181,247)"/>
<path d="M0 0 C2.89104992 1.29598789 5.03018393 2.49296136 7 5 C7.67863055 6.9959722 8.34641919 8.99568551 9 11 C9.66 11.33 10.32 11.66 11 12 C11.74354946 13.85887365 12.47518356 15.72366535 13.13671875 17.61328125 C14.05916724 20.16358002 15.1202329 22.63219593 16.1875 25.125 C17.7203247 28.90169355 18.43455405 31.87173648 18 36 C15.84895562 33.84895562 15.47850698 32.7841968 14.625 29.9375 C12.01470397 21.7803249 8.26149039 14.40719622 4 7 C3.60167969 6.30003906 3.20335937 5.60007812 2.79296875 4.87890625 C1.86571197 3.25047297 0.93344857 1.62489195 0 0 Z " fill="#E4944B" transform="translate(237,86)"/>
<path d="M0 0 C3.76687864 1.88343932 4.79421646 2.69132469 7 6 C5.02 6 3.04 6 1 6 C1.33 12.27 1.66 18.54 2 25 C3.65 25 5.3 25 7 25 C7.33 23.68 7.66 22.36 8 21 C8.33 22.32 8.66 23.64 9 25 C7.87926138 25.83905565 6.75325453 26.67107831 5.625 27.5 C4.99851563 27.9640625 4.37203125 28.428125 3.7265625 28.90625 C2 30 2 30 0 30 C0 20.1 0 10.2 0 0 Z " fill="#EBA059" transform="translate(163,160)"/>
<path d="M0 0 C0.33 0.66 0.66 1.32 1 2 C-2.71941608 4.8670499 -5.82271446 7.08001298 -10.3125 8.5 C-14.15179348 9.61392908 -14.15179348 9.61392908 -15.5 12.6875 C-15.665 13.450625 -15.83 14.21375 -16 15 C-15.34 15 -14.68 15 -14 15 C-13.1875 17.1875 -13.1875 17.1875 -13 20 C-14.65 21.65 -16.3 23.3 -18 25 C-17.67 19.39 -17.34 13.78 -17 8 C-12.1171875 6.19335938 -12.1171875 6.19335938 -7.234375 4.38671875 C-4.4058701 3.17401435 -2.33463456 1.97057026 0 0 Z " fill="#EC8125" transform="translate(181,201)"/>
<path d="M0 0 C1.5912689 4.873261 2.21192221 8.80790596 2 14 C1.67 14 1.34 14 1 14 C0.34 10.7 -0.32 7.4 -1 4 C-1.99 4 -2.98 4 -4 4 C-4.04898438 5.07121094 -4.09796875 6.14242187 -4.1484375 7.24609375 C-4.22345294 8.64325639 -4.2990013 10.0403905 -4.375 11.4375 C-4.4059375 12.14455078 -4.436875 12.85160156 -4.46875 13.58007812 C-4.57280629 15.39239188 -4.77919892 17.19817988 -5 19 C-5.66 19.33 -6.32 19.66 -7 20 C-7 13.4 -7 6.8 -7 0 C-4.3333581 -1.33332095 -2.83319697 -0.67102033 0 0 Z " fill="#EB852C" transform="translate(171,166)"/>
<path d="M0 0 C0.53625 0.2475 1.0725 0.495 1.625 0.75 C-1.3704928 3.32945213 -3.51851301 4.92360993 -7.375 5.75 C-7.705 6.41 -8.035 7.07 -8.375 7.75 C-7.715 7.75 -7.055 7.75 -6.375 7.75 C-6.375 7.09 -6.375 6.43 -6.375 5.75 C-5.715 6.08 -5.055 6.41 -4.375 6.75 C-4.375 7.41 -4.375 8.07 -4.375 8.75 C-8.25184087 9.94287411 -11.29121923 10.75 -15.375 10.75 C-15.705 11.74 -16.035 12.73 -16.375 13.75 C-18.9375 14.9375 -18.9375 14.9375 -21.375 15.75 C-20.23780581 12.33841744 -19.33157056 11.63145399 -16.375 9.75 C-15.715 9.75 -15.055 9.75 -14.375 9.75 C-14.375 9.09 -14.375 8.43 -14.375 7.75 C-12.41902816 6.35287726 -10.4090906 5.03072371 -8.375 3.75 C-7.34375 2.986875 -6.3125 2.22375 -5.25 1.4375 C-2.375 -0.25 -2.375 -0.25 0 0 Z " fill="#EC8734" transform="translate(104.375,60.25)"/>
<path d="M0 0 C0.78761719 0.18820313 1.57523438 0.37640625 2.38671875 0.5703125 C2.06058594 1.13878906 1.73445313 1.70726563 1.3984375 2.29296875 C-3.33743049 10.66106589 -6.14178576 16.84191467 -5.61328125 26.5703125 C-6.27328125 26.5703125 -6.93328125 26.5703125 -7.61328125 26.5703125 C-7.61328125 20.6303125 -7.61328125 14.6903125 -7.61328125 8.5703125 C-6.95328125 8.2403125 -6.29328125 7.9103125 -5.61328125 7.5703125 C-5.70609375 6.425625 -5.70609375 6.425625 -5.80078125 5.2578125 C-5.61328125 2.5703125 -5.61328125 2.5703125 -4.42578125 0.6953125 C-2.61328125 -0.4296875 -2.61328125 -0.4296875 0 0 Z " fill="#EA8934" transform="translate(122.61328125,100.4296875)"/>
<path d="M0 0 C1.65 0 3.3 0 5 0 C4.01 0.495 4.01 0.495 3 1 C2.67 1.99 2.34 2.98 2 4 C0.35 4.33 -1.3 4.66 -3 5 C-3.33 5.99 -3.66 6.98 -4 8 C-9.19773156 11.47991227 -14.95191575 14.36538263 -21 16 C-20.67 15.01 -20.34 14.02 -20 13 C-18.68 13 -17.36 13 -16 13 C-16 11.68 -16 10.36 -16 9 C-13.03 9.495 -13.03 9.495 -10 10 C-10 9.01 -10 8.02 -10 7 C-8.68 7 -7.36 7 -6 7 C-6 6.01 -6 5.02 -6 4 C-4.02 3.34 -2.04 2.68 0 2 C0 1.34 0 0.68 0 0 Z " fill="#E99E51" transform="translate(214,227)"/>
<path d="M0 0 C3.96 0 7.92 0 12 0 C12.33 1.32 12.66 2.64 13 4 C13.99 4 14.98 4 16 4 C17.30267176 9.50016964 16.71033431 14.47032059 16 20 C16.99 20.33 17.98 20.66 19 21 C17.35 20.67 15.7 20.34 14 20 C13.96132812 18.67935547 13.96132812 18.67935547 13.921875 17.33203125 C13.86515625 16.17058594 13.8084375 15.00914063 13.75 13.8125 C13.70359375 12.66394531 13.6571875 11.51539062 13.609375 10.33203125 C12.89553426 6.42878671 11.89437709 4.69337868 9 2 C6.64988272 1.40130662 6.64988272 1.40130662 4.25 1.6875 C3.45078125 1.73261719 2.6515625 1.77773437 1.828125 1.82421875 C0.92320312 1.91123047 0.92320312 1.91123047 0 2 C0 1.34 0 0.68 0 0 Z " fill="#EA9F5B" transform="translate(146,67)"/>
<path d="M0 0 C1.60080151 4.00200378 0.29279692 7.04556236 -1 11 C-1.99 11 -2.98 11 -4 11 C-4.33 12.98 -4.66 14.96 -5 17 C-6.32 17.33 -7.64 17.66 -9 18 C-9.103125 18.639375 -9.20625 19.27875 -9.3125 19.9375 C-9.539375 20.618125 -9.76625 21.29875 -10 22 C-10.99 22.33 -11.98 22.66 -13 23 C-11.19734773 19.25459295 -9.13128553 15.66484398 -7.0625 12.0625 C-6.54139648 11.15081055 -6.54139648 11.15081055 -6.00976562 10.22070312 C-4.04468503 6.79013869 -2.04725899 3.38214886 0 0 Z " fill="#E99245" transform="translate(249,192)"/>
<path d="M0 0 C-0.70125 0.680625 -1.4025 1.36125 -2.125 2.0625 C-4.85429761 4.77620162 -7.31354441 7.68054724 -9.765625 10.64453125 C-10.17296875 11.09183594 -10.5803125 11.53914063 -11 12 C-11.33 12 -11.66 12 -12 12 C-12 10.35 -12 8.7 -12 7 C-12.66 6.67 -13.32 6.34 -14 6 C-13.34 6 -12.68 6 -12 6 C-12.33 5.01 -12.66 4.02 -13 3 C-8.54370064 0.02913376 -5.32064558 -0.12092376 0 0 Z " fill="#EF8831" transform="translate(84,70)"/>
<path d="M0 0 C4.09051654 4.31825408 5.35861442 8.58221189 6.8125 14.1875 C7.15571289 15.41629883 7.15571289 15.41629883 7.50585938 16.66992188 C9.13619833 22.72760333 9.13619833 22.72760333 8 25 C7.49166409 23.75336669 6.99368855 22.50250613 6.5 21.25 C6.2215625 20.55390625 5.943125 19.8578125 5.65625 19.140625 C5 17 5 17 5 13 C4.34 13 3.68 13 3 13 C3 13.66 3 14.32 3 15 C2.01 14.67 1.02 14.34 0 14 C0.66 13.67 1.32 13.34 2 13 C1.67 11.783125 1.34 10.56625 1 9.3125 C0.19677787 6.12789396 -0.20641973 3.3027157 0 0 Z " fill="#EC9039" transform="translate(244,106)"/>
<path d="M0 0 C-3.27466359 0.98506535 -6.20181662 1.10280942 -9.61328125 1.0625 C-10.69673828 1.05476563 -11.78019531 1.04703125 -12.89648438 1.0390625 C-15.16211091 1.01315482 -17.42773594 0.98711455 -19.69335938 0.9609375 C-25.24754393 0.92142937 -30.53206129 0.99004884 -36 2 C-36 1.01 -36 0.02 -36 -1 C-23.79384611 -2.11873096 -11.98654914 -3.03045938 0 0 Z " fill="#ED964F" transform="translate(169,44)"/>
<path d="M0 0 C1.2065625 0.0309375 1.2065625 0.0309375 2.4375 0.0625 C1.4375 2.0625 1.4375 2.0625 -0.56860352 2.93212891 C-3.41713496 3.86281357 -6.26719605 4.78561447 -9.125 5.6875 C-10.10275391 6.01234375 -11.08050781 6.3371875 -12.08789062 6.671875 C-17.80546536 8.49475884 -22.5637795 9.44767349 -28.5625 9.0625 C-28.2325 8.4025 -27.9025 7.7425 -27.5625 7.0625 C-25.29417936 6.43015486 -22.99548739 5.90476125 -20.6875 5.4375 C-19.43195313 5.17710937 -18.17640625 4.91671875 -16.8828125 4.6484375 C-13.5625 4.0625 -13.5625 4.0625 -10.5625 4.0625 C-10.5625 3.4025 -10.5625 2.7425 -10.5625 2.0625 C-9.428125 1.918125 -8.29375 1.77375 -7.125 1.625 C-3.80350664 1.10055368 -3.09809271 0.07556324 0 0 Z " fill="#E7944D" transform="translate(200.5625,260.9375)"/>
<path d="M0 0 C4.15487437 1.57680242 8.10307787 3.49299705 12.0625 5.5 C12.67416016 5.80808594 13.28582031 6.11617187 13.91601562 6.43359375 C15.61137107 7.28768633 17.30572134 8.14377336 19 9 C20.33290516 9.66752233 21.666002 10.33466434 23 11 C23 11.33 23 11.66 23 12 C20.69 12 18.38 12 16 12 C16 11.34 16 10.68 16 10 C14.68 10 13.36 10 12 10 C12 9.34 12 8.68 12 8 C11.01 8 10.02 8 9 8 C9 7.34 9 6.68 9 6 C7.6078125 5.8453125 7.6078125 5.8453125 6.1875 5.6875 C2.97535795 4.99468505 1.88069983 4.6120831 0 2 C0 1.34 0 0.68 0 0 Z " fill="#E99854" transform="translate(93,237)"/>
<path d="M0 0 C2 0 2 0 3.515625 1.46875 C7.5377351 6.1793294 11.36041233 10.98723457 15 16 C14.01 16.33 13.02 16.66 12 17 C12 16.34 12 15.68 12 15 C10.68 14.67 9.36 14.34 8 14 C7.67 12.02 7.34 10.04 7 8 C4.03 7.505 4.03 7.505 1 7 C1.33 6.01 1.66 5.02 2 4 C1.34 4 0.68 4 0 4 C0 2.68 0 1.36 0 0 Z " fill="#ED974E" transform="translate(221,74)"/>
<path d="M0 0 C1.09658936 3.28976808 0.79953138 4.71303767 0 8 C-0.66 8 -1.32 8 -2 8 C-2.2165625 9.546875 -2.2165625 9.546875 -2.4375 11.125 C-2.91660457 14.42549813 -3.43875083 17.71268341 -4 21 C-4.66 21 -5.32 21 -6 21 C-6 23.64 -6 26.28 -6 29 C-6.66 29 -7.32 29 -8 29 C-8.31465522 23.02155081 -7.6020798 19.50439958 -5 14 C-4.505 12.2675 -4.505 12.2675 -4 10.5 C-2.94346236 6.80211827 -1.57286394 3.50319695 0 0 Z " fill="#E99A53" transform="translate(42,98)"/>
<path d="M0 0 C1.25262369 2.50524739 1.86863344 4.175619 2 7 C-0.25 9.8125 -0.25 9.8125 -3 12 C-3.99 12 -4.98 12 -6 12 C-6.66 13.32 -7.32 14.64 -8 16 C-8.99 16 -9.98 16 -11 16 C-10.51789063 15.41992188 -10.03578125 14.83984375 -9.5390625 14.2421875 C-6.04618169 9.92242062 -3.49368771 6.43159169 -2 1 C-1.34 0.67 -0.68 0.34 0 0 Z " fill="#EC892E" transform="translate(193,184)"/>
<path d="M0 0 C1.09731445 0.01353516 1.09731445 0.01353516 2.21679688 0.02734375 C3.99884298 0.05063847 5.78071759 0.0864981 7.5625 0.125 C7.5625 0.455 7.5625 0.785 7.5625 1.125 C6.53189453 1.32416016 6.53189453 1.32416016 5.48046875 1.52734375 C4.12888672 1.79224609 4.12888672 1.79224609 2.75 2.0625 C1.85667969 2.23652344 0.96335938 2.41054688 0.04296875 2.58984375 C-2.55147171 3.10241153 -2.55147171 3.10241153 -5.4375 4.125 C-7.66568441 4.19437062 -9.89584524 4.20957084 -12.125 4.1875 C-13.89423828 4.17396484 -13.89423828 4.17396484 -15.69921875 4.16015625 C-16.60285156 4.14855469 -17.50648437 4.13695312 -18.4375 4.125 C-12.59897982 0.23265321 -6.78549105 -0.1614115 0 0 Z " fill="#E89043" transform="translate(140.4375,27.875)"/>
<path d="M0 0 C-2.73683688 1.48834724 -5.12778476 2.32882132 -8.1875 2.875 C-12.40339223 3.74868819 -16.02863277 5.22004137 -19.9140625 7.046875 C-22.54483766 8.24895204 -25.23767935 9.15005519 -28 10 C-28 9.34 -28 8.68 -28 8 C-23.38048494 4.18890008 -19.93333307 3.40919538 -14 3 C-14 2.34 -14 1.68 -14 1 C-9.27685687 0.22887459 -4.78478822 -0.09764874 0 0 Z " fill="#E8A05F" transform="translate(132,46)"/>
<path d="M0 0 C0.66 0 1.32 0 2 0 C0.65692112 4.30689238 -0.98890874 8.27523429 -3 12.3125 C-3.515625 13.36050781 -4.03125 14.40851563 -4.5625 15.48828125 C-6 18 -6 18 -8 19 C-8 17.68 -8 16.36 -8 15 C-7.34 15 -6.68 15 -6 15 C-6.33 12.69 -6.66 10.38 -7 8 C-5.68 8 -4.36 8 -3 8 C-3 7.01 -3 6.02 -3 5 C-2.34 5 -1.68 5 -1 5 C-0.67 3.35 -0.34 1.7 0 0 Z " fill="#ECA763" transform="translate(266,193)"/>
<path d="M0 0 C2.46800047 1.15173355 4.04783565 2.04783565 6 4 C8.65537372 4.56520003 11.29144713 4.73788198 14 5 C14 4.34 14 3.68 14 3 C14.99 2.67 15.98 2.34 17 2 C17 3.32 17 4.64 17 6 C10.73960391 6.93213141 5.97802937 7.20927172 0 5 C0 3.35 0 1.7 0 0 Z " fill="#E9904A" transform="translate(166,114)"/>
<path d="M0 0 C-1.32505294 6.4596331 -5.59409935 10.38917374 -10 15 C-10.33 14.34 -10.66 13.68 -11 13 C-10.34 12.01 -9.68 11.02 -9 10 C-8.29835358 8.01200182 -7.62627128 6.01301483 -7 4 C-6.34 4.66 -5.68 5.32 -5 6 C-4.814375 4.7934375 -4.814375 4.7934375 -4.625 3.5625 C-4.41875 2.716875 -4.2125 1.87125 -4 1 C-2 0 -2 0 0 0 Z " fill="#EB9A4F" transform="translate(238,204)"/>
<path d="M0 0 C7.73970713 1.01838252 15.15846598 3.21915225 22 7 C18.94736336 7.98120464 17.05263664 7.98120464 14 7 C14 6.34 14 5.68 14 5 C12.989375 5.061875 11.97875 5.12375 10.9375 5.1875 C6.44500628 4.97357173 3.98914039 3.95386468 0 2 C0 1.34 0 0.68 0 0 Z " fill="#E99C58" transform="translate(175,50)"/>
<path d="M0 0 C-0.33 0.66 -0.66 1.32 -1 2 C-0.34 2.33 0.32 2.66 1 3 C1 3.99 1 4.98 1 6 C-0.96035175 5.55037804 -2.91824309 5.09001752 -4.875 4.625 C-5.96554688 4.36976563 -7.05609375 4.11453125 -8.1796875 3.8515625 C-11 3 -11 3 -13 1 C-8.61414671 0.29826347 -4.44209357 -0.10834375 0 0 Z " fill="#ED852B" transform="translate(122,262)"/>
<path d="M0 0 C0.99 0.33 1.98 0.66 3 1 C-5.90969798 7.98755502 -5.90969798 7.98755502 -11 10 C-11.99 9.67 -12.98 9.34 -14 9 C-13.34 9 -12.68 9 -12 9 C-12 8.34 -12 7.68 -12 7 C-12.66 6.67 -13.32 6.34 -14 6 C-10.71023192 4.90341064 -9.28696233 5.20046862 -6 6 C-5.67 4.68 -5.34 3.36 -5 2 C-3.35 2 -1.7 2 0 2 C0 1.34 0 0.68 0 0 Z " fill="#ECA04F" transform="translate(221,249)"/>
<path d="M0 0 C2.46241995 2.46241995 2.91064866 4.43438363 3.9375 7.75 C5.03330058 11.18570557 6.09170163 14.45178465 7.8125 17.625 C8.204375 18.40875 8.59625 19.1925 9 20 C8.67 20.66 8.34 21.32 8 22 C3.23640174 15.25941432 0 8.37084509 0 0 Z " fill="#EB9D5B" transform="translate(50,176)"/>
<path d="M0 0 C0.66 0.33 1.32 0.66 2 1 C0.35 3.64 -1.3 6.28 -3 9 C-3.99 8.67 -4.98 8.34 -6 8 C-6.33 8.99 -6.66 9.98 -7 11 C-8.32 10.67 -9.64 10.34 -11 10 C-8.01861915 6.77017074 -6.2230623 5.01935987 -2 4 C-0.71563266 2.0162233 -0.71563266 2.0162233 0 0 Z " fill="#EB9147" transform="translate(82,49)"/>
<path d="M0 0 C3.71599191 -0.20086443 4.77208445 -0.1519437 8 2 C9.65549531 2.38499891 11.3222433 2.72793135 13 3 C13.33 4.65 13.66 6.3 14 8 C14.99 8 15.98 8 17 8 C17 9.32 17 10.64 17 12 C16.34 12 15.68 12 15 12 C12 8.53846154 12 8.53846154 12 6 C11.319375 5.731875 10.63875 5.46375 9.9375 5.1875 C6.60289191 3.83946694 3.30256763 2.42463702 0 1 C0 0.67 0 0.34 0 0 Z " fill="#EAA261" transform="translate(165,88)"/>
<path d="M0 0 C6.89835786 1.85913191 12.24385683 4.79515783 18 9 C15 10 15 10 12 9 C12 8.34 12 7.68 12 7 C9.03 6.505 9.03 6.505 6 6 C6 5.34 6 4.68 6 4 C5.195625 3.71125 4.39125 3.4225 3.5625 3.125 C1 2 1 2 0 0 Z " fill="#EAA55F" transform="translate(207,40)"/>
<path d="M0 0 C0.33 0.99 0.66 1.98 1 3 C1.66 3 2.32 3 3 3 C4.2890625 4.609375 4.2890625 4.609375 5.625 6.75 C6.07101563 7.44609375 6.51703125 8.1421875 6.9765625 8.859375 C8 11 8 11 8 15 C6.68 14.67 5.36 14.34 4 14 C3.87625 13.195625 3.7525 12.39125 3.625 11.5625 C3.315625 10.2940625 3.315625 10.2940625 3 9 C2.34 8.67 1.68 8.34 1 8 C0.40644386 5.35139573 0.25790731 2.70802678 0 0 Z " fill="#EA9448" transform="translate(236,91)"/>
<path d="M0 0 C1.32 0 2.64 0 4 0 C4 0.66 4 1.32 4 2 C6.97 2 9.94 2 13 2 C13 4.31 13 6.62 13 9 C11.3925672 8.06811119 9.78917201 7.12925565 8.1875 6.1875 C6.84751953 5.40439453 6.84751953 5.40439453 5.48046875 4.60546875 C3.33168013 3.21467801 1.70638383 1.8877934 0 0 Z " fill="#EE994E" transform="translate(204,57)"/>
<path d="M0 0 C3.59478807 3.32850747 6.22364768 6.98971331 9 11 C6.69 11 4.38 11 2 11 C0.95550089 7.86650268 1.06576355 7.01031744 2 4 C1.34 4 0.68 4 0 4 C0 2.68 0 1.36 0 0 Z " fill="#ED974A" transform="translate(69,213)"/>
<path d="M0 0 C0.33 0.66 0.66 1.32 1 2 C0.0625 4.625 0.0625 4.625 -1 7 C-1.66 7 -2.32 7 -3 7 C-3.33 8.98 -3.66 10.96 -4 13 C-4.66 13 -5.32 13 -6 13 C-6 13.99 -6 14.98 -6 16 C-6.99 16 -7.98 16 -9 16 C-8.34 14.02 -7.68 12.04 -7 10 C-6.34 10 -5.68 10 -5 10 C-4.67 8.68 -4.34 7.36 -4 6 C-3.34 6 -2.68 6 -2 6 C-1.855625 5.195625 -1.71125 4.39125 -1.5625 3.5625 C-1 1 -1 1 0 0 Z " fill="#ECA564" transform="translate(56,74)"/>
<path d="M0 0 C1.43791516 0.14168137 2.8753237 0.28851043 4.3125 0.4375 C5.11300781 0.51871094 5.91351563 0.59992187 6.73828125 0.68359375 C9 1 9 1 12 2 C12 2.66 12 3.32 12 4 C12.61875 4.103125 13.2375 4.20625 13.875 4.3125 C16 5 16 5 18 8 C11.79522136 6.06375702 5.89174281 3.74390859 0 1 C0 0.67 0 0.34 0 0 Z " fill="#EA9C5B" transform="translate(186,49)"/>
<path d="M0 0 C0.66 0 1.32 0 2 0 C2 0.66 2 1.32 2 2 C5.465 1.505 5.465 1.505 9 1 C7.8125 3 7.8125 3 6 5 C3.3125 5.25 3.3125 5.25 1 5 C0.67 5.66 0.34 6.32 0 7 C-1.04449911 3.86650268 -0.93423645 3.01031744 0 0 Z " fill="#EF852C" transform="translate(220,244)"/>
<path d="M0 0 C0.33 0.66 0.66 1.32 1 2 C-4.554365 6.2213174 -8.79455784 9 -16 9 C-16.33 9.99 -16.66 10.98 -17 12 C-17 10.68 -17 9.36 -17 8 C-16.10796875 7.67386719 -15.2159375 7.34773437 -14.296875 7.01171875 C-12.54117188 6.35623047 -12.54117188 6.35623047 -10.75 5.6875 C-9.58984375 5.25824219 -8.4296875 4.82898438 -7.234375 4.38671875 C-4.4058701 3.17401435 -2.33463456 1.97057026 0 0 Z " fill="#E4954C" transform="translate(181,201)"/>
<path d="M0 0 C2.90195613 1.30087689 4.95355512 2.55316373 7 5 C7.73046875 7.26171875 7.73046875 7.26171875 8.1875 9.6875 C8.34605469 10.49574219 8.50460938 11.30398437 8.66796875 12.13671875 C8.77753906 12.75160156 8.88710937 13.36648437 9 14 C6.87216414 12.00553277 5.34191424 10.11546354 3.9375 7.5625 C3.60105469 6.9540625 3.26460937 6.345625 2.91796875 5.71875 C1.90888309 3.82939813 0.92693694 1.93111863 0 0 Z " fill="#ECA25D" transform="translate(237,86)"/>
<path d="M0 0 C-0.99 0 -1.98 0 -3 0 C-3 0.66 -3 1.32 -3 2 C-3.99 2.33 -4.98 2.66 -6 3 C-6.33 3.66 -6.66 4.32 -7 5 C-9.64 5 -12.28 5 -15 5 C-10.87384475 1.53402959 -5.43913747 -2.39322049 0 0 Z " fill="#EB9945" transform="translate(115,35)"/>
<path d="M0 0 C3 1 3 1 4.1875 2.75 C5.10819096 5.29960574 5.14948718 7.30923081 5 10 C5.66 10 6.32 10 7 10 C7 11.65 7 13.3 7 15 C2.72504406 10.57763179 1.48701402 5.80160774 0 0 Z " fill="#EA9B4F" transform="translate(39,192)"/>
<path d="M0 0 C0 3.3 0 6.6 0 10 C-1.32 9.34 -2.64 8.68 -4 8 C-4.1875 5.125 -4.1875 5.125 -4 2 C-1 0 -1 0 0 0 Z " fill="#EE7C19" transform="translate(141,115)"/>
<path d="M0 0 C0.66 0.33 1.32 0.66 2 1 C0.02 1.99 0.02 1.99 -2 3 C-2 3.66 -2 4.32 -2 5 C-4.25 7.1875 -4.25 7.1875 -7 9 C-9.3125 8.75 -9.3125 8.75 -11 8 C-11 7.34 -11 6.68 -11 6 C-10.113125 5.566875 -9.22625 5.13375 -8.3125 4.6875 C-5.03865593 3.08604236 -5.03865593 3.08604236 -2.25 1.25 C-1.5075 0.8375 -0.765 0.425 0 0 Z " fill="#E78B36" transform="translate(209,238)"/>
<path d="M0 0 C0.33 0 0.66 0 1 0 C1 5.28 1 10.56 1 16 C-5 19 -5 19 -7 19 C-7.33 18.01 -7.66 17.02 -8 16 C-5.36 15.67 -2.72 15.34 0 15 C0 10.05 0 5.1 0 0 Z " fill="#ECAC73" transform="translate(141,75)"/>
<path d="M0 0 C0.33 0.66 0.66 1.32 1 2 C2.65 1.67 4.3 1.34 6 1 C3.19195732 3.96404505 0.81684226 6.44499019 -3 8 C-3.36923077 3.44615385 -3.36923077 3.44615385 -1.5 1.1875 C-1.005 0.795625 -0.51 0.40375 0 0 Z " fill="#EB8935" transform="translate(88,60)"/>
<path d="M0 0 C1.32 0 2.64 0 4 0 C4.33 1.65 4.66 3.3 5 5 C6.32 5 7.64 5 9 5 C9.33 6.98 9.66 8.96 10 11 C6.31353859 9.54144353 4.83856029 7.69770955 2.75 4.375 C1.96882813 3.14910156 1.96882813 3.14910156 1.171875 1.8984375 C0.78515625 1.27195313 0.3984375 0.64546875 0 0 Z " fill="#E79147" transform="translate(70,209)"/>
<path d="M0 0 C0.99 0 1.98 0 3 0 C1.55575365 3.23861303 -0.25772247 5.61969163 -2.625 8.25 C-3.25664062 8.95640625 -3.88828125 9.6628125 -4.5390625 10.390625 C-5.02117187 10.92171875 -5.50328125 11.4528125 -6 12 C-6.33 11.34 -6.66 10.68 -7 10 C-6.67 9.01 -6.34 8.02 -6 7 C-5.01 7 -4.02 7 -3 7 C-2.814375 5.824375 -2.814375 5.824375 -2.625 4.625 C-2 2 -2 2 0 0 Z " fill="#EBA665" transform="translate(248,223)"/>
<path d="M0 0 C1.343231 2.686462 0.67960047 3.69297114 -0.25 6.5 C-0.62898438 7.69109375 -0.62898438 7.69109375 -1.015625 8.90625 C-2 11 -2 11 -5 13 C-4.44516583 8.33939297 -3.45003386 3.45003386 0 0 Z " fill="#E79048" transform="translate(64,99)"/>
<path d="M0 0 C2 2 2 2 3 5 C4.49985609 6.66710346 4.49985609 6.66710346 6 8 C5.67 8.66 5.34 9.32 5 10 C2.03 7.36 -0.94 4.72 -4 2 C-2.68 1.34 -1.36 0.68 0 0 Z " fill="#EDA15C" transform="translate(84,220)"/>
<path d="M0 0 C2.35171131 0.59861742 4.6859378 1.26924352 7 2 C7.33 2.66 7.66 3.32 8 4 C6.68 4 5.36 4 4 4 C4 4.99 4 5.98 4 7 C2.68 6.34 1.36 5.68 0 5 C0 3.35 0 1.7 0 0 Z " fill="#EE8D39" transform="translate(198,59)"/>
<path d="M0 0 C3.63 0 7.26 0 11 0 C11 0.66 11 1.32 11 2 C12.65 2.33 14.3 2.66 16 3 C12.83454798 4.58272601 10.25581122 3.33086619 6.875 2.5625 C4.95300781 2.13130859 4.95300781 2.13130859 2.9921875 1.69140625 C1.51105469 1.34916016 1.51105469 1.34916016 0 1 C0 0.67 0 0.34 0 0 Z " fill="#E7A05C" transform="translate(170,45)"/>
<path d="M0 0 C2.11332501 3.83934743 2.39370371 6.59051846 2 11 C0.5 13.4375 0.5 13.4375 -1 15 C-2.50416548 11.99166904 -1.60839737 9.65038422 -1.0625 6.375 C-0.86785156 5.18648437 -0.67320312 3.99796875 -0.47265625 2.7734375 C-0.31667969 1.85820312 -0.16070312 0.94296875 0 0 Z " fill="#EE7C1D" transform="translate(170,170)"/>
<path d="M0 0 C0.33 0.66 0.66 1.32 1 2 C-0.109375 4.34765625 -0.109375 4.34765625 -1.75 7.0625 C-2.28109375 7.96097656 -2.8121875 8.85945313 -3.359375 9.78515625 C-5 12 -5 12 -8 13 C-6.40956621 7.91061189 -3.2553049 4.12543357 0 0 Z " fill="#E79550" transform="translate(74,84)"/>
<path d="M0 0 C5.77378925 0.4811491 9.95859836 2.18467181 15 5 C14.01 5.66 13.02 6.32 12 7 C12 6.34 12 5.68 12 5 C10.35 5 8.7 5 7 5 C7 4.34 7 3.68 7 3 C4.69 2.34 2.38 1.68 0 1 C0 0.67 0 0.34 0 0 Z " fill="#EDA05D" transform="translate(192,34)"/>
<path d="M0 0 C1.32 0 2.64 0 4 0 C4 0.66 4 1.32 4 2 C4.99 2 5.98 2 7 2 C7 2.66 7 3.32 7 4 C3.7 4 0.4 4 -3 4 C-2.34 3.67 -1.68 3.34 -1 3 C-0.67 2.01 -0.34 1.02 0 0 Z " fill="#F8780A" transform="translate(115,36)"/>
<path d="M0 0 C2.64 0.66 5.28 1.32 8 2 C8 2.66 8 3.32 8 4 C8.99 4 9.98 4 11 4 C11.33 4.99 11.66 5.98 12 7 C6.47371099 5.80805531 3.82180842 4.4008703 0 0 Z " fill="#E89F61" transform="translate(95,233)"/>
<path d="M0 0 C1.65 0 3.3 0 5 0 C4.38245741 1.31602523 3.75571258 2.62773556 3.125 3.9375 C2.77695313 4.66839844 2.42890625 5.39929688 2.0703125 6.15234375 C1 8 1 8 -1 9 C-0.67 6.03 -0.34 3.06 0 0 Z " fill="#EC9953" transform="translate(253,213)"/>
<path d="M0 0 C2 2 2 2 3.5 5.5625 C4.58995587 9.06202674 4.58995587 9.06202674 7 10 C6.67 11.32 6.34 12.64 6 14 C2.67016949 11.30442292 1.45548306 7.95059687 0 4 C0 2.68 0 1.36 0 0 Z " fill="#E6944A" transform="translate(59,187)"/>
<path d="M0 0 C0.680625 -0.00257813 1.36125 -0.00515625 2.0625 -0.0078125 C4 0.125 4 0.125 7 1.125 C6.67 1.785 6.34 2.445 6 3.125 C4.01432292 2.83203125 2.02864583 2.5390625 0.04296875 2.24609375 C-2.2025342 1.98595201 -2.2025342 1.98595201 -5 3.125 C-6.66710346 4.62485609 -6.66710346 4.62485609 -8 6.125 C-7.67 4.475 -7.34 2.825 -7 1.125 C-4.32356043 0.23285348 -2.74615622 -0.01040211 0 0 Z " fill="#E8A86A" transform="translate(122,163.875)"/>
<path d="M0 0 C0.66 0 1.32 0 2 0 C1.67 0.94875 1.34 1.8975 1 2.875 C-0.3644458 7.55447256 -0.17499341 12.16823759 0 17 C-0.66 17 -1.32 17 -2 17 C-2.05441656 15.10448978 -2.09298035 13.2085208 -2.125 11.3125 C-2.14820312 10.25675781 -2.17140625 9.20101562 -2.1953125 8.11328125 C-1.99858729 4.97748141 -1.33057654 2.82354627 0 0 Z " fill="#E79954" transform="translate(117,110)"/>
<path d="M0 0 C1 3 1 3 0.00390625 5.48046875 C-0.47175781 6.37378906 -0.94742188 7.26710938 -1.4375 8.1875 C-1.91058594 9.08855469 -2.38367187 9.98960938 -2.87109375 10.91796875 C-3.24363281 11.60503906 -3.61617187 12.29210937 -4 13 C-5.15941038 9.52176885 -4.70820884 7.54104422 -4 4 C-3.34 4 -2.68 4 -2 4 C-1.34 2.68 -0.68 1.36 0 0 Z " fill="#E59751" transform="translate(60,96)"/>
<path d="M0 0 C0.94875 0.04125 1.8975 0.0825 2.875 0.125 C0.29715154 2.77252004 -2.04148098 5.06932065 -5.125 7.125 C-5.25 4.75 -5.25 4.75 -5.125 2.125 C-3.125 0.125 -3.125 0.125 0 0 Z " fill="#EC9A53" transform="translate(81.125,69.875)"/>
<path d="M0 0 C0.33 1.32 0.66 2.64 1 4 C-3.625 8 -3.625 8 -7 8 C-6.67 6.68 -6.34 5.36 -6 4 C-4.35 4 -2.7 4 -1 4 C-0.67 2.68 -0.34 1.36 0 0 Z " fill="#E39243" transform="translate(171,181)"/>
<path d="M0 0 C3.82367701 -0.21849583 6.62176024 0.12320013 10 2 C10.8125 4.125 10.8125 4.125 11 6 C6.56431237 5.17857636 3.17658845 3.17658845 0 0 Z " fill="#ECA060" transform="translate(165,139)"/>
<path d="M0 0 C2.23063517 2.97418022 4.27615616 5.7246967 6 9 C5.67 9.66 5.34 10.32 5 11 C4.01 10.34 3.02 9.68 2 9 C2 9.66 2 10.32 2 11 C1.34 10.67 0.68 10.34 0 10 C0 6.7 0 3.4 0 0 Z " fill="#EBA058" transform="translate(117,127)"/>
<path d="M0 0 C3.8665284 3.222107 4.88059018 6.14922412 6 11 C3 10 3 10 1.3125 7.1875 C0 4 0 4 0 0 Z " fill="#E99C57" transform="translate(257,85)"/>
<path d="M0 0 C0.66 0 1.32 0 2 0 C1.71517632 1.41805831 1.42181856 2.83440379 1.125 4.25 C0.88136719 5.43335938 0.88136719 5.43335938 0.6328125 6.640625 C0.00849925 8.96831144 -0.84838542 10.89031952 -2 13 C-2.05447047 11.58376784 -2.09300508 10.16691809 -2.125 8.75 C-2.14820313 7.96109375 -2.17140625 7.1721875 -2.1953125 6.359375 C-1.9828378 3.79268059 -1.28654105 2.2083933 0 0 Z " fill="#E99448" transform="translate(270,180)"/>
<path d="M0 0 C2.69504819 2.69504819 5 6.08360477 5 10 C3.35 10 1.7 10 0 10 C0 6.7 0 3.4 0 0 Z " fill="#EC984D" transform="translate(263,96)"/>
<path d="M0 0 C1.33332095 2.6666419 0.67102033 4.16680303 0 7 C-1.32 6.67 -2.64 6.34 -4 6 C-4 6.66 -4 7.32 -4 8 C-4.66 7.67 -5.32 7.34 -6 7 C-2.25 1.125 -2.25 1.125 0 0 Z " fill="#E99349" transform="translate(64,66)"/>
<path d="M0 0 C-2.06756277 2.7972908 -3.14440371 3.02692273 -6.6875 3.6875 C-7.780625 3.790625 -8.87375 3.89375 -10 4 C-10 3.34 -10 2.68 -10 2 C-9.01 2 -8.02 2 -7 2 C-7 1.34 -7 0.68 -7 0 C-3.86650268 -1.04449911 -3.01031744 -0.93423645 0 0 Z " fill="#EB832B" transform="translate(122,33)"/>
<path d="M0 0 C3.81684226 1.55500981 6.19195732 4.03595495 9 7 C6.69 6.67 4.38 6.34 2 6 C1.34 4.02 0.68 2.04 0 0 Z " fill="#E99A57" transform="translate(84,230)"/>
<path d="M0 0 C2.97 0.99 5.94 1.98 9 3 C8.67 3.99 8.34 4.98 8 6 C6.02 5.34 4.04 4.68 2 4 C2 3.34 2 2.68 2 2 C1.34 2 0.68 2 0 2 C0 1.34 0 0.68 0 0 Z " fill="#E99649" transform="translate(134,205)"/>
<path d="M0 0 C1.37562854 1.28965176 2.70766393 2.62689293 4 4 C4 4.66 4 5.32 4 6 C4.66 6.33 5.32 6.66 6 7 C2.25 8.125 2.25 8.125 0 7 C0 4.69 0 2.38 0 0 Z " fill="#EB9C4E" transform="translate(119,192)"/>
<path d="M0 0 C2.97 0.495 2.97 0.495 6 1 C6 1.66 6 2.32 6 3 C6.99 3.33 7.98 3.66 9 4 C8.67 5.32 8.34 6.64 8 8 C7.13375 6.824375 7.13375 6.824375 6.25 5.625 C4.17102363 3.19952756 2.90959667 2.14305583 0 1 C0 0.67 0 0.34 0 0 Z " fill="#EBA05E" transform="translate(217,66)"/>
<path d="M0 0 C3.96 0 7.92 0 12 0 C12.33 1.65 12.66 3.3 13 5 C12.525625 4.505 12.05125 4.01 11.5625 3.5 C7.79641649 1.29546331 4.26540621 1.75391887 0 2 C0 1.34 0 0.68 0 0 Z " fill="#E89349" transform="translate(146,67)"/>
<path d="M0 0 C0.99 0.33 1.98 0.66 3 1 C2.34 2.65 1.68 4.3 1 6 C-0.9375 5.6875 -0.9375 5.6875 -3 5 C-3.33 4.01 -3.66 3.02 -4 2 C-2.68 2 -1.36 2 0 2 C0 1.34 0 0.68 0 0 Z " fill="#EB8632" transform="translate(110,236)"/>
<path d="M0 0 C0.61875 0.804375 1.2375 1.60875 1.875 2.4375 C3.74164041 5.03874519 3.74164041 5.03874519 6 6 C6 6.66 6 7.32 6 8 C4.68 7.67 3.36 7.34 2 7 C1.67 7.66 1.34 8.32 1 9 C0.29925156 5.846632 0 3.27275026 0 0 Z " fill="#EB9744" transform="translate(145,224)"/>
<path d="M0 0 C1.98 0.495 1.98 0.495 4 1 C3.55090939 2.48199902 3.09043436 3.96055236 2.625 5.4375 C2.36976563 6.26121094 2.11453125 7.08492187 1.8515625 7.93359375 C1 10 1 10 -1 11 C-1 9.68 -1 8.36 -1 7 C-0.34 7 0.32 7 1 7 C0.67 4.69 0.34 2.38 0 0 Z " fill="#EC8F3B" transform="translate(259,201)"/>
<path d="M0 0 C1.45606519 4.52092968 0.27032841 7.51648796 -1 12 C-1.33 12 -1.66 12 -2 12 C-2.05422947 10.5629191 -2.09289723 9.12524538 -2.125 7.6875 C-2.14820313 6.88699219 -2.17140625 6.08648437 -2.1953125 5.26171875 C-2 3 -2 3 0 0 Z " fill="#E68C3F" transform="translate(248,178)"/>
<path d="M0 0 C2.475 0.99 2.475 0.99 5 2 C5 2.66 5 3.32 5 4 C5.99 4.33 6.98 4.66 8 5 C8.33 6.65 8.66 8.3 9 10 C7.29115995 8.37660195 5.62553283 6.70680947 4 5 C4 4.34 4 3.68 4 3 C2.68 2.34 1.36 1.68 0 1 C0 0.67 0 0.34 0 0 Z " fill="#E8914E" transform="translate(176,145)"/>
<path d="M0 0 C0.66 0.33 1.32 0.66 2 1 C1.67 2.65 1.34 4.3 1 6 C-0.32 5.67 -1.64 5.34 -3 5 C-3.33 5.99 -3.66 6.98 -4 8 C-4.66 7.67 -5.32 7.34 -6 7 C-4.02 4.69 -2.04 2.38 0 0 Z " fill="#EC9A55" transform="translate(81,76)"/>
<path d="M0 0 C2.31 0 4.62 0 7 0 C4.16569547 3.2542015 2.31392226 4.5206753 -2 5 C-1.34 4.67 -0.68 4.34 0 4 C0 2.68 0 1.36 0 0 Z " fill="#EDA05C" transform="translate(96,56)"/>
<path d="M0 0 C0 0.66 0 1.32 0 2 C-0.99 2.33 -1.98 2.66 -3 3 C-3.33 3.66 -3.66 4.32 -4 5 C-7.0625 5.625 -7.0625 5.625 -10 6 C-7.52649177 2.09446069 -4.76346611 0 0 0 Z " fill="#EA944B" transform="translate(100,40)"/>
<path d="M0 0 C0 0.99 0 1.98 0 3 C-6.75 2.25 -6.75 2.25 -9 0 C-2.25 -1.125 -2.25 -1.125 0 0 Z " fill="#E89142" transform="translate(118,263)"/>
<path d="M0 0 C0.33 1.65 0.66 3.3 1 5 C-2.35595828 4.40072174 -4.37801226 3.15377564 -7 1 C-2.25 0 -2.25 0 0 0 Z " fill="#ED984D" transform="translate(107,258)"/>
<path d="M0 0 C4.875 1.75 4.875 1.75 6 4 C6.99 4.66 7.98 5.32 9 6 C6.75 6.25 6.75 6.25 4 6 C1.6875 4.125 1.6875 4.125 0 2 C0 1.34 0 0.68 0 0 Z " fill="#E3903C" transform="translate(134,180)"/>
<path d="M0 0 C1.98 0 3.96 0 6 0 C4.37660195 1.70884005 2.70680947 3.37446717 1 5 C0.34 5 -0.32 5 -1 5 C-0.67 3.35 -0.34 1.7 0 0 Z " fill="#EE9A5A" transform="translate(127,95)"/>
<path d="M0 0 C1.32 0 2.64 0 4 0 C2.8141763 3.37503669 1.72426311 5.64722731 -1 8 C-0.67 5.36 -0.34 2.72 0 0 Z " fill="#EB953F" transform="translate(64,86)"/>
<path d="M0 0 C-0.33 0.66 -0.66 1.32 -1 2 C-3.28515625 2.6328125 -3.28515625 2.6328125 -6.0625 3.125 C-6.98160156 3.29257813 -7.90070313 3.46015625 -8.84765625 3.6328125 C-9.91306641 3.81457031 -9.91306641 3.81457031 -11 4 C-10.67 3.01 -10.34 2.02 -10 1 C-6.59437148 0.22157062 -3.49234244 -0.09978121 0 0 Z " fill="#E5944B" transform="translate(192,243)"/>
<path d="M0 0 C-1.625 5.75 -1.625 5.75 -5 8 C-4.74438677 5.6568787 -4.40729228 3.32156597 -4 1 C-2 0 -2 0 0 0 Z " fill="#EBA556" transform="translate(238,204)"/>
<path d="M0 0 C2.64 1.65 5.28 3.3 8 5 C7.34 5.66 6.68 6.32 6 7 C3.5625 5.75 3.5625 5.75 1 4 C0.67 2.68 0.34 1.36 0 0 Z " fill="#EB9348" transform="translate(125,199)"/>
<path d="M0 0 C3.68802044 1.22934015 4.72356973 2.93859378 7 6 C4.03 5.505 4.03 5.505 1 5 C0.67 3.35 0.34 1.7 0 0 Z " fill="#E8934C" transform="translate(123,138)"/>
<path d="M0 0 C0.66 0.33 1.32 0.66 2 1 C1.67 1.66 1.34 2.32 1 3 C0.34 3 -0.32 3 -1 3 C-1.33 3.99 -1.66 4.98 -2 6 C-4.5625 7.1875 -4.5625 7.1875 -7 8 C-5.86280581 4.58841744 -4.95657056 3.88145399 -2 2 C-1.34 2 -0.68 2 0 2 C0 1.34 0 0.68 0 0 Z " fill="#E99D61" transform="translate(90,68)"/>
<path d="M0 0 C0.33 1.32 0.66 2.64 1 4 C-2.3 4.33 -5.6 4.66 -9 5 C-9 4.67 -9 4.34 -9 4 C-5.535 3.505 -5.535 3.505 -2 3 C-2 2.34 -2 1.68 -2 1 C-1.34 0.67 -0.68 0.34 0 0 Z " fill="#E88A3A" transform="translate(182,116)"/>
<path d="M0 0 C5.875 3.75 5.875 3.75 7 6 C4.03 5.505 4.03 5.505 1 5 C0.67 3.35 0.34 1.7 0 0 Z " fill="#ECAB72" transform="translate(230,54)"/>
<path d="M0 0 C0.99 0.33 1.98 0.66 3 1 C0.1875 3.0625 0.1875 3.0625 -3 5 C-3.99 4.67 -4.98 4.34 -6 4 C-5.67 3.34 -5.34 2.68 -5 2 C-3.35 2 -1.7 2 0 2 C0 1.34 0 0.68 0 0 Z " fill="#E99246" transform="translate(221,249)"/>
<path d="M0 0 C2.475 0.495 2.475 0.495 5 1 C5 1.66 5 2.32 5 3 C6.32 3.33 7.64 3.66 9 4 C7.3125 4.8125 7.3125 4.8125 5 5 C2.25 2.5625 2.25 2.5625 0 0 Z " fill="#EAA362" transform="translate(80,247)"/>
<path d="M0 0 C1.98 1.65 3.96 3.3 6 5 C4.02 5.99 4.02 5.99 2 7 C1.34 4.69 0.68 2.38 0 0 Z " fill="#EE9854" transform="translate(78,224)"/>
<path d="M0 0 C3.96 1.98 3.96 1.98 8 4 C8 4.33 8 4.66 8 5 C6.35 5 4.7 5 3 5 C2.67 4.01 2.34 3.02 2 2 C1.34 2 0.68 2 0 2 C0 1.34 0 0.68 0 0 Z " fill="#E7A167" transform="translate(130,144)"/>
<path d="M0 0 C0.99 0 1.98 0 3 0 C3.33 2.31 3.66 4.62 4 7 C2 5.75 2 5.75 0 4 C0 2.68 0 1.36 0 0 Z " fill="#EA862D" transform="translate(182,98)"/>
<path d="M0 0 C2.64 0 5.28 0 8 0 C7.34 1.32 6.68 2.64 6 4 C4.02 3.01 2.04 2.02 0 1 C0 0.67 0 0.34 0 0 Z " fill="#E87E24" transform="translate(167,50)"/>
<path d="" fill="#FFFFFF" transform="translate(0,0)"/>
<path d="" fill="#FFFFFF" transform="translate(0,0)"/>
<path d="" fill="#FFFFFF" transform="translate(0,0)"/>
<path d="" fill="#FFFFFF" transform="translate(0,0)"/>
<path d="" fill="#FFFFFF" transform="translate(0,0)"/>
<path d="" fill="#FFFFFF" transform="translate(0,0)"/>
<path d="" fill="#FFFFFF" transform="translate(0,0)"/>
<path d="" fill="#FFFFFF" transform="translate(0,0)"/>
<path d="" fill="#FFFFFF" transform="translate(0,0)"/>
<path d="" fill="#FFFFFF" transform="translate(0,0)"/>
<path d="" fill="#FFFFFF" transform="translate(0,0)"/>
<path d="" fill="#FFFFFF" transform="translate(0,0)"/>
</svg>
