<?xml version="1.0" encoding="UTF-8"?>
<svg version="1.1" xmlns="http://www.w3.org/2000/svg" width="305" height="229">
<path d="M0 0 C1.21991135 -0.00563965 2.43982269 -0.0112793 3.69670105 -0.01708984 C5.05581724 -0.0132009 6.41493285 -0.00910454 7.77404785 -0.00482178 C9.1996529 -0.00753063 10.62525656 -0.01109097 12.05085754 -0.01544189 C15.92888362 -0.02458079 19.80680362 -0.02101551 23.68483162 -0.01468372 C27.73715635 -0.00963147 31.7894718 -0.01431301 35.84179688 -0.01745605 C42.64784379 -0.02109797 49.45384735 -0.01629072 56.2598877 -0.0067749 C64.13632923 0.00411009 72.01266724 0.00058467 79.88910627 -0.01042771 C86.6432711 -0.0194942 93.39740471 -0.02078901 100.15157366 -0.01555037 C104.1892164 -0.01242714 108.22681043 -0.01203097 112.26445007 -0.01862335 C116.05979971 -0.02438693 119.85501545 -0.02041819 123.65035057 -0.00883484 C125.04598455 -0.00618293 126.44162973 -0.00696235 127.83725929 -0.01136017 C129.73696118 -0.01679594 131.63668759 -0.00878226 133.53637695 0 C135.13363491 0.00113108 135.13363491 0.00113108 136.76316071 0.002285 C139.26818848 0.25396729 139.26818848 0.25396729 141.26818848 2.25396729 C141.41316832 4.83460857 141.45496393 7.30340613 141.39318848 9.87896729 C141.38416504 10.58537354 141.3751416 11.29177979 141.36584473 12.01959229 C141.34226451 13.76452826 141.30639308 15.50929024 141.26818848 17.25396729 C143.11380371 17.19898071 143.11380371 17.19898071 144.9967041 17.1428833 C149.58845987 17.01559615 154.18006181 16.93561115 158.77307129 16.8694458 C160.75576046 16.83437541 162.73827029 16.78670378 164.72033691 16.72589111 C167.58048835 16.64037402 170.43823608 16.60114639 173.29943848 16.57037354 C174.17684692 16.53424454 175.05425537 16.49811554 175.95825195 16.46089172 C182.19338639 16.45696842 185.07256986 18.12745879 189.47558594 22.48228455 C191.77753786 24.75737252 194.36028199 26.3653257 197.08068848 28.10552979 C205.04402657 33.94750498 212.75349248 40.11517858 214.9006958 50.23498535 C217.02058126 66.72001736 215.64354318 83.74903286 214.26818848 100.25396729 C215.38371094 100.21529541 216.4992334 100.17662354 217.64855957 100.13677979 C221.26818848 100.25396729 221.26818848 100.25396729 223.18225098 102.12896729 C224.71776029 106.54769913 224.7037755 110.60896195 224.64318848 115.25396729 C224.65479004 116.14342041 224.6663916 117.03287354 224.67834473 117.94927979 C224.67447754 118.81295166 224.67061035 119.67662354 224.66662598 120.56646729 C224.66324219 121.3463501 224.6598584 122.12623291 224.65637207 122.92974854 C224.13826462 126.03187614 223.27544669 127.82474221 221.26818848 130.25396729 C218.54089355 130.82159424 218.54089355 130.82159424 215.28771973 130.74224854 C214.12434082 130.72613525 212.96096191 130.71002197 211.7623291 130.69342041 C210.5473877 130.65152588 209.33244629 130.60963135 208.08068848 130.56646729 C206.24087402 130.53262939 206.24087402 130.53262939 204.3638916 130.49810791 C201.33077289 130.43909782 198.30008626 130.35681321 195.26818848 130.25396729 C194.8582666 131.87045166 194.8582666 131.87045166 194.44006348 133.51959229 C193.41543791 136.78473241 192.72568009 138.51163805 190.51818848 141.00396729 C190.04896973 141.55568604 189.57975098 142.10740479 189.09631348 142.67584229 C183.91021591 147.15272993 178.96497112 147.80649243 172.39318848 147.75396729 C171.19218506 147.74756226 171.19218506 147.74756226 169.96691895 147.74102783 C163.95225335 147.56687699 159.62960051 146.65172442 155.26818848 142.25396729 C154.48443848 141.47021729 153.70068848 140.68646729 152.89318848 139.87896729 C150.97310788 136.77729863 150.21295424 133.76192364 149.26818848 130.25396729 C147.92857056 130.27753296 147.92857056 130.27753296 146.56188965 130.30157471 C143.24640091 130.35272167 139.93133172 130.3903254 136.61560059 130.41876221 C135.18096296 130.43384317 133.74637139 130.45431109 132.31188965 130.48028564 C130.24902989 130.51670165 128.1867799 130.53369972 126.12365723 130.54693604 C124.26196899 130.57050171 124.26196899 130.57050171 122.3626709 130.59454346 C119.26818848 130.25396729 119.26818848 130.25396729 117.35925293 128.92706299 C115.67731312 126.34788788 115.94977502 124.24705382 116.26818848 121.25396729 C118.26818848 119.25396729 118.26818848 119.25396729 121.34094238 119.0269165 C122.62919922 119.03739014 123.91745605 119.04786377 125.24475098 119.05865479 C125.92999847 119.06148468 126.61524597 119.06431458 127.32125854 119.06723022 C129.51207875 119.07843447 131.70249163 119.1035387 133.89318848 119.12896729 C135.37755758 119.13899681 136.86193308 119.14812271 138.34631348 119.15631104 C141.98707108 119.17837435 145.62759004 119.21290553 149.26818848 119.25396729 C149.41256348 118.47021729 149.55693848 117.68646729 149.70568848 116.87896729 C150.26818848 114.25396729 150.26818848 114.25396729 151.26818848 112.25396729 C121.23818848 112.25396729 91.20818848 112.25396729 60.26818848 112.25396729 C61.25818848 114.23396729 62.24818848 116.21396729 63.26818848 118.25396729 C64.38846436 118.28369629 64.38846436 118.28369629 65.53137207 118.31402588 C68.90234452 118.4090494 72.27267777 118.51881988 75.64318848 118.62896729 C76.81881348 118.65990479 77.99443848 118.69084229 79.20568848 118.72271729 C80.32717285 118.76138916 81.44865723 118.80006104 82.60412598 118.83990479 C84.15946045 118.88703613 84.15946045 118.88703613 85.74621582 118.93511963 C88.26818848 119.25396729 88.26818848 119.25396729 90.26818848 121.25396729 C90.58068848 124.75396729 90.58068848 124.75396729 90.26818848 128.25396729 C86.87715073 130.51465912 85.85108908 130.45826595 81.90100098 130.35162354 C80.85041504 130.34968994 79.7998291 130.34775635 78.71740723 130.34576416 C76.50866223 130.32629813 74.29998272 130.27959585 72.09240723 130.20513916 C68.9163089 130.22652048 66.30778719 130.3189245 63.26818848 131.25396729 C60.79790808 133.98003832 59.46112361 136.79428088 58.26818848 140.25396729 C57.60818848 140.25396729 56.94818848 140.25396729 56.26818848 140.25396729 C56.06193848 140.85209229 55.85568848 141.45021729 55.64318848 142.06646729 C53.6696349 145.20621161 51.70508668 145.87766159 48.26818848 147.25396729 C45.27772416 147.69355422 42.34921839 147.71902233 39.33068848 147.69146729 C38.55789551 147.71144775 37.78510254 147.73142822 36.9888916 147.75201416 C29.83486638 147.7459668 25.57567718 145.56145598 20.45568848 140.44146729 C18.13233792 137.05601362 17.29889398 134.19490011 16.26818848 130.25396729 C15.33752563 130.27753296 15.33752563 130.27753296 14.38806152 130.30157471 C11.5773632 130.36392943 8.76681036 130.40295877 5.95568848 130.44146729 C4.97922363 130.466604 4.00275879 130.49174072 2.9967041 130.51763916 C1.59001465 130.53214111 1.59001465 130.53214111 0.15490723 130.54693604 C-0.70916748 130.56264648 -1.57324219 130.57835693 -2.46350098 130.59454346 C-5.30434099 130.16800468 -5.99567508 129.51208565 -7.73181152 127.25396729 C-8.10654163 124.9382391 -8.10654163 124.9382391 -8.10603333 122.16117859 C-8.11304764 121.10817566 -8.12006195 120.05517273 -8.12728882 118.97026062 C-8.11964508 117.81534622 -8.11200134 116.66043182 -8.10412598 115.47052002 C-8.10777664 114.25409821 -8.11142731 113.03767639 -8.1151886 111.78439331 C-8.12191219 108.44756266 -8.1151716 105.11128825 -8.10185647 101.77451205 C-8.09054847 98.28540926 -8.09464891 94.79632105 -8.09660339 91.3072052 C-8.09748646 85.44867149 -8.08640242 79.59025347 -8.06799316 73.73175049 C-8.04681542 66.95329173 -8.04331765 60.17500236 -8.04955512 53.39651722 C-8.05524429 46.88087436 -8.04960907 40.3652913 -8.03838158 33.84965706 C-8.03373064 31.07416748 -8.03286385 28.2987144 -8.03496742 25.52322197 C-8.03719601 21.6514235 -8.02276085 17.77978704 -8.00646973 13.90802002 C-8.00894714 12.75108139 -8.01142456 11.59414276 -8.01397705 10.40214539 C-8.00689224 9.35196228 -7.99980743 8.30177917 -7.99250793 7.21977234 C-7.99045506 6.3037194 -7.98840219 5.38766645 -7.98628712 4.44385433 C-7.41528149 -0.46992862 -4.120896 0.00291816 0 0 Z M4.26818848 10.25396729 C4.26818848 39.95396729 4.26818848 69.65396729 4.26818848 100.25396729 C45.84818848 100.25396729 87.42818848 100.25396729 130.26818848 100.25396729 C130.26818848 70.55396729 130.26818848 40.85396729 130.26818848 10.25396729 C88.68818848 10.25396729 47.10818848 10.25396729 4.26818848 10.25396729 Z M141.26818848 28.25396729 C141.26818848 52.01396729 141.26818848 75.77396729 141.26818848 100.25396729 C161.72818848 100.25396729 182.18818848 100.25396729 203.26818848 100.25396729 C203.37131348 92.43709229 203.47443848 84.62021729 203.58068848 76.56646729 C203.6262085 74.1060498 203.67172852 71.64563232 203.71862793 69.11065674 C203.73323469 67.15453454 203.74597492 65.19839712 203.75646973 63.24224854 C203.78204956 62.23142212 203.80762939 61.2205957 203.83398438 60.17913818 C203.84846436 54.18159454 203.84846436 54.18159454 200.8626709 49.06719971 C198.52251822 47.06301856 198.52251822 47.06301856 196.26818848 47.25396729 C196.00006348 46.65584229 195.73193848 46.05771729 195.45568848 45.44146729 C194.26901441 43.25548875 193.17219735 41.84064135 191.26818848 40.25396729 C190.60818848 40.25396729 189.94818848 40.25396729 189.26818848 40.25396729 C189.00006348 39.65584229 188.73193848 39.05771729 188.45568848 38.44146729 C187.26901441 36.25548875 186.17219735 34.84064135 184.26818848 33.25396729 C183.60818848 33.25396729 182.94818848 33.25396729 182.26818848 33.25396729 C181.95881348 32.61459229 181.64943848 31.97521729 181.33068848 31.31646729 C180.43367217 29.31785907 180.43367217 29.31785907 179.26818848 28.25396729 C176.45678697 28.16535468 173.66939424 28.13867144 170.85803223 28.15631104 C170.11202759 28.15731812 169.36602295 28.1583252 168.59741211 28.15936279 C165.80015535 28.1646104 163.00292043 28.17857156 160.20568848 28.19146729 C150.83162598 28.22240479 150.83162598 28.22240479 141.26818848 28.25396729 Z M4.26818848 112.25396729 C4.26818848 114.56396729 4.26818848 116.87396729 4.26818848 119.25396729 C8.22818848 119.25396729 12.18818848 119.25396729 16.26818848 119.25396729 C16.92818848 116.94396729 17.58818848 114.63396729 18.26818848 112.25396729 C13.64818848 112.25396729 9.02818848 112.25396729 4.26818848 112.25396729 Z M31.26818848 113.25396729 C27.35867018 117.83368872 26.45388222 121.40461425 26.26818848 127.25396729 C27.197874 130.74028801 28.41139192 133.03201441 31.26818848 135.25396729 C35.31198237 137.38819184 38.7358053 137.58359515 43.26818848 137.25396729 C46.29183325 136.16209556 48.16858052 134.66545335 50.26818848 132.25396729 C52.50334689 126.62791001 52.63820468 121.896863 50.26818848 116.25396729 C48.80692979 114.26134181 47.8468075 113.48970096 45.58068848 112.56646729 C41.20814164 111.97558258 35.28333097 111.24639604 31.26818848 113.25396729 Z M161.66271973 117.05865479 C159.2259655 120.89466565 159.52210934 124.8742064 160.26818848 129.25396729 C161.92355644 132.47273832 164.25426224 134.53440673 167.20568848 136.62896729 C171.30762833 137.87197936 174.38094286 137.57337571 178.39318848 136.12896729 C182.51614179 133.44008469 184.42087462 130.31929481 186.26818848 125.81646729 C186.26818848 121.94483024 184.37880896 119.40125295 182.26818848 116.25396729 C181.60818848 115.26396729 180.94818848 114.27396729 180.26818848 113.25396729 C173.54641987 110.41014211 166.43804358 111.69077249 161.66271973 117.05865479 Z M193.26818848 112.25396729 C193.92818848 114.56396729 194.58818848 116.87396729 195.26818848 119.25396729 C201.20818848 119.25396729 207.14818848 119.25396729 213.26818848 119.25396729 C213.26818848 116.94396729 213.26818848 114.63396729 213.26818848 112.25396729 C206.66818848 112.25396729 200.06818848 112.25396729 193.26818848 112.25396729 Z " fill="#F27A15" transform="translate(55.7318115234375,45.74603271484375)"/>
<path d="M0 0 C0.33 23.76 0.66 47.52 1 72 C33.175 72.495 33.175 72.495 66 73 C65.84170336 56.67978926 65.84170336 56.67978926 65.63964844 40.36010742 C65.62796802 38.316903 65.61777467 36.27368929 65.609375 34.23046875 C65.58891113 33.16622681 65.56844727 32.10198486 65.54736328 31.00549316 C65.54663818 29.48333191 65.54663818 29.48333191 65.54589844 27.93041992 C65.53701599 27.04883713 65.52813354 26.16725433 65.51898193 25.25895691 C66 23 66 23 67.77838135 21.12934875 C70 20 70 20 74 21 C74 38.16 74 55.32 74 73 C76.64 73.33 79.28 73.66 82 74 C83.03254884 77.09764653 83.12908904 79.26148787 83.1328125 82.5078125 C83.13410156 83.57644531 83.13539063 84.64507812 83.13671875 85.74609375 C83.13285156 86.86113281 83.12898437 87.97617188 83.125 89.125 C83.12886719 90.24777344 83.13273438 91.37054688 83.13671875 92.52734375 C83.13478516 94.12642578 83.13478516 94.12642578 83.1328125 95.7578125 C83.13168457 96.7389502 83.13055664 97.72008789 83.12939453 98.73095703 C83 101 83 101 82 102 C80.07332493 102.08748207 78.14348139 102.10697334 76.21484375 102.09765625 C74.46010742 102.09282227 74.46010742 102.09282227 72.66992188 102.08789062 C71.43822266 102.07951172 70.20652344 102.07113281 68.9375 102.0625 C67.08415039 102.05573242 67.08415039 102.05573242 65.19335938 102.04882812 C62.12885883 102.03699608 59.06445279 102.02051173 56 102 C55.72671875 103.07765625 55.4534375 104.1553125 55.171875 105.265625 C54.14724944 108.53076513 53.45749161 110.25767076 51.25 112.75 C50.78078125 113.30171875 50.3115625 113.8534375 49.828125 114.421875 C44.64202744 118.89876264 39.69678265 119.55252515 33.125 119.5 C31.92399658 119.49359497 31.92399658 119.49359497 30.69873047 119.48706055 C24.669126 119.31247716 20.3841532 118.3841532 16 114 C15.175 113.236875 14.35 112.47375 13.5 111.6875 C11.41384033 107.94979726 11.89589613 105.25524554 12 101 C10.55379272 100.96241577 10.55379272 100.96241577 9.07836914 100.92407227 C5.51312158 100.83014694 1.94807567 100.72989061 -1.61694336 100.62768555 C-3.16214289 100.58428015 -4.70739214 100.54260929 -6.25268555 100.50268555 C-8.46939096 100.44511801 -10.6858448 100.38138576 -12.90234375 100.31640625 C-13.5971434 100.29969376 -14.29194305 100.28298126 -15.00779724 100.26576233 C-19.88612829 100.11387171 -19.88612829 100.11387171 -21 99 C-21.04080783 97.00041636 -21.04254356 94.99954746 -21 93 C-17.58248347 91.86082782 -14.96512063 91.88661519 -11.36328125 91.90234375 C-9.41518555 91.90717773 -9.41518555 91.90717773 -7.42773438 91.91210938 C-6.05598892 91.92046469 -4.68424413 91.92892963 -3.3125 91.9375 C-1.92903805 91.94251665 -0.54557437 91.94707927 0.83789062 91.95117188 C4.22530395 91.96297471 7.61263033 91.97943981 11 92 C11 91.34 11 90.68 11 90 C11.66 90 12.32 90 13 90 C13 87.69 13 85.38 13 83 C-18.35 83 -49.7 83 -82 83 C-81.34 84.32 -80.68 85.64 -80 87 C-79.953125 89.03515625 -79.953125 89.03515625 -80.25 91.0625 C-80.33765625 91.73410156 -80.4253125 92.40570313 -80.515625 93.09765625 C-81 95 -81 95 -83 98 C-83.66 98 -84.32 98 -85 98 C-85.10957031 97.38511719 -85.21914062 96.77023438 -85.33203125 96.13671875 C-85.49058594 95.32847656 -85.64914063 94.52023438 -85.8125 93.6875 C-85.96332031 92.88699219 -86.11414063 92.08648437 -86.26953125 91.26171875 C-87.08213407 88.74569185 -88.10108767 87.77405234 -90 86 C-90 85.34 -90 84.68 -90 84 C-91.32 84 -92.64 84 -94 84 C-94 83.34 -94 82.68 -94 82 C-94.86882812 82.01160156 -95.73765625 82.02320313 -96.6328125 82.03515625 C-97.78523438 82.04417969 -98.93765625 82.05320312 -100.125 82.0625 C-101.26195312 82.07410156 -102.39890625 82.08570313 -103.5703125 82.09765625 C-106.8129156 82.005327 -109.81932612 81.61389906 -113 81 C-112.67 82.32 -112.34 83.64 -112 85 C-114.97 85.495 -114.97 85.495 -118 86 C-117.67 83.69 -117.34 81.38 -117 79 C-117.66 79 -118.32 79 -119 79 C-119 79.66 -119 80.32 -119 81 C-121.296537 82.1482685 -122.58313167 82.11561175 -125.1328125 82.09765625 C-125.93847656 82.09443359 -126.74414062 82.09121094 -127.57421875 82.08789062 C-128.83685547 82.07532227 -128.83685547 82.07532227 -130.125 82.0625 C-130.97449219 82.05798828 -131.82398438 82.05347656 -132.69921875 82.04882812 C-134.79950909 82.03702874 -136.8997633 82.01909306 -139 82 C-139 80.02 -139 78.04 -139 76 C-135.40625295 74.36958434 -132.59071367 73.74527064 -128.65324402 73.7215271 C-127.06528015 73.70478188 -127.06528015 73.70478188 -125.44523621 73.68769836 C-124.29437027 73.68553818 -123.14350433 73.68337799 -121.95776367 73.68115234 C-120.12787399 73.66608391 -120.12787399 73.66608391 -118.26101685 73.65071106 C-114.92460543 73.62514966 -111.58836345 73.60827603 -108.25189376 73.59528303 C-104.76181835 73.5796315 -101.27182867 73.55284775 -97.78181458 73.5272522 C-91.17693549 73.48050014 -84.57204021 73.44373879 -77.96708041 73.41057932 C-70.44589374 73.37233264 -62.92479324 73.32292917 -55.40367925 73.27259517 C-39.9358485 73.16932848 -24.46796938 73.08005103 -9 73 C-8.98969254 72.21374741 -8.97938507 71.42749481 -8.96876526 70.61741638 C-8.87056477 63.18787367 -8.7680195 55.75840936 -8.66066074 48.3289938 C-8.60562536 44.50996568 -8.55223776 40.69092968 -8.50268555 36.87182617 C-8.4547543 33.18241709 -8.40240371 29.4930942 -8.34705925 25.80378914 C-8.3267652 24.40009791 -8.30803189 22.99638316 -8.29092598 21.59264946 C-8.26659277 19.6182693 -8.23606687 17.64396846 -8.20532227 15.66967773 C-8.18977798 14.54826889 -8.1742337 13.42686005 -8.15821838 12.27146912 C-7.99024416 8.79827932 -7.54244839 5.43300324 -7 2 C-1.125 0 -1.125 0 0 0 Z M22.39453125 88.8046875 C19.95777702 92.64069836 20.25392086 96.62023912 21 101 C22.65536796 104.21877104 24.98607376 106.28043944 27.9375 108.375 C32.03943985 109.61801208 35.11275438 109.31940842 39.125 107.875 C43.24795331 105.18611741 45.15268614 102.06532752 47 97.5625 C47 93.69086296 45.11062048 91.14728567 43 88 C42.34 87.01 41.68 86.02 41 85 C34.27823139 82.15617482 27.16985511 83.43680521 22.39453125 88.8046875 Z M54 84 C54.66 86.31 55.32 88.62 56 91 C61.94 91 67.88 91 74 91 C74 88.69 74 86.38 74 84 C67.4 84 60.8 84 54 84 Z " fill="#F37A13" transform="translate(195,74)"/>
<path d="M0 0 C1.1177758 -0.01051392 1.1177758 -0.01051392 2.25813293 -0.02124023 C4.71739138 -0.03882229 7.17549581 -0.02719761 9.63476562 -0.01367188 C11.34582744 -0.01636675 13.05688776 -0.02024913 14.76794434 -0.02526855 C18.35244337 -0.03116386 21.93654346 -0.02259986 25.52099609 -0.00390625 C30.11468002 0.01888362 34.70742917 0.00576066 39.3010788 -0.01819611 C42.83387286 -0.03265339 46.36644546 -0.02804848 49.89924622 -0.01768494 C51.59292207 -0.01501744 53.28661805 -0.01828823 54.98027039 -0.02760315 C57.34806539 -0.037768 59.71434879 -0.02227067 62.08203125 0 C62.78137283 -0.00809692 63.48071442 -0.01619385 64.20124817 -0.02453613 C67.38301623 0.03088028 69.30184206 0.35932268 71.97584534 2.12864685 C74.06712393 5.32058122 74.04220096 7.45171301 74.04272461 11.25805664 C74.05082909 12.26119904 74.05082909 12.26119904 74.05909729 13.28460693 C74.07157668 15.4890201 74.05510267 17.69212525 74.03710938 19.89648438 C74.03726437 21.43057829 74.03875335 22.96467261 74.04151917 24.49876404 C74.04290273 27.71085968 74.03035146 30.92250855 74.00756836 34.13452148 C73.9791594 38.25290431 73.98192786 42.37054624 73.99465847 46.48898411 C74.00161057 49.65543454 73.99383225 52.82171348 73.98140144 55.98814201 C73.97688402 57.5067981 73.97655269 59.02547257 73.98046684 60.54413033 C73.98337521 62.66530285 73.96689302 64.78545103 73.94506836 66.90649414 C73.93966537 68.11354507 73.93426239 69.32059601 73.92869568 70.56422424 C73.54101562 73.51757812 73.54101562 73.51757812 72.48731995 75.4065094 C69.45556038 77.13722191 66.39268609 76.93428245 62.99609375 76.90576172 C61.84686684 76.91364716 61.84686684 76.91364716 60.67442322 76.92169189 C58.14016372 76.93490313 55.60653159 76.92615011 53.07226562 76.91601562 C51.31253946 76.91803604 49.55281411 76.92094721 47.79309082 76.92471313 C44.10432975 76.929138 40.41578654 76.92270027 36.72705078 76.90869141 C31.99550281 76.89159935 27.26446533 76.90143968 22.5329361 76.9194088 C18.89898828 76.93024229 15.26516177 76.92680231 11.63121033 76.91902542 C9.88646891 76.91702221 8.14171653 76.91948694 6.39698792 76.92646408 C3.95967377 76.93407152 1.52318971 76.92248496 -0.9140625 76.90576172 C-1.63727188 76.91183441 -2.36048126 76.9179071 -3.10560608 76.92416382 C-5.86317041 76.88905877 -7.98240979 76.78963584 -10.4052887 75.4065094 C-11.99467197 72.55726569 -11.84849383 70.15552743 -11.86303711 66.90649414 C-11.87333199 65.90598022 -11.87333199 65.90598022 -11.88383484 64.88525391 C-11.90213553 62.68044748 -11.8982609 60.47635046 -11.89257812 58.27148438 C-11.8971386 56.73835518 -11.90244377 55.20522804 -11.90846252 53.67210388 C-11.91740016 50.45832009 -11.9149635 47.24478469 -11.9050293 44.03100586 C-11.89354213 39.91371891 -11.91374294 35.79728992 -11.94294643 31.6801157 C-11.9612992 28.51363178 -11.96101784 25.34735377 -11.95530891 22.18083 C-11.95515556 20.66298151 -11.96121122 19.14511918 -11.97360039 17.62732124 C-11.98849129 15.50368701 -11.97784999 13.38164139 -11.96069336 11.25805664 C-11.96052719 10.05021011 -11.96036102 8.84236359 -11.96018982 7.59791565 C-11.45898438 4.51757812 -11.45898438 4.51757812 -9.89381409 2.12864685 C-6.62583101 -0.03369958 -3.7914557 -0.04389719 0 0 Z M-0.45898438 11.51757812 C-0.45898438 29.33757812 -0.45898438 47.15757813 -0.45898438 65.51757812 C20.33101563 65.51757812 41.12101563 65.51757812 62.54101562 65.51757812 C62.54101562 47.69757813 62.54101562 29.87757812 62.54101562 11.51757812 C58.58101562 11.51757812 54.62101562 11.51757812 50.54101562 11.51757812 C50.21101563 18.77757813 49.88101563 26.03757813 49.54101562 33.51757812 C46.03886509 34.68496164 43.2665434 34.64709384 39.57226562 34.65039062 C38.8955481 34.65134735 38.21883057 34.65230408 37.52160645 34.65328979 C36.09269111 34.65396945 34.66377266 34.65213014 33.23486328 34.64794922 C31.04908303 34.64259788 28.86350825 34.64790141 26.67773438 34.65429688 C25.28841101 34.65363606 23.89908776 34.65235481 22.50976562 34.65039062 C21.24583984 34.6492627 19.98191406 34.64813477 18.6796875 34.64697266 C15.54101562 34.51757812 15.54101562 34.51757812 12.54101562 33.51757812 C12.21101563 26.25757812 11.88101563 18.99757812 11.54101562 11.51757812 C7.58101562 11.51757812 3.62101562 11.51757812 -0.45898438 11.51757812 Z M22.54101562 12.51757812 C22.46875061 14.37045314 22.45720343 16.2259169 22.47851562 18.08007812 C22.49914062 19.87445313 22.51976562 21.66882813 22.54101562 23.51757812 C28.15101562 23.51757812 33.76101562 23.51757812 39.54101562 23.51757812 C39.54101562 19.55757812 39.54101562 15.59757812 39.54101562 11.51757812 C36.89511549 11.49073134 34.24948467 11.47081456 31.60351562 11.45507812 C30.47139648 11.44250977 30.47139648 11.44250977 29.31640625 11.4296875 C25.62909799 11.05232213 25.62909799 11.05232213 22.54101562 12.51757812 Z " fill="#EF7E1D" transform="translate(91.458984375,62.482421875)"/>
<path d="M0 0 C1.21991135 -0.00563965 2.43982269 -0.0112793 3.69670105 -0.01708984 C5.05581724 -0.0132009 6.41493285 -0.00910454 7.77404785 -0.00482178 C9.1996529 -0.00753063 10.62525656 -0.01109097 12.05085754 -0.01544189 C15.92888362 -0.02458079 19.80680362 -0.02101551 23.68483162 -0.01468372 C27.73715635 -0.00963147 31.7894718 -0.01431301 35.84179688 -0.01745605 C42.64784379 -0.02109797 49.45384735 -0.01629072 56.2598877 -0.0067749 C64.13632923 0.00411009 72.01266724 0.00058467 79.88910627 -0.01042771 C86.6432711 -0.0194942 93.39740471 -0.02078901 100.15157366 -0.01555037 C104.1892164 -0.01242714 108.22681043 -0.01203097 112.26445007 -0.01862335 C116.05979971 -0.02438693 119.85501545 -0.02041819 123.65035057 -0.00883484 C125.04598455 -0.00618293 126.44162973 -0.00696235 127.83725929 -0.01136017 C129.73696118 -0.01679594 131.63668759 -0.00878226 133.53637695 0 C135.13363491 0.00113108 135.13363491 0.00113108 136.76316071 0.002285 C139.26818848 0.25396729 139.26818848 0.25396729 141.26818848 2.25396729 C141.41316832 4.83460857 141.45496393 7.30340613 141.39318848 9.87896729 C141.38416504 10.58537354 141.3751416 11.29177979 141.36584473 12.01959229 C141.34226451 13.76452826 141.30639308 15.50929024 141.26818848 17.25396729 C140.93818848 17.25396729 140.60818848 17.25396729 140.26818848 17.25396729 C139.60818848 12.30396729 138.94818848 7.35396729 138.26818848 2.25396729 C119.6405769 2.23084941 101.01296936 2.21298863 82.38534641 2.20215511 C73.73683243 2.19699193 65.08832751 2.18994881 56.43981934 2.17852783 C48.90454269 2.16858167 41.36927259 2.16211402 33.83398956 2.15987879 C29.84162995 2.15857157 25.84928911 2.15548499 21.8569355 2.14823723 C18.1035175 2.14147808 14.35012609 2.13935011 10.59670258 2.1408596 C9.21515954 2.14058323 7.83361566 2.13857747 6.45207787 2.13476181 C4.57381703 2.12982629 2.6955421 2.13156933 0.817276 2.13371277 C-0.76313807 2.13233008 -0.76313807 2.13233008 -2.3754797 2.13091946 C-4.68911833 1.98818419 -4.68911833 1.98818419 -5.73181152 3.25396729 C-5.82987871 4.8137828 -5.85813023 6.3780381 -5.85879517 7.94093323 C-5.86161499 8.95463989 -5.86443481 9.96834656 -5.86734009 11.01277161 C-5.86531586 12.13433151 -5.86329163 13.25589142 -5.86120605 14.41143799 C-5.86295837 15.58534088 -5.86471069 16.75924377 -5.86651611 17.96871948 C-5.87017478 21.19817845 -5.86930048 24.42759674 -5.86613703 27.65705514 C-5.86361168 31.03312534 -5.86595162 34.40919276 -5.86752319 37.78526306 C-5.86934512 43.45899954 -5.86693875 49.13272302 -5.86218262 54.80645752 C-5.8567478 61.36553534 -5.85849687 67.92458204 -5.86400902 74.48365909 C-5.86854886 80.11087412 -5.86918619 85.73807979 -5.86657035 91.36529607 C-5.86501137 94.72783778 -5.86480331 98.09036488 -5.86810684 101.45290565 C-5.87064098 105.20472959 -5.86678154 108.95649353 -5.86120605 112.70831299 C-5.86323029 113.8238002 -5.86525452 114.93928741 -5.86734009 116.08857727 C-5.86452026 117.11074341 -5.86170044 118.13290955 -5.85879517 119.18605042 C-5.85841814 120.07336003 -5.85804111 120.96066965 -5.85765266 121.87486744 C-5.79181789 124.55497686 -5.79181789 124.55497686 -4.73181152 128.25396729 C3.68318848 127.75896729 3.68318848 127.75896729 12.26818848 127.25396729 C11.60818848 126.26396729 10.94818848 125.27396729 10.26818848 124.25396729 C11.25818848 123.26396729 12.24818848 122.27396729 13.26818848 121.25396729 C12.03068848 121.29521729 10.79318848 121.33646729 9.51818848 121.37896729 C6.25180885 121.39055019 4.05349378 121.11083748 1.26818848 119.25396729 C1.26818848 116.61396729 1.26818848 113.97396729 1.26818848 111.25396729 C4.56778988 109.60416658 8.25946732 109.87138367 11.89318848 109.69146729 C12.69498535 109.64828369 13.49678223 109.6051001 14.32287598 109.56060791 C16.30443958 109.45445272 18.28629118 109.35369873 20.26818848 109.25396729 C20.26818848 108.59396729 20.26818848 107.93396729 20.26818848 107.25396729 C20.92818848 107.25396729 21.58818848 107.25396729 22.26818848 107.25396729 C22.26818848 109.23396729 22.26818848 111.21396729 22.26818848 113.25396729 C24.24818848 112.75896729 24.24818848 112.75896729 26.26818848 112.25396729 C26.26818848 111.26396729 26.26818848 110.27396729 26.26818848 109.25396729 C32.53818848 109.58396729 38.80818848 109.91396729 45.26818848 110.25396729 C45.26818848 110.91396729 45.26818848 111.57396729 45.26818848 112.25396729 C46.58818848 112.25396729 47.90818848 112.25396729 49.26818848 112.25396729 C49.26818848 112.91396729 49.26818848 113.57396729 49.26818848 114.25396729 C50.25818848 114.58396729 51.24818848 114.91396729 52.26818848 115.25396729 C54.28248931 118.96452145 54.46221093 122.08248464 54.26818848 126.25396729 C54.92818848 126.25396729 55.58818848 126.25396729 56.26818848 126.25396729 C56.61881348 125.26396729 56.96943848 124.27396729 57.33068848 123.25396729 C57.52791504 122.69709229 57.7251416 122.14021729 57.92834473 121.56646729 C58.51187937 118.31108505 58.51187937 118.31108505 57.26818848 111.25396729 C88.61818848 111.25396729 119.96818848 111.25396729 152.26818848 111.25396729 C152.26818848 113.56396729 152.26818848 115.87396729 152.26818848 118.25396729 C151.60818848 118.25396729 150.94818848 118.25396729 150.26818848 118.25396729 C150.26818848 118.91396729 150.26818848 119.57396729 150.26818848 120.25396729 C134.42818848 120.74896729 134.42818848 120.74896729 118.26818848 121.25396729 C118.59818848 123.23396729 118.92818848 125.21396729 119.26818848 127.25396729 C120.16650391 127.27902344 121.06481934 127.30407959 121.99035645 127.32989502 C125.31893717 127.42495422 128.64733841 127.5241915 131.97570801 127.62628174 C133.41706468 127.66962959 134.85847265 127.7113048 136.29992676 127.75128174 C138.37023389 127.80898817 140.4402828 127.87268099 142.51037598 127.93756104 C143.75673828 127.97421875 145.00310059 128.01087646 146.28723145 128.04864502 C149.26818848 128.25396729 149.26818848 128.25396729 151.26818848 129.25396729 C151.89318848 131.81646729 151.89318848 131.81646729 152.26818848 134.25396729 C151.60818848 134.25396729 150.94818848 134.25396729 150.26818848 134.25396729 C149.93818848 132.93396729 149.60818848 131.61396729 149.26818848 130.25396729 C147.92857056 130.27753296 147.92857056 130.27753296 146.56188965 130.30157471 C143.24640091 130.35272167 139.93133172 130.3903254 136.61560059 130.41876221 C135.18096296 130.43384317 133.74637139 130.45431109 132.31188965 130.48028564 C130.24902989 130.51670165 128.1867799 130.53369972 126.12365723 130.54693604 C124.26196899 130.57050171 124.26196899 130.57050171 122.3626709 130.59454346 C119.26818848 130.25396729 119.26818848 130.25396729 117.35925293 128.92706299 C115.67731312 126.34788788 115.94977502 124.24705382 116.26818848 121.25396729 C118.26818848 119.25396729 118.26818848 119.25396729 121.34094238 119.0269165 C122.62919922 119.03739014 123.91745605 119.04786377 125.24475098 119.05865479 C125.92999847 119.06148468 126.61524597 119.06431458 127.32125854 119.06723022 C129.51207875 119.07843447 131.70249163 119.1035387 133.89318848 119.12896729 C135.37755758 119.13899681 136.86193308 119.14812271 138.34631348 119.15631104 C141.98707108 119.17837435 145.62759004 119.21290553 149.26818848 119.25396729 C149.41256348 118.47021729 149.55693848 117.68646729 149.70568848 116.87896729 C150.26818848 114.25396729 150.26818848 114.25396729 151.26818848 112.25396729 C121.23818848 112.25396729 91.20818848 112.25396729 60.26818848 112.25396729 C61.25818848 114.23396729 62.24818848 116.21396729 63.26818848 118.25396729 C64.38846436 118.28369629 64.38846436 118.28369629 65.53137207 118.31402588 C68.90234452 118.4090494 72.27267777 118.51881988 75.64318848 118.62896729 C76.81881348 118.65990479 77.99443848 118.69084229 79.20568848 118.72271729 C80.32717285 118.76138916 81.44865723 118.80006104 82.60412598 118.83990479 C84.15946045 118.88703613 84.15946045 118.88703613 85.74621582 118.93511963 C88.26818848 119.25396729 88.26818848 119.25396729 90.26818848 121.25396729 C90.58068848 124.75396729 90.58068848 124.75396729 90.26818848 128.25396729 C86.87715073 130.51465912 85.85108908 130.45826595 81.90100098 130.35162354 C80.85041504 130.34968994 79.7998291 130.34775635 78.71740723 130.34576416 C76.50866223 130.32629813 74.29998272 130.27959585 72.09240723 130.20513916 C68.9163089 130.22652048 66.30778719 130.3189245 63.26818848 131.25396729 C60.79790808 133.98003832 59.46112361 136.79428088 58.26818848 140.25396729 C57.60818848 140.25396729 56.94818848 140.25396729 56.26818848 140.25396729 C56.06193848 140.85209229 55.85568848 141.45021729 55.64318848 142.06646729 C53.6696349 145.20621161 51.70508668 145.87766159 48.26818848 147.25396729 C45.27772416 147.69355422 42.34921839 147.71902233 39.33068848 147.69146729 C38.55789551 147.71144775 37.78510254 147.73142822 36.9888916 147.75201416 C29.83486638 147.7459668 25.57567718 145.56145598 20.45568848 140.44146729 C18.13233792 137.05601362 17.29889398 134.19490011 16.26818848 130.25396729 C15.33752563 130.27753296 15.33752563 130.27753296 14.38806152 130.30157471 C11.5773632 130.36392943 8.76681036 130.40295877 5.95568848 130.44146729 C4.97922363 130.466604 4.00275879 130.49174072 2.9967041 130.51763916 C1.59001465 130.53214111 1.59001465 130.53214111 0.15490723 130.54693604 C-0.70916748 130.56264648 -1.57324219 130.57835693 -2.46350098 130.59454346 C-5.30434099 130.16800468 -5.99567508 129.51208565 -7.73181152 127.25396729 C-8.10654163 124.9382391 -8.10654163 124.9382391 -8.10603333 122.16117859 C-8.11304764 121.10817566 -8.12006195 120.05517273 -8.12728882 118.97026062 C-8.11964508 117.81534622 -8.11200134 116.66043182 -8.10412598 115.47052002 C-8.10777664 114.25409821 -8.11142731 113.03767639 -8.1151886 111.78439331 C-8.12191219 108.44756266 -8.1151716 105.11128825 -8.10185647 101.77451205 C-8.09054847 98.28540926 -8.09464891 94.79632105 -8.09660339 91.3072052 C-8.09748646 85.44867149 -8.08640242 79.59025347 -8.06799316 73.73175049 C-8.04681542 66.95329173 -8.04331765 60.17500236 -8.04955512 53.39651722 C-8.05524429 46.88087436 -8.04960907 40.3652913 -8.03838158 33.84965706 C-8.03373064 31.07416748 -8.03286385 28.2987144 -8.03496742 25.52322197 C-8.03719601 21.6514235 -8.02276085 17.77978704 -8.00646973 13.90802002 C-8.00894714 12.75108139 -8.01142456 11.59414276 -8.01397705 10.40214539 C-8.00689224 9.35196228 -7.99980743 8.30177917 -7.99250793 7.21977234 C-7.99045506 6.3037194 -7.98840219 5.38766645 -7.98628712 4.44385433 C-7.41528149 -0.46992862 -4.120896 0.00291816 0 0 Z M4.26818848 112.25396729 C4.26818848 114.56396729 4.26818848 116.87396729 4.26818848 119.25396729 C8.22818848 119.25396729 12.18818848 119.25396729 16.26818848 119.25396729 C16.92818848 116.94396729 17.58818848 114.63396729 18.26818848 112.25396729 C13.64818848 112.25396729 9.02818848 112.25396729 4.26818848 112.25396729 Z M31.26818848 113.25396729 C27.35867018 117.83368872 26.45388222 121.40461425 26.26818848 127.25396729 C27.197874 130.74028801 28.41139192 133.03201441 31.26818848 135.25396729 C35.31198237 137.38819184 38.7358053 137.58359515 43.26818848 137.25396729 C46.29183325 136.16209556 48.16858052 134.66545335 50.26818848 132.25396729 C52.50334689 126.62791001 52.63820468 121.896863 50.26818848 116.25396729 C48.80692979 114.26134181 47.8468075 113.48970096 45.58068848 112.56646729 C41.20814164 111.97558258 35.28333097 111.24639604 31.26818848 113.25396729 Z " fill="#F07D1A" transform="translate(55.7318115234375,45.74603271484375)"/>
<path d="M0 0 C1.65 0 3.3 0 5 0 C5 2.97 5 5.94 5 9 C5.99 9 6.98 9 8 9 C8.02312737 17.06652174 8.04091709 25.13302972 8.05181217 33.19957638 C8.05704014 36.94483037 8.06413622 40.69006176 8.07543945 44.43530273 C8.08627141 48.04681687 8.09227749 51.65830921 8.09487724 55.26983833 C8.09673094 56.65060329 8.10035049 58.031367 8.10573006 59.41212273 C8.11294447 61.33975952 8.11340809 63.26741807 8.11352539 65.19506836 C8.115746 66.29427109 8.11796661 67.39347382 8.12025452 68.52598572 C8 71 8 71 7 72 C4.59651714 72.09496708 2.22189018 72.12558862 -0.18188477 72.11352539 C-1.3086412 72.11374443 -1.3086412 72.11374443 -2.4581604 72.1139679 C-4.95260459 72.11326863 -7.44697503 72.10547564 -9.94140625 72.09765625 C-11.66633564 72.09579212 -13.39126557 72.09436819 -15.11619568 72.09336853 C-19.66512503 72.08954297 -24.21402267 72.07971238 -28.76293945 72.06866455 C-33.40120006 72.05845124 -38.03946577 72.05387108 -42.67773438 72.04882812 C-51.78517022 72.03809014 -60.89258248 72.02101327 -70 72 C-70 71.01 -70 70.02 -70 69 C-71.32 69 -72.64 69 -74 69 C-73.93876174 61.24581657 -73.86163642 53.49196791 -73.76428509 45.73816299 C-73.71957747 42.13763929 -73.68032259 38.53722883 -73.65356445 34.93652344 C-73.62753479 31.46092359 -73.58713579 27.98575943 -73.53681374 24.51042938 C-73.51203501 22.54076478 -73.50209914 20.57093161 -73.49235535 18.60113525 C-73.47256119 17.40019226 -73.45276703 16.19924927 -73.43237305 14.96191406 C-73.42126999 13.90490295 -73.41016693 12.84789185 -73.39872742 11.7588501 C-72.94923319 8.64873746 -72.1880461 7.2283074 -70 5 C-68 5 -68 5 -66.40202332 6.17463684 C-64.53066173 8.6110546 -64.60391979 10.14995331 -64.56762695 13.20581055 C-64.54768677 14.28149292 -64.52774658 15.35717529 -64.50720215 16.4654541 C-64.50095825 17.59447144 -64.49471436 18.72348877 -64.48828125 19.88671875 C-64.47164429 20.92558228 -64.45500732 21.9644458 -64.43786621 23.03479004 C-64.37999276 26.91882034 -64.34779625 30.80319892 -64.3125 34.6875 C-64.209375 43.370625 -64.10625 52.05375 -64 61 C-43.21 61.33 -22.42 61.66 -1 62 C-1.03956526 43.09227086 -1.03956526 43.09227086 -1.09008789 24.18457031 C-1.09300826 21.81575567 -1.09555653 19.44694052 -1.09765625 17.078125 C-1.10277222 15.84626465 -1.10788818 14.6144043 -1.11315918 13.34521484 C-1.11334045 11.57960205 -1.11334045 11.57960205 -1.11352539 9.77832031 C-1.115746 8.75683899 -1.11796661 7.73535767 -1.12025452 6.68292236 C-1.01297028 4.28937172 -0.6873403 2.28533257 0 0 Z " fill="#F37A14" transform="translate(155,66)"/>
<path d="M0 0 C1.16337891 0.00966797 2.32675781 0.01933594 3.52539062 0.02929688 C4.74033203 0.05443359 5.95527344 0.07957031 7.20703125 0.10546875 C8.43357422 0.11900391 9.66011719 0.13253906 10.92382812 0.14648438 C13.95616789 0.18188134 16.98763121 0.23126115 20.01953125 0.29296875 C20.01953125 0.95296875 20.01953125 1.61296875 20.01953125 2.29296875 C20.91671875 2.69515625 20.91671875 2.69515625 21.83203125 3.10546875 C24.01800979 4.29214281 25.43285719 5.38895988 27.01953125 7.29296875 C27.01953125 7.95296875 27.01953125 8.61296875 27.01953125 9.29296875 C27.61765625 9.56109375 28.21578125 9.82921875 28.83203125 10.10546875 C31.01800979 11.29214281 32.43285719 12.38895988 34.01953125 14.29296875 C34.01953125 14.95296875 34.01953125 15.61296875 34.01953125 16.29296875 C35.00953125 16.62296875 35.99953125 16.95296875 37.01953125 17.29296875 C39.43517171 20.91642944 39.31734794 23.60900857 39.26953125 27.79296875 C39.28113281 28.80810547 39.28113281 28.80810547 39.29296875 29.84375 C39.27837936 33.54216132 39.12217567 35.13900212 37.01953125 38.29296875 C35.12207031 38.66719055 35.12207031 38.66719055 32.78515625 38.6652832 C31.91084961 38.67151199 31.03654297 38.67774078 30.13574219 38.68415833 C29.18989258 38.67494858 28.24404297 38.66573883 27.26953125 38.65625 C26.30047852 38.6567485 25.33142578 38.65724701 24.33300781 38.65776062 C22.28188021 38.65541759 20.23074987 38.64567569 18.1796875 38.62915039 C15.03229175 38.60556437 11.88574284 38.60858689 8.73828125 38.61523438 C6.74869284 38.60965768 4.75910802 38.60254786 2.76953125 38.59375 C1.82368164 38.59466141 0.87783203 38.59557281 -0.09667969 38.59651184 C-0.97098633 38.58697983 -1.84529297 38.57744781 -2.74609375 38.56762695 C-3.51727539 38.56301956 -4.28845703 38.55841217 -5.08300781 38.55366516 C-6.98046875 38.29296875 -6.98046875 38.29296875 -8.98046875 36.29296875 C-9.19222595 33.81908 -9.28446346 31.45985751 -9.28125 28.984375 C-9.28553513 28.26185043 -9.28982025 27.53932587 -9.29423523 26.79490662 C-9.29998112 25.26586963 -9.30047687 23.73680531 -9.29614258 22.20776367 C-9.29298546 19.86785201 -9.31642633 17.52920808 -9.34179688 15.18945312 C-9.34407014 13.70442868 -9.34477324 12.21940083 -9.34375 10.734375 C-9.35295975 10.03429825 -9.36216949 9.3342215 -9.37165833 8.6129303 C-9.3452797 5.84326039 -9.25654722 3.76076512 -7.83154297 1.34619141 C-5.15871301 -0.17459314 -3.06217724 -0.04481235 0 0 Z M3.01953125 11.29296875 C3.01953125 16.90296875 3.01953125 22.51296875 3.01953125 28.29296875 C11.59953125 28.29296875 20.17953125 28.29296875 29.01953125 28.29296875 C27.85654016 23.64100438 26.46640388 22.50482734 23.01953125 19.29296875 C18.01953125 14.29296875 18.01953125 14.29296875 16.7578125 12.65625 C14.16872534 10.62570749 12.06318176 11.00123809 8.83203125 11.10546875 C5.95484375 11.19828125 5.95484375 11.19828125 3.01953125 11.29296875 Z " fill="#F37B15" transform="translate(212.98046875,81.70703125)"/>
<path d="M0 0 C31.35 0 62.7 0 95 0 C95 2.31 95 4.62 95 7 C94.34 7 93.68 7 93 7 C93 7.66 93 8.32 93 9 C77.16 9.495 77.16 9.495 61 10 C61.495 12.97 61.495 12.97 62 16 C63.34747314 16.03758423 63.34747314 16.03758423 64.72216797 16.07592773 C68.05074869 16.17098693 71.37914994 16.27022421 74.70751953 16.37231445 C76.1488762 16.41566231 77.59028418 16.45733752 79.03173828 16.49731445 C81.10204541 16.55502088 83.17209432 16.61871371 85.2421875 16.68359375 C86.4885498 16.72025146 87.73491211 16.75690918 89.01904297 16.79467773 C92 17 92 17 94 18 C94.625 20.5625 94.625 20.5625 95 23 C94.34 23 93.68 23 93 23 C92.505 21.02 92.505 21.02 92 19 C91.10692139 19.01571045 90.21384277 19.0314209 89.29370117 19.04760742 C85.97821244 19.09875439 82.66314325 19.13635812 79.34741211 19.16479492 C77.91277448 19.17987589 76.47818292 19.2003438 75.04370117 19.22631836 C72.98084141 19.26273437 70.91859142 19.27973243 68.85546875 19.29296875 C66.99378052 19.31653442 66.99378052 19.31653442 65.09448242 19.34057617 C62 19 62 19 60.09106445 17.6730957 C58.40912464 15.0939206 58.68158654 12.99308653 59 10 C61 8 61 8 64.07275391 7.77294922 C65.36101074 7.78342285 66.64926758 7.79389648 67.9765625 7.8046875 C68.66181 7.8075174 69.3470575 7.81034729 70.05307007 7.81326294 C72.24389027 7.82446719 74.43430316 7.84957141 76.625 7.875 C78.1093691 7.88502952 79.5937446 7.89415542 81.078125 7.90234375 C84.71888261 7.92440706 88.35940156 7.95893824 92 8 C92.144375 7.21625 92.28875 6.4325 92.4375 5.625 C93 3 93 3 94 1 C63.97 1 33.94 1 3 1 C3.99 2.98 4.98 4.96 6 7 C6.74685059 7.01981934 7.49370117 7.03963867 8.26318359 7.06005859 C11.63415605 7.15508211 15.00448929 7.26485259 18.375 7.375 C19.550625 7.4059375 20.72625 7.436875 21.9375 7.46875 C23.05898437 7.50742188 24.18046875 7.54609375 25.3359375 7.5859375 C26.89127197 7.63306885 26.89127197 7.63306885 28.47802734 7.68115234 C31 8 31 8 33 10 C33.3125 13.5 33.3125 13.5 33 17 C29.60896226 19.26069183 28.5829006 19.20429866 24.6328125 19.09765625 C23.58222656 19.09572266 22.53164062 19.09378906 21.44921875 19.09179688 C19.24047376 19.07233085 17.03179425 19.02562856 14.82421875 18.95117188 C11.64812043 18.9725532 9.03959872 19.06495721 6 20 C3.52971961 22.72607103 2.19293513 25.54031359 1 29 C0.34 29 -0.32 29 -1 29 C-1.2475 29.61875 -1.495 30.2375 -1.75 30.875 C-3.29119115 33.49502495 -4.17042876 33.93419483 -7 35 C-14.56044449 35.63314067 -21.76827445 35.31415218 -29 33 C-29 32.34 -29 31.68 -29 31 C-29.99 30.67 -30.98 30.34 -32 30 C-31.67 29.34 -31.34 28.68 -31 28 C-30.13375 28.309375 -30.13375 28.309375 -29.25 28.625 C-26.97230483 29.2589398 -26.97230483 29.2589398 -25.1875 27.875 C-23 27 -23 27 -19.25 28.375 C-18.1775 28.91125 -17.105 29.4475 -16 30 C-15.67 29.34 -15.34 28.68 -15 28 C-12.72036239 24.58054359 -11.67402889 24.43376737 -8 23 C-5.60010434 21.20877353 -5.0545097 20.28752826 -4.48828125 17.30078125 C-4.43027344 16.31464844 -4.37226562 15.32851562 -4.3125 14.3125 C-4.24675781 13.31863281 -4.18101563 12.32476562 -4.11328125 11.30078125 C-4.07589844 10.54152344 -4.03851563 9.78226563 -4 9 C-3.67 9 -3.34 9 -3 9 C-3 10.98 -3 12.96 -3 15 C-2.34 15 -1.68 15 -1 15 C-0.4740625 13.515 -0.4740625 13.515 0.0625 12 C0.25972656 11.443125 0.45695312 10.88625 0.66015625 10.3125 C1.24369089 7.05711777 1.24369089 7.05711777 0 0 Z " fill="#F27E19" transform="translate(113,157)"/>
<path d="M0 0 C1.58177788 -0.002062 1.58177788 -0.002062 3.19551086 -0.00416565 C4.35716263 -0.00057037 5.51881439 0.0030249 6.71566772 0.00672913 C8.54490028 0.00651009 8.54490028 0.00651009 10.41108704 0.00628662 C13.76005938 0.00686497 17.10897049 0.01188906 20.457932 0.01886058 C23.95598197 0.02510104 27.45403272 0.02569847 30.9520874 0.02688599 C37.57835618 0.02999725 44.20460851 0.0382079 50.83087003 0.04823548 C58.37369686 0.05940294 65.91652447 0.06490866 73.4593575 0.06993091 C88.97758372 0.08039067 104.49579353 0.09798617 120.01400757 0.12025452 C120.01400757 0.45025452 120.01400757 0.78025452 120.01400757 1.12025452 C79.09400757 1.12025452 38.17400757 1.12025452 -3.98599243 1.12025452 C-3.98599243 30.82025452 -3.98599243 60.52025452 -3.98599243 91.12025452 C37.59400757 91.12025452 79.17400757 91.12025452 122.01400757 91.12025452 C122.01400757 62.08025452 122.01400757 33.04025452 122.01400757 3.12025452 C122.34400757 3.12025452 122.67400757 3.12025452 123.01400757 3.12025452 C123.03712985 14.70713853 123.05492207 26.29401711 123.06581974 37.88091946 C123.07104882 43.26059214 123.07814692 48.64024909 123.08944702 54.01991272 C123.10027501 59.20700295 123.10628421 64.39407801 123.10888481 69.58117867 C123.11073922 71.56481732 123.11436013 73.5484551 123.11973763 75.53208733 C123.12694689 78.30034587 123.12799856 81.0685409 123.12753296 83.83680725 C123.13112823 84.6654277 123.13472351 85.49404816 123.13842773 86.34777832 C123.12805973 92.00620236 123.12805973 92.00620236 122.01400757 93.12025452 C120.34376088 93.21639585 118.6694248 93.24213174 116.99641418 93.24050903 C115.90961365 93.2418837 114.82281311 93.24325836 113.70307922 93.24467468 C112.50042923 93.24107941 111.29777924 93.23748413 110.0586853 93.23377991 C108.80032867 93.23392593 107.54197205 93.23407196 106.2454834 93.23422241 C102.78489504 93.23451037 99.32434105 93.22861401 95.86376071 93.22164845 C92.25092666 93.21541454 88.6380919 93.21481109 85.0252533 93.21362305 C78.17937248 93.21050984 71.33350757 93.2022966 64.48763376 93.19227356 C55.2399518 93.17902675 45.99226551 93.17361243 36.74457645 93.16777134 C22.16770825 93.1583567 7.59087358 93.13843772 -6.98599243 93.12025452 C-6.98599243 62.76025452 -6.98599243 32.40025452 -6.98599243 1.12025452 C-4.48332281 -0.13108029 -2.80105467 -0.00280667 0 0 Z " fill="#E39957" transform="translate(63.985992431640625,54.87974548339844)"/>
<path d="M0 0 C0.495 1.485 0.495 1.485 1 3 C1.78375 3.061875 2.5675 3.12375 3.375 3.1875 C4.24125 3.455625 5.1075 3.72375 6 4 C7.86941901 7.57987382 8.27206178 10.62078722 8.25 14.625 C8.25773437 16.03652344 8.25773437 16.03652344 8.265625 17.4765625 C8 20 8 20 6 23 C2.94924916 23.266487 0.10373821 23.34757146 -2.9453125 23.29296875 C-4.27283035 23.28660149 -4.27283035 23.28660149 -5.62716675 23.28010559 C-8.46008445 23.26328259 -11.29229652 23.22562425 -14.125 23.1875 C-16.04295849 23.17245782 -17.96092811 23.15876861 -19.87890625 23.14648438 C-24.58621031 23.11336727 -29.29298544 23.06156055 -34 23 C-34.66 21.68 -35.32 20.36 -36 19 C-35.01 19 -34.02 19 -33 19 C-33 17.35 -33 15.7 -33 14 C-32.34 14 -31.68 14 -31 14 C-30.67 13.34 -30.34 12.68 -30 12 C-29.62762207 12.48823242 -29.25524414 12.97646484 -28.87158203 13.47949219 C-26.23939114 15.61793269 -24.41466116 15.3575495 -21.0546875 15.328125 C-19.89582031 15.32296875 -18.73695313 15.3178125 -17.54296875 15.3125 C-16.33253906 15.291875 -15.12210938 15.27125 -13.875 15.25 C-12.65683594 15.24484375 -11.43867188 15.2396875 -10.18359375 15.234375 C-4.7229504 15.71026439 -4.7229504 15.71026439 0 14 C0.04080783 12.00041636 0.04254356 9.99954746 0 8 C-0.639375 7.896875 -1.27875 7.79375 -1.9375 7.6875 C-2.618125 7.460625 -3.29875 7.23375 -4 7 C-4.33 6.01 -4.66 5.02 -5 4 C-3 1 -3 1 0 0 Z " fill="#F47A13" transform="translate(243,96)"/>
<path d="M0 0 C4.71226056 0.41931132 9.42409391 0.29953656 14.15039062 0.23583984 C16.09825272 0.21041083 18.04617835 0.18935049 19.99414062 0.17333984 C20.84169922 0.16173828 21.68925781 0.15013672 22.5625 0.13818359 C24.65039062 0.23583984 24.65039062 0.23583984 26.65039062 1.23583984 C26.74804688 7.38818359 26.74804688 7.38818359 26.65039062 9.23583984 C25.03258905 10.85364141 23.19403545 10.45856132 20.95898438 10.55224609 C19.54262695 10.61508789 19.54262695 10.61508789 18.09765625 10.67919922 C16.60782227 10.73817383 16.60782227 10.73817383 15.08789062 10.79833984 C14.09080078 10.84152344 13.09371094 10.88470703 12.06640625 10.92919922 C9.59454913 11.03564283 7.12258753 11.13765912 4.65039062 11.23583984 C4.32039063 12.55583984 3.99039063 13.87583984 3.65039062 15.23583984 C4.24851563 15.38021484 4.84664062 15.52458984 5.46289062 15.67333984 C7.21189467 16.12308374 8.93716085 16.66476325 10.65039062 17.23583984 C12.42206038 17.38419932 14.19806674 17.48354003 15.97460938 17.55224609 C17.00263672 17.59414062 18.03066406 17.63603516 19.08984375 17.67919922 C20.69762695 17.73817383 20.69762695 17.73817383 22.33789062 17.79833984 C23.42134766 17.84152344 24.50480469 17.88470703 25.62109375 17.92919922 C28.29739854 18.03530822 30.97379589 18.13736345 33.65039062 18.23583984 C33.32039063 18.89583984 32.99039063 19.55583984 32.65039062 20.23583984 C24.07039063 20.23583984 15.49039063 20.23583984 6.65039062 20.23583984 C5.99039063 22.54583984 5.33039063 24.85583984 4.65039062 27.23583984 C2.58789062 29.67333984 2.58789062 29.67333984 0.65039062 31.23583984 C0.32039063 31.23583984 -0.00960937 31.23583984 -0.34960938 31.23583984 C-0.34960938 29.25583984 -0.34960938 27.27583984 -0.34960938 25.23583984 C1.30039063 25.23583984 2.95039063 25.23583984 4.65039062 25.23583984 C4.65039062 22.59583984 4.65039062 19.95583984 4.65039062 17.23583984 C3.99039063 17.23583984 3.33039063 17.23583984 2.65039062 17.23583984 C1.99039063 14.92583984 1.33039063 12.61583984 0.65039062 10.23583984 C0.32039063 10.23583984 -0.00960937 10.23583984 -0.34960938 10.23583984 C-0.39859375 10.99509766 -0.44757813 11.75435547 -0.49804688 12.53662109 C-0.5728125 13.53048828 -0.64757812 14.52435547 -0.72460938 15.54833984 C-0.79421875 16.53447266 -0.86382812 17.52060547 -0.93554688 18.53662109 C-1.34960938 21.23583984 -1.34960938 21.23583984 -3.34960938 24.23583984 C-8.46862019 27.35175947 -8.46862019 27.35175947 -11.72460938 26.92333984 C-12.26085937 26.69646484 -12.79710937 26.46958984 -13.34960938 26.23583984 C-12.44210938 25.90583984 -11.53460938 25.57583984 -10.59960938 25.23583984 C-6.42210705 22.66506918 -4.63080847 19.95746169 -3.34960938 15.23583984 C-4.07230637 11.06025723 -5.77226385 8.51609779 -8.34960938 5.23583984 C-8.34960938 4.57583984 -8.34960938 3.91583984 -8.34960938 3.23583984 C-10.24511959 3.18142328 -12.14108857 3.1428595 -14.03710938 3.11083984 C-15.09285156 3.08763672 -16.14859375 3.06443359 -17.23632812 3.04052734 C-20.37212796 3.23725255 -22.5260631 3.90526331 -25.34960938 5.23583984 C-25.34960938 3.91583984 -25.34960938 2.59583984 -25.34960938 1.23583984 C-22.33634498 -0.27079236 -19.16166947 -0.1821564 -15.84960938 -0.38916016 C-15.17929688 -0.44072266 -14.50898438 -0.49228516 -13.81835938 -0.54541016 C-9.11337079 -0.84838291 -4.67851368 -0.5303396 0 0 Z M4.65039062 2.23583984 C5.31039062 4.54583984 5.97039062 6.85583984 6.65039062 9.23583984 C12.59039062 9.23583984 18.53039062 9.23583984 24.65039062 9.23583984 C24.65039062 6.92583984 24.65039062 4.61583984 24.65039062 2.23583984 C18.05039062 2.23583984 11.45039063 2.23583984 4.65039062 2.23583984 Z " fill="#EF801E" transform="translate(244.349609375,155.76416015625)"/>
<path d="M0 0 C1.14626322 0.97866338 2.29199788 1.95794587 3.4375 2.9375 C4.07558594 3.48277344 4.71367187 4.02804688 5.37109375 4.58984375 C6.26991149 5.36795695 7.15936528 6.15936528 8 7 C8.09346915 8.65738443 8.11744977 10.31874644 8.11352539 11.97875977 C8.11341209 13.57029625 8.11341209 13.57029625 8.11329651 15.19398499 C8.10813522 16.348134 8.10297394 17.50228302 8.09765625 18.69140625 C8.0962413 19.86638168 8.09482635 21.04135712 8.09336853 22.25193787 C8.08774992 26.02215064 8.07519426 29.79230504 8.0625 33.5625 C8.0574874 36.11132727 8.05292408 38.66015547 8.04882812 41.20898438 C8.03777444 47.47267633 8.02101821 53.73633399 8 60 C9.11544189 59.96156982 10.23088379 59.92313965 11.38012695 59.88354492 C15 60 15 60 16.91796875 61.86328125 C18.46289825 66.34190358 18.39641613 70.48484023 18.3125 75.1875 C18.31572266 76.10208984 18.31894531 77.01667969 18.32226562 77.95898438 C18.26727586 84.73272414 18.26727586 84.73272414 16 87 C15.505 74.625 15.505 74.625 15 62 C13.02 62 11.04 62 9 62 C8.34 61.67 7.68 61.34 7 61 C6.67 43.84 6.34 26.68 6 9 C1.36980013 9.4452998 1.36980013 9.4452998 0 11 C-0.12263388 12.56448383 -0.17779522 14.13432772 -0.20532227 15.70336914 C-0.22550415 16.71838501 -0.24568604 17.73340088 -0.26647949 18.7791748 C-0.28295532 19.85364868 -0.29943115 20.92812256 -0.31640625 22.03515625 C-0.33505737 23.01705933 -0.3537085 23.9989624 -0.3729248 25.01062012 C-0.4414572 28.6944846 -0.50145568 32.37850383 -0.5625 36.0625 C-0.706875 44.291875 -0.85125 52.52125 -1 61 C-21.79 61 -42.58 61 -64 61 C-64 60.67 -64 60.34 -64 60 C-43.87 60 -23.74 60 -3 60 C-3.061875 48.2746875 -3.061875 48.2746875 -3.125 36.3125 C-3.12258301 33.85208252 -3.12016602 31.39166504 -3.11767578 28.85668945 C-3.14120504 26.90052371 -3.16693522 24.94438267 -3.1953125 22.98828125 C-3.1862085 21.97745483 -3.17710449 20.96662842 -3.16772461 19.9251709 C-3.13623837 14.77473656 -3.13623837 14.77473656 -5.32318115 10.30795288 C-7.11335535 8.79166167 -7.11335535 8.79166167 -10 7 C-11.875 4.1875 -11.875 4.1875 -13 2 C-11.9275 2.309375 -10.855 2.61875 -9.75 2.9375 C-7.17133778 3.66812096 -4.60487898 4.37482904 -2 5 C-1.34 3.35 -0.68 1.7 0 0 Z " fill="#E7934B" transform="translate(262,86)"/>
<path d="M0 0 C1.1177758 -0.01051392 1.1177758 -0.01051392 2.25813293 -0.02124023 C4.71739138 -0.03882229 7.17549581 -0.02719761 9.63476562 -0.01367188 C11.34582744 -0.01636675 13.05688776 -0.02024913 14.76794434 -0.02526855 C18.35244337 -0.03116386 21.93654346 -0.02259986 25.52099609 -0.00390625 C30.11468002 0.01888362 34.70742917 0.00576066 39.3010788 -0.01819611 C42.83387286 -0.03265339 46.36644546 -0.02804848 49.89924622 -0.01768494 C51.59292207 -0.01501744 53.28661805 -0.01828823 54.98027039 -0.02760315 C57.34806539 -0.037768 59.71434879 -0.02227067 62.08203125 0 C62.78137283 -0.00809692 63.48071442 -0.01619385 64.20124817 -0.02453613 C67.38301623 0.03088028 69.30184206 0.35932268 71.97584534 2.12864685 C74.06712393 5.32058122 74.04220096 7.45171301 74.04272461 11.25805664 C74.05082909 12.26119904 74.05082909 12.26119904 74.05909729 13.28460693 C74.07157668 15.4890201 74.05510267 17.69212525 74.03710938 19.89648438 C74.03726437 21.43057829 74.03875335 22.96467261 74.04151917 24.49876404 C74.04290273 27.71085968 74.03035146 30.92250855 74.00756836 34.13452148 C73.9791594 38.25290431 73.98192786 42.37054624 73.99465847 46.48898411 C74.00161057 49.65543454 73.99383225 52.82171348 73.98140144 55.98814201 C73.97688402 57.5067981 73.97655269 59.02547257 73.98046684 60.54413033 C73.98337521 62.66530285 73.96689302 64.78545103 73.94506836 66.90649414 C73.93966537 68.11354507 73.93426239 69.32059601 73.92869568 70.56422424 C73.54101562 73.51757812 73.54101562 73.51757812 72.48731995 75.4065094 C69.45556038 77.13722191 66.39268609 76.93428245 62.99609375 76.90576172 C61.84686684 76.91364716 61.84686684 76.91364716 60.67442322 76.92169189 C58.14016372 76.93490313 55.60653159 76.92615011 53.07226562 76.91601562 C51.31253946 76.91803604 49.55281411 76.92094721 47.79309082 76.92471313 C44.10432975 76.929138 40.41578654 76.92270027 36.72705078 76.90869141 C31.99550281 76.89159935 27.26446533 76.90143968 22.5329361 76.9194088 C18.89898828 76.93024229 15.26516177 76.92680231 11.63121033 76.91902542 C9.88646891 76.91702221 8.14171653 76.91948694 6.39698792 76.92646408 C3.95967377 76.93407152 1.52318971 76.92248496 -0.9140625 76.90576172 C-1.63727188 76.91183441 -2.36048126 76.9179071 -3.10560608 76.92416382 C-5.86317041 76.88905877 -7.98240979 76.78963584 -10.4052887 75.4065094 C-11.99467197 72.55726569 -11.84849383 70.15552743 -11.86303711 66.90649414 C-11.87333199 65.90598022 -11.87333199 65.90598022 -11.88383484 64.88525391 C-11.90213553 62.68044748 -11.8982609 60.47635046 -11.89257812 58.27148438 C-11.8971386 56.73835518 -11.90244377 55.20522804 -11.90846252 53.67210388 C-11.91740016 50.45832009 -11.9149635 47.24478469 -11.9050293 44.03100586 C-11.89354213 39.91371891 -11.91374294 35.79728992 -11.94294643 31.6801157 C-11.9612992 28.51363178 -11.96101784 25.34735377 -11.95530891 22.18083 C-11.95515556 20.66298151 -11.96121122 19.14511918 -11.97360039 17.62732124 C-11.98849129 15.50368701 -11.97784999 13.38164139 -11.96069336 11.25805664 C-11.96052719 10.05021011 -11.96036102 8.84236359 -11.96018982 7.59791565 C-11.45898438 4.51757812 -11.45898438 4.51757812 -9.89381409 2.12864685 C-6.62583101 -0.03369958 -3.7914557 -0.04389719 0 0 Z M-10.45898438 5.51757812 C-10.45898438 27.62757812 -10.45898438 49.73757812 -10.45898438 72.51757812 C-9.13898438 72.51757812 -7.81898437 72.51757812 -6.45898438 72.51757812 C-6.45898438 73.50757813 -6.45898438 74.49757813 -6.45898438 75.51757812 C18.95101562 75.51757812 44.36101562 75.51757812 70.54101562 75.51757812 C72.06906522 70.16940453 72.78922767 67.19827074 72.76806641 61.93969727 C72.76791534 60.67891861 72.76776428 59.41813995 72.76760864 58.11915588 C72.75739861 56.7636804 72.74696667 55.40820657 72.73632812 54.05273438 C72.7325927 52.65026553 72.72974823 51.24779406 72.72775269 49.84532166 C72.72015783 46.17431286 72.70054561 42.50346517 72.67834473 38.83251953 C72.65779635 35.07847268 72.64873184 31.32439951 72.63867188 27.5703125 C72.61729528 20.21932801 72.5832102 12.86847574 72.54101562 5.51757812 C71.55101562 5.18757813 70.56101562 4.85757813 69.54101562 4.51757812 C69.54101562 3.85757813 69.54101562 3.19757813 69.54101562 2.51757812 C66.6530813 1.07361096 64.13441331 1.36628252 60.9074707 1.34057617 C60.22591919 1.33400497 59.54436768 1.32743378 58.84216309 1.32066345 C56.58162324 1.30091922 54.32114999 1.28926319 52.06054688 1.27929688 C51.28780615 1.27522135 50.51506542 1.27114582 49.71890831 1.26694679 C45.62600344 1.24607762 41.53313214 1.23178166 37.44018555 1.22241211 C33.2212387 1.21136775 29.00282221 1.17699368 24.78406239 1.13724041 C21.53343253 1.11103226 18.28292797 1.1027164 15.03220177 1.09913063 C13.47773357 1.09427261 11.92327067 1.08268097 10.36890602 1.06409264 C8.18602814 1.03961843 6.00450764 1.04068073 3.8215332 1.04760742 C2.58180252 1.04174118 1.34207184 1.03587494 0.06477356 1.02983093 C-4.27522916 1.40765657 -4.27522916 1.40765657 -10.45898438 5.51757812 Z " fill="#D6883F" transform="translate(91.458984375,62.482421875)"/>
<path d="M0 0 C1.16337891 0.00966797 2.32675781 0.01933594 3.52539062 0.02929688 C4.74033203 0.05443359 5.95527344 0.07957031 7.20703125 0.10546875 C8.43357422 0.11900391 9.66011719 0.13253906 10.92382812 0.14648438 C13.95616789 0.18188134 16.98763121 0.23126115 20.01953125 0.29296875 C20.01953125 0.95296875 20.01953125 1.61296875 20.01953125 2.29296875 C20.91671875 2.69515625 20.91671875 2.69515625 21.83203125 3.10546875 C24.01800979 4.29214281 25.43285719 5.38895988 27.01953125 7.29296875 C27.01953125 7.95296875 27.01953125 8.61296875 27.01953125 9.29296875 C27.61765625 9.56109375 28.21578125 9.82921875 28.83203125 10.10546875 C31.01800979 11.29214281 32.43285719 12.38895988 34.01953125 14.29296875 C34.01953125 14.95296875 34.01953125 15.61296875 34.01953125 16.29296875 C35.00953125 16.62296875 35.99953125 16.95296875 37.01953125 17.29296875 C39.43517171 20.91642944 39.31734794 23.60900857 39.26953125 27.79296875 C39.28113281 28.80810547 39.28113281 28.80810547 39.29296875 29.84375 C39.27837936 33.54216132 39.12217567 35.13900212 37.01953125 38.29296875 C35.10861206 38.6537323 35.10861206 38.6537323 32.75341797 38.63354492 C31.87265594 38.63331833 30.99189392 38.63309174 30.08444214 38.63285828 C29.13231842 38.61737442 28.1801947 38.60189056 27.19921875 38.5859375 C26.22542267 38.58169266 25.25162659 38.57744781 24.24832153 38.57307434 C21.1301132 38.55624661 18.01254508 38.51858686 14.89453125 38.48046875 C12.78386348 38.46542721 10.67318561 38.45173789 8.5625 38.43945312 C3.38129102 38.40632984 -1.79954314 38.35609026 -6.98046875 38.29296875 C-7.31046875 37.63296875 -7.64046875 36.97296875 -7.98046875 36.29296875 C6.53953125 36.29296875 21.05953125 36.29296875 36.01953125 36.29296875 C37.29912716 33.73377693 37.18769661 31.83812847 37.20703125 28.98046875 C37.22121094 28.03558594 37.23539063 27.09070313 37.25 26.1171875 C37.00289507 23.08910503 36.43685826 20.97694349 35.01953125 18.29296875 C32.25038818 17.08146866 30.04981384 16.29296875 27.01953125 16.29296875 C26.52453125 18.76796875 26.52453125 18.76796875 26.01953125 21.29296875 C27.66953125 21.62296875 29.31953125 21.95296875 31.01953125 22.29296875 C31.20703125 25.16796875 31.20703125 25.16796875 31.01953125 28.29296875 C30.02953125 28.95296875 29.03953125 29.61296875 28.01953125 30.29296875 C28.12265625 29.57109375 28.22578125 28.84921875 28.33203125 28.10546875 C27.88647086 24.0954252 26.01772596 22.89140417 23.01953125 20.29296875 C22.15328125 19.61234375 21.28703125 18.93171875 20.39453125 18.23046875 C18.01953125 16.29296875 18.01953125 16.29296875 16.7578125 14.21875 C15.10988736 12.01255854 15.10988736 12.01255854 12.1015625 11.68359375 C9.07421875 11.55338542 6.046875 11.42317708 3.01953125 11.29296875 C3.01953125 16.90296875 3.01953125 22.51296875 3.01953125 28.29296875 C2.68953125 28.29296875 2.35953125 28.29296875 2.01953125 28.29296875 C2.01953125 22.35296875 2.01953125 16.41296875 2.01953125 10.29296875 C16.21595982 10.02511161 16.21595982 10.02511161 22.01953125 12.29296875 C21.44241055 8.25312383 20.82108658 5.32045596 18.01953125 2.29296875 C14.16256954 1.5603726 10.36943984 1.68857458 6.45703125 1.79296875 C5.39033203 1.79039063 4.32363281 1.7878125 3.22460938 1.78515625 C-0.90025464 1.80400564 -0.90025464 1.80400564 -4.98046875 2.29296875 C-7.36995072 5.87719171 -7.28280043 7.66529471 -7.39453125 11.9296875 C-7.43320313 13.22841797 -7.471875 14.52714844 -7.51171875 15.86523438 C-7.54317392 17.23697448 -7.57442126 18.60871936 -7.60546875 19.98046875 C-7.64366072 21.3639566 -7.68271317 22.74742098 -7.72265625 24.13085938 C-7.81707392 27.51809325 -7.90264993 30.90531944 -7.98046875 34.29296875 C-8.31046875 34.29296875 -8.64046875 34.29296875 -8.98046875 34.29296875 C-9.05464921 29.93306002 -9.10908419 25.57348596 -9.14526367 21.21313477 C-9.16034643 19.72999676 -9.18081564 18.24690331 -9.20678711 16.76391602 C-9.24319491 14.6315613 -9.26019948 12.4997964 -9.2734375 10.3671875 C-9.28914795 9.08416748 -9.3048584 7.80114746 -9.32104492 6.47924805 C-8.98046875 3.29296875 -8.98046875 3.29296875 -7.8359375 1.36914062 C-5.16200918 -0.1817378 -3.07746115 -0.04503602 0 0 Z " fill="#EC8126" transform="translate(212.98046875,81.70703125)"/>
<path d="M0 0 C1.21991135 -0.00563965 2.43982269 -0.0112793 3.69670105 -0.01708984 C5.05581724 -0.0132009 6.41493285 -0.00910454 7.77404785 -0.00482178 C9.1996529 -0.00753063 10.62525656 -0.01109097 12.05085754 -0.01544189 C15.92888362 -0.02458079 19.80680362 -0.02101551 23.68483162 -0.01468372 C27.73715635 -0.00963147 31.7894718 -0.01431301 35.84179688 -0.01745605 C42.64784379 -0.02109797 49.45384735 -0.01629072 56.2598877 -0.0067749 C64.13632923 0.00411009 72.01266724 0.00058467 79.88910627 -0.01042771 C86.6432711 -0.0194942 93.39740471 -0.02078901 100.15157366 -0.01555037 C104.1892164 -0.01242714 108.22681043 -0.01203097 112.26445007 -0.01862335 C116.05979971 -0.02438693 119.85501545 -0.02041819 123.65035057 -0.00883484 C125.04598455 -0.00618293 126.44162973 -0.00696235 127.83725929 -0.01136017 C129.73696118 -0.01679594 131.63668759 -0.00878226 133.53637695 0 C135.13363491 0.00113108 135.13363491 0.00113108 136.76316071 0.002285 C139.26818848 0.25396729 139.26818848 0.25396729 141.26818848 2.25396729 C141.41316832 4.83460857 141.45496393 7.30340613 141.39318848 9.87896729 C141.38416504 10.58537354 141.3751416 11.29177979 141.36584473 12.01959229 C141.34226451 13.76452826 141.30639308 15.50929024 141.26818848 17.25396729 C140.93818848 17.25396729 140.60818848 17.25396729 140.26818848 17.25396729 C139.60818848 12.30396729 138.94818848 7.35396729 138.26818848 2.25396729 C119.6405769 2.23084941 101.01296936 2.21298863 82.38534641 2.20215511 C73.73683243 2.19699193 65.08832751 2.18994881 56.43981934 2.17852783 C48.90454269 2.16858167 41.36927259 2.16211402 33.83398956 2.15987879 C29.84162995 2.15857157 25.84928911 2.15548499 21.8569355 2.14823723 C18.1035175 2.14147808 14.35012609 2.13935011 10.59670258 2.1408596 C9.21515954 2.14058323 7.83361566 2.13857747 6.45207787 2.13476181 C4.57381703 2.12982629 2.6955421 2.13156933 0.817276 2.13371277 C-0.76313807 2.13233008 -0.76313807 2.13233008 -2.3754797 2.13091946 C-4.68911833 1.98818419 -4.68911833 1.98818419 -5.73181152 3.25396729 C-5.82987871 4.8137828 -5.85813023 6.3780381 -5.85879517 7.94093323 C-5.86161499 8.95463989 -5.86443481 9.96834656 -5.86734009 11.01277161 C-5.86531586 12.13433151 -5.86329163 13.25589142 -5.86120605 14.41143799 C-5.86295837 15.58534088 -5.86471069 16.75924377 -5.86651611 17.96871948 C-5.87017478 21.19817845 -5.86930048 24.42759674 -5.86613703 27.65705514 C-5.86361168 31.03312534 -5.86595162 34.40919276 -5.86752319 37.78526306 C-5.86934512 43.45899954 -5.86693875 49.13272302 -5.86218262 54.80645752 C-5.8567478 61.36553534 -5.85849687 67.92458204 -5.86400902 74.48365909 C-5.86854886 80.11087412 -5.86918619 85.73807979 -5.86657035 91.36529607 C-5.86501137 94.72783778 -5.86480331 98.09036488 -5.86810684 101.45290565 C-5.87064098 105.20472959 -5.86678154 108.95649353 -5.86120605 112.70831299 C-5.86323029 113.8238002 -5.86525452 114.93928741 -5.86734009 116.08857727 C-5.86452026 117.11074341 -5.86170044 118.13290955 -5.85879517 119.18605042 C-5.85841814 120.07336003 -5.85804111 120.96066965 -5.85765266 121.87486744 C-5.79181789 124.55497686 -5.79181789 124.55497686 -4.73181152 128.25396729 C5.16818848 128.74896729 5.16818848 128.74896729 15.26818848 129.25396729 C15.26818848 129.58396729 15.26818848 129.91396729 15.26818848 130.25396729 C11.99752282 130.3410362 8.72715483 130.3943797 5.45568848 130.44146729 C4.52691895 130.466604 3.59814941 130.49174072 2.64123535 130.51763916 C1.30222168 130.53214111 1.30222168 130.53214111 -0.06384277 130.54693604 C-1.29711304 130.57050171 -1.29711304 130.57050171 -2.55529785 130.59454346 C-5.32665225 130.16088789 -6.02986781 129.45845827 -7.73181152 127.25396729 C-8.10654163 124.9382391 -8.10654163 124.9382391 -8.10603333 122.16117859 C-8.11304764 121.10817566 -8.12006195 120.05517273 -8.12728882 118.97026062 C-8.11964508 117.81534622 -8.11200134 116.66043182 -8.10412598 115.47052002 C-8.10777664 114.25409821 -8.11142731 113.03767639 -8.1151886 111.78439331 C-8.12191219 108.44756266 -8.1151716 105.11128825 -8.10185647 101.77451205 C-8.09054847 98.28540926 -8.09464891 94.79632105 -8.09660339 91.3072052 C-8.09748646 85.44867149 -8.08640242 79.59025347 -8.06799316 73.73175049 C-8.04681542 66.95329173 -8.04331765 60.17500236 -8.04955512 53.39651722 C-8.05524429 46.88087436 -8.04960907 40.3652913 -8.03838158 33.84965706 C-8.03373064 31.07416748 -8.03286385 28.2987144 -8.03496742 25.52322197 C-8.03719601 21.6514235 -8.02276085 17.77978704 -8.00646973 13.90802002 C-8.00894714 12.75108139 -8.01142456 11.59414276 -8.01397705 10.40214539 C-8.00689224 9.35196228 -7.99980743 8.30177917 -7.99250793 7.21977234 C-7.99045506 6.3037194 -7.98840219 5.38766645 -7.98628712 4.44385433 C-7.41528149 -0.46992862 -4.120896 0.00291816 0 0 Z " fill="#E98830" transform="translate(55.7318115234375,45.74603271484375)"/>
<path d="M0 0 C1.32 0.66 2.64 1.32 4 2 C3.01 3.485 3.01 3.485 2 5 C1.30079115 9.79689791 1.28517915 13.77459282 3.75 18 C8.19230861 21.94871876 11.71402613 22.37319817 17.51953125 22.26171875 C20.8519067 21.91011378 23.22562348 20.84958435 26 19 C27.35091528 16.29816945 27.33858058 13.88191794 27.5625 10.875 C27.64628906 9.77929688 27.73007813 8.68359375 27.81640625 7.5546875 C27.90728516 6.29011719 27.90728516 6.29011719 28 5 C28.99 5 29.98 5 31 5 C31.28875 6.134375 31.5775 7.26875 31.875 8.4375 C32.24625 9.613125 32.6175 10.78875 33 12 C33.66 12.33 34.32 12.66 35 13 C34.67 15.64 34.34 18.28 34 21 C32.35 21 30.7 21 29 21 C29 23.64 29 26.28 29 29 C23.37932261 32.80731293 19.40841644 33.58314574 12.6875 33.375 C11.87732422 33.37371094 11.06714844 33.37242187 10.23242188 33.37109375 C4.2819104 33.2819104 4.2819104 33.2819104 2 31 C7.61 31 13.22 31 19 31 C19 30.01 19 29.02 19 28 C18.34 28 17.68 28 17 28 C17 27.34 17 26.68 17 26 C15.75283203 25.83564453 15.75283203 25.83564453 14.48046875 25.66796875 C12.85044922 25.43013672 12.85044922 25.43013672 11.1875 25.1875 C10.10855469 25.03667969 9.02960938 24.88585937 7.91796875 24.73046875 C4.91957109 23.97986586 3.73834418 23.5190742 2 21 C2 20.01 2 19.02 2 18 C1.34 18 0.68 18 0 18 C-1.17794853 14.46615441 -1.13264317 11.59722447 -1.125 7.875 C-1.12886719 5.98394531 -1.12886719 5.98394531 -1.1328125 4.0546875 C-1 1 -1 1 0 0 Z " fill="#EF7A16" transform="translate(215,160)"/>
<path d="M0 0 C30.69 0 61.38 0 93 0 C93 2.31 93 4.62 93 7 C92.34 7 91.68 7 91 7 C91 7.66 91 8.32 91 9 C75.16 9.495 75.16 9.495 59 10 C59.495 12.97 59.495 12.97 60 16 C61.34747314 16.03758423 61.34747314 16.03758423 62.72216797 16.07592773 C66.05074869 16.17098693 69.37914994 16.27022421 72.70751953 16.37231445 C74.1488762 16.41566231 75.59028418 16.45733752 77.03173828 16.49731445 C79.10204541 16.55502088 81.17209432 16.61871371 83.2421875 16.68359375 C84.4885498 16.72025146 85.73491211 16.75690918 87.01904297 16.79467773 C90 17 90 17 92 18 C92.625 20.5625 92.625 20.5625 93 23 C92.34 23 91.68 23 91 23 C90.505 21.02 90.505 21.02 90 19 C89.10692139 19.01571045 88.21384277 19.0314209 87.29370117 19.04760742 C83.97821244 19.09875439 80.66314325 19.13635812 77.34741211 19.16479492 C75.91277448 19.17987589 74.47818292 19.2003438 73.04370117 19.22631836 C70.98084141 19.26273437 68.91859142 19.27973243 66.85546875 19.29296875 C64.99378052 19.31653442 64.99378052 19.31653442 63.09448242 19.34057617 C60 19 60 19 58.09106445 17.6730957 C56.40912464 15.0939206 56.68158654 12.99308653 57 10 C59 8 59 8 62.07275391 7.77294922 C63.36101074 7.78342285 64.64926758 7.79389648 65.9765625 7.8046875 C66.66181 7.8075174 67.3470575 7.81034729 68.05307007 7.81326294 C70.24389027 7.82446719 72.43430316 7.84957141 74.625 7.875 C76.1093691 7.88502952 77.5937446 7.89415542 79.078125 7.90234375 C82.71888261 7.92440706 86.35940156 7.95893824 90 8 C90.144375 7.21625 90.28875 6.4325 90.4375 5.625 C91 3 91 3 92 1 C61.97 1 31.94 1 1 1 C0.67 1.66 0.34 2.32 0 3 C0 2.01 0 1.02 0 0 Z " fill="#F1B379" transform="translate(115,157)"/>
<path d="M0 0 C1.98 0.495 1.98 0.495 4 1 C4.33 0.67 4.66 0.34 5 0 C6.70772358 -0.08713831 8.41898649 -0.10700007 10.12890625 -0.09765625 C11.68061523 -0.09282227 11.68061523 -0.09282227 13.26367188 -0.08789062 C14.35228516 -0.07951172 15.44089844 -0.07113281 16.5625 -0.0625 C18.2012207 -0.05573242 18.2012207 -0.05573242 19.87304688 -0.04882812 C22.58208495 -0.03699826 25.29101599 -0.02051543 28 0 C28.33 1.65 28.66 3.3 29 5 C28.34 5 27.68 5 27 5 C27 5.99 27 6.98 27 8 C18.42 8 9.84 8 1 8 C1 8.66 1 9.32 1 10 C0.34 10 -0.32 10 -1 10 C-0.67 6.7 -0.34 3.4 0 0 Z " fill="#F37A12" transform="translate(116,166)"/>
<path d="M0 0 C2.3647662 1.9706385 4.69031655 3.96609965 7 6 C7.7528125 6.6496875 8.505625 7.299375 9.28125 7.96875 C11.38613392 9.8957564 13.29283792 11.71167636 15 14 C15 17.5 15 17.5 14 20 C9.91419541 21.36193486 7.66671159 19.75908339 4 18 C2.453125 17.3503125 2.453125 17.3503125 0.875 16.6875 C-2.71139953 14.58243941 -4.44610262 12.26331331 -7 9 C-7.66 8.67 -8.32 8.34 -9 8 C-8.67 7.34 -8.34 6.68 -8 6 C-5.69 6 -3.38 6 -1 6 C-1.33 7.32 -1.66 8.64 -2 10 C1.465 9.505 1.465 9.505 5 9 C4.67 8.34 4.34 7.68 4 7 C3.01 6.67 2.02 6.34 1 6 C0.67 4.02 0.34 2.04 0 0 Z " fill="#F27A12" transform="translate(247,71)"/>
<path d="M0 0 C9.97039028 -0.09265889 19.94067822 -0.16374407 29.91141129 -0.20724869 C34.54119316 -0.22812826 39.17068057 -0.25645249 43.80029297 -0.30175781 C48.26771694 -0.34520263 52.73485759 -0.36913432 57.2024765 -0.37950897 C58.90736095 -0.38690283 60.6122298 -0.40134132 62.31699371 -0.42292023 C64.70418364 -0.45193694 67.0902013 -0.45595686 69.47753906 -0.45410156 C70.53597771 -0.47567322 70.53597771 -0.47567322 71.61579895 -0.49768066 C74.81810138 -0.47073136 76.74430687 -0.16825404 79.44078064 1.60610962 C81.52768375 4.81015994 81.48844771 6.94247099 81.4699707 10.75634766 C81.4732563 11.76189949 81.4732563 11.76189949 81.47660828 12.7877655 C81.47891436 14.99703802 81.45269765 17.20496839 81.42578125 19.4140625 C81.42085661 20.95054705 81.41755821 22.4870376 81.41581726 24.02352905 C81.40818304 27.23983999 81.387638 30.45570498 81.35668945 33.671875 C81.31704834 37.79913609 81.29906943 41.92610758 81.28938007 46.05353737 C81.27941875 49.9862518 81.2595263 53.91889523 81.23828125 57.8515625 C81.23318763 58.98051878 81.23318763 58.98051878 81.2279911 60.13228226 C81.21644113 62.25575512 81.19792569 64.37904274 81.17700195 66.50244141 C81.16715775 67.71171295 81.15731354 68.9209845 81.14717102 70.16690063 C81 73 81 73 80 75 C79.34 74.67 78.68 74.34 78 74 C78.24398781 72.714991 78.24398781 72.714991 78.49290466 71.40402222 C78.99233425 68.05145853 79.1203264 64.92254836 79.11352539 61.53564453 C79.11344986 60.27479034 79.11337433 59.01393616 79.11329651 57.71487427 C79.10819109 56.3541866 79.10297511 54.99349935 79.09765625 53.6328125 C79.09578912 52.22891287 79.09436661 50.82501258 79.09336853 49.42111206 C79.08956658 45.74192478 79.07975633 42.06277752 79.06866455 38.38360596 C79.05840031 34.62293031 79.0538602 30.86224814 79.04882812 27.1015625 C79.03813179 19.73435683 79.02108352 12.36718404 79 5 C78.01 4.505 78.01 4.505 77 4 C77 3.34 77 2.68 77 2 C51.59 1.67 26.18 1.34 0 1 C0 0.67 0 0.34 0 0 Z " fill="#E8A369" transform="translate(84,63)"/>
<path d="M0 0 C0.33 0 0.66 0 1 0 C1.00423194 0.61991444 1.00846388 1.23982887 1.01282406 1.87852859 C1.11611155 16.95975412 1.22474648 32.04093082 1.33933926 47.12207413 C1.39462629 54.41518816 1.44810085 61.70830709 1.49731445 69.00146484 C1.54021168 75.35789273 1.58650361 81.71428526 1.63687855 88.07065845 C1.66343489 91.43655194 1.68828678 94.80243863 1.70907402 98.16837311 C1.73312789 101.92512403 1.76318143 105.68178172 1.79467773 109.43847656 C1.8004332 110.55553482 1.80618866 111.67259308 1.81211853 112.82350159 C1.82190735 113.84711288 1.83169617 114.87072418 1.84178162 115.925354 C1.84823417 116.81396244 1.85468672 117.70257088 1.8613348 118.61810684 C1.94349242 121.30024136 1.94349242 121.30024136 3 125 C9.6 125.33 16.2 125.66 23 126 C23 126.33 23 126.66 23 127 C19.72933434 127.08706892 16.45896635 127.14041241 13.1875 127.1875 C12.25873047 127.21263672 11.32996094 127.23777344 10.37304688 127.26367188 C9.48037109 127.27333984 8.58769531 127.28300781 7.66796875 127.29296875 C6.84578857 127.3086792 6.0236084 127.32438965 5.17651367 127.34057617 C2.4058952 126.90703576 1.70163055 126.20354278 0 124 C-0.36914349 121.69430256 -0.36914349 121.69430256 -0.36076355 118.93171692 C-0.36488754 117.88423782 -0.36901154 116.83675873 -0.3732605 115.75753784 C-0.36247467 114.60883209 -0.35168884 113.46012634 -0.34057617 112.27661133 C-0.34101425 111.0667305 -0.34145233 109.85684967 -0.34190369 108.61030579 C-0.34017047 105.29218834 -0.32511487 101.97462931 -0.30418181 98.65661073 C-0.28544094 95.18927798 -0.28366663 91.72193796 -0.28010559 88.25456238 C-0.27077748 81.68847008 -0.24615343 75.12252745 -0.21605712 68.55650109 C-0.18253687 61.08138327 -0.1660331 53.60625834 -0.15097082 46.13108408 C-0.11960446 30.75396935 -0.06682919 15.37700397 0 0 Z " fill="#D37E30" transform="translate(48,49)"/>
<path d="M0 0 C0.71671875 -0.04576172 1.4334375 -0.09152344 2.171875 -0.13867188 C5.26925743 -0.20414963 7.38985537 -0.21365873 9.91601562 1.69873047 C11.328125 3.27734375 11.328125 3.27734375 13.25 6.4375 C12.92 7.4275 12.59 8.4175 12.25 9.4375 C12.58 10.0975 12.91 10.7575 13.25 11.4375 C10.28 10.9425 10.28 10.9425 7.25 10.4375 C6.92 9.4475 6.59 8.4575 6.25 7.4375 C4.6 7.4375 2.95 7.4375 1.25 7.4375 C1.25 6.7775 1.25 6.1175 1.25 5.4375 C-2.05 5.7675 -5.35 6.0975 -8.75 6.4375 C-8.75 -1.13048474 -6.54069761 0.16697203 0 0 Z " fill="#F57911" transform="translate(222.75,83.5625)"/>
<path d="M0 0 C7.92 0 15.84 0 24 0 C24 0.33 24 0.66 24 1 C15.585 1.495 15.585 1.495 7 2 C6.67 3.65 6.34 5.3 6 7 C6.99 6.67 7.98 6.34 9 6 C11.33299825 5.96045766 13.66708189 5.95598268 16 6 C16 6.66 16 7.32 16 8 C17.65 8 19.3 8 21 8 C21 8.33 21 8.66 21 9 C16.38 9 11.76 9 7 9 C7 14.94 7 20.88 7 27 C15.58 27 24.16 27 33 27 C33 27.33 33 27.66 33 28 C28.70942047 28.25398309 24.41776866 28.47398533 20.125 28.6875 C18.90167969 28.76033203 17.67835938 28.83316406 16.41796875 28.90820312 C15.25136719 28.96298828 14.08476562 29.01777344 12.8828125 29.07421875 C11.80402832 29.13182373 10.72524414 29.18942871 9.61376953 29.2487793 C8.75122559 29.16668213 7.88868164 29.08458496 7 29 C4.77464206 25.66196309 4.71021596 24.37180289 4.5859375 20.45703125 C4.54726562 19.38388672 4.50859375 18.31074219 4.46875 17.20507812 C4.4378125 16.08552734 4.406875 14.96597656 4.375 13.8125 C4.33632812 12.68134766 4.29765625 11.55019531 4.2578125 10.38476562 C4.16347467 7.5900075 4.07788348 4.79525722 4 2 C2.68 1.34 1.36 0.68 0 0 Z " fill="#E87E22" transform="translate(208,83)"/>
<path d="M0 0 C0.99 0 1.98 0 3 0 C3.28875 1.134375 3.5775 2.26875 3.875 3.4375 C4.24625 4.613125 4.6175 5.78875 5 7 C5.66 7.33 6.32 7.66 7 8 C6.67 10.64 6.34 13.28 6 16 C4.35 16 2.7 16 1 16 C1 18.64 1 21.28 1 24 C-0.65 24 -2.3 24 -4 24 C-4.75 20.8125 -4.75 20.8125 -5 17 C-4.38125 16.278125 -3.7625 15.55625 -3.125 14.8125 C0.22177466 10.3829453 -0.17274355 5.41551038 0 0 Z " fill="#F57A12" transform="translate(243,165)"/>
<path d="M0 0 C20.46 0 40.92 0 62 0 C62 0.66 62 1.32 62 2 C31.31 2.495 31.31 2.495 0 3 C0 2.01 0 1.02 0 0 Z " fill="#DD7D2E" transform="translate(92,128)"/>
<path d="M0 0 C5.83480816 -0.17383694 11.66808988 -0.30043861 17.50488281 -0.38452148 C19.48757198 -0.41959187 21.47008182 -0.46726351 23.45214844 -0.52807617 C26.31229987 -0.61359326 29.1700476 -0.6528209 32.03125 -0.68359375 C32.90865845 -0.71972275 33.78606689 -0.75585175 34.69006348 -0.79307556 C41.05564205 -0.79708094 44.0882612 1.04300955 48.60046387 5.49278259 C49.06231079 5.99016434 49.52415771 6.48754608 50 7 C49.34 7.66 48.68 8.32 48 9 C48 8.34 48 7.68 48 7 C47.01 7.33 46.02 7.66 45 8 C45 6.68 45 5.36 45 4 C30.15 3.34 15.3 2.68 0 2 C0 1.34 0 0.68 0 0 Z " fill="#EE9953" transform="translate(197,63)"/>
<path d="M0 0 C0.99 0.66 1.98 1.32 3 2 C5.04705225 2.59739945 7.11233108 3.13409983 9.1875 3.625 C10.27417969 3.88539063 11.36085937 4.14578125 12.48046875 4.4140625 C13.31191406 4.60742188 14.14335937 4.80078125 15 5 C15 5.66 15 6.32 15 7 C15.66 7 16.32 7 17 7 C17 7.99 17 8.98 17 10 C14.44080818 11.27959591 12.54515972 11.16816536 9.6875 11.1875 C8.27017578 11.20876953 8.27017578 11.20876953 6.82421875 11.23046875 C3.82013949 10.98532259 1.68474994 10.3542544 -1 9 C-1.33 8.34 -1.66 7.68 -2 7 C-1.01 7 -0.02 7 1 7 C0.67 6.34 0.34 5.68 0 5 C-0.625 2.9375 -0.625 2.9375 -1 1 C-0.67 0.67 -0.34 0.34 0 0 Z " fill="#F47A13" transform="translate(217,181)"/>
<path d="M0 0 C1.7325 0.1546875 1.7325 0.1546875 3.5 0.3125 C5.5 3.3125 5.5 3.3125 5.25 6.375 C4.5 9.3125 4.5 9.3125 2.5 11.3125 C-1.125 10.9375 -1.125 10.9375 -4.5 10.3125 C-5.4765625 4.2578125 -5.4765625 4.2578125 -5.5 2.3125 C-3.5 0.3125 -3.5 0.3125 0 0 Z " fill="#E39851" transform="translate(159.5,164.6875)"/>
<path d="M0 0 C3 0.25 3 0.25 5 2.25 C5.25 5.75 5.25 5.75 5 9.25 C3 11.25 3 11.25 0.625 11.625 C-2 11.25 -2 11.25 -4.375 9.5625 C-6 7.25 -6 7.25 -5.875 4.625 C-4.57576411 1.09850259 -3.78743651 0.31561971 0 0 Z " fill="#E59141" transform="translate(95,164.75)"/>
<path d="M0 0 C3.4375 0.1875 3.4375 0.1875 4.4375 1.1875 C4.80836093 7.0285596 4.80836093 7.0285596 4.4375 9.1875 C1.22941085 11.3262261 0.16051503 11.66480962 -3.5625 11.1875 C-5.86413882 7.73504176 -5.90740322 6.24011287 -5.5625 2.1875 C-3.5625 0.1875 -3.5625 0.1875 0 0 Z " fill="#EA8B3A" transform="translate(228.5625,164.8125)"/>
<path d="M0 0 C1.16337891 0.00966797 2.32675781 0.01933594 3.52539062 0.02929688 C4.74033203 0.05443359 5.95527344 0.07957031 7.20703125 0.10546875 C8.43357422 0.11900391 9.66011719 0.13253906 10.92382812 0.14648438 C13.95616789 0.18188134 16.98763121 0.23126115 20.01953125 0.29296875 C20.01953125 0.95296875 20.01953125 1.61296875 20.01953125 2.29296875 C20.91671875 2.69515625 20.91671875 2.69515625 21.83203125 3.10546875 C24.01800979 4.29214281 25.43285719 5.38895988 27.01953125 7.29296875 C27.01953125 7.95296875 27.01953125 8.61296875 27.01953125 9.29296875 C23.38844672 8.99037837 22.23812744 8.52928895 19.70703125 5.79296875 C18.01953125 3.29296875 18.01953125 3.29296875 18.01953125 2.29296875 C14.22800791 2.20617055 10.43673829 2.15264668 6.64453125 2.10546875 C5.56429687 2.08033203 4.4840625 2.05519531 3.37109375 2.02929688 C2.33984375 2.01962891 1.30859375 2.00996094 0.24609375 2 C-0.70700684 1.98428955 -1.66010742 1.9685791 -2.64208984 1.95239258 C-3.7995874 2.12097778 -3.7995874 2.12097778 -4.98046875 2.29296875 C-7.36995072 5.87719171 -7.28280043 7.66529471 -7.39453125 11.9296875 C-7.43320313 13.22841797 -7.471875 14.52714844 -7.51171875 15.86523438 C-7.54317392 17.23697448 -7.57442126 18.60871936 -7.60546875 19.98046875 C-7.64366072 21.3639566 -7.68271317 22.74742098 -7.72265625 24.13085938 C-7.81707392 27.51809325 -7.90264993 30.90531944 -7.98046875 34.29296875 C-8.31046875 34.29296875 -8.64046875 34.29296875 -8.98046875 34.29296875 C-9.05464921 29.93306002 -9.10908419 25.57348596 -9.14526367 21.21313477 C-9.16034643 19.72999676 -9.18081564 18.24690331 -9.20678711 16.76391602 C-9.24319491 14.6315613 -9.26019948 12.4997964 -9.2734375 10.3671875 C-9.28914795 9.08416748 -9.3048584 7.80114746 -9.32104492 6.47924805 C-8.98046875 3.29296875 -8.98046875 3.29296875 -7.8359375 1.36914062 C-5.16200918 -0.1817378 -3.07746115 -0.04503602 0 0 Z " fill="#DC893D" transform="translate(212.98046875,81.70703125)"/>
<path d="M0 0 C3.62498334 -0.02893932 7.24993713 -0.04677792 10.875 -0.0625 C12.42380859 -0.07506836 12.42380859 -0.07506836 14.00390625 -0.08789062 C14.99003906 -0.09111328 15.97617187 -0.09433594 16.9921875 -0.09765625 C18.35899658 -0.10551147 18.35899658 -0.10551147 19.75341797 -0.11352539 C22 0 22 0 24 1 C24.09765625 7.15234375 24.09765625 7.15234375 24 9 C22.41596476 10.58403524 20.7228362 10.21974935 18.52734375 10.31640625 C17.62822266 10.35830078 16.72910156 10.40019531 15.80273438 10.44335938 C14.38444336 10.50233398 14.38444336 10.50233398 12.9375 10.5625 C11.98810547 10.60568359 11.03871094 10.64886719 10.06054688 10.69335938 C7.70718647 10.79979276 5.35371646 10.90181008 3 11 C2.67 8.69 2.34 6.38 2 4 C1.34 4 0.68 4 0 4 C0 2.68 0 1.36 0 0 Z M2 2 C2.66 4.31 3.32 6.62 4 9 C9.94 9 15.88 9 22 9 C22 6.69 22 4.38 22 2 C15.4 2 8.8 2 2 2 Z " fill="#E89449" transform="translate(247,156)"/>
<path d="M0 0 C0.66 0.33 1.32 0.66 2 1 C2.1875 4.375 2.1875 4.375 2 8 C-1.33803691 10.22535794 -2.62819711 10.28978404 -6.54296875 10.4140625 C-8.15268555 10.47207031 -8.15268555 10.47207031 -9.79492188 10.53125 C-10.91447266 10.5621875 -12.03402344 10.593125 -13.1875 10.625 C-14.88422852 10.68300781 -14.88422852 10.68300781 -16.61523438 10.7421875 C-19.4099925 10.83652533 -22.20474278 10.92211652 -25 11 C-26.32 13.64 -27.64 16.28 -29 19 C-29.33 19 -29.66 19 -30 19 C-30 16.69 -30 14.38 -30 12 C-29.34 12 -28.68 12 -28 12 C-27.67 10.68 -27.34 9.36 -27 8 C-18.42 8 -9.84 8 -1 8 C-1 7.01 -1 6.02 -1 5 C-0.34 5 0.32 5 1 5 C0.67 3.35 0.34 1.7 0 0 Z " fill="#EB9E5B" transform="translate(144,166)"/>
<path d="M0 0 C1.32 0.66 2.64 1.32 4 2 C3.01 3.485 3.01 3.485 2 5 C1.32447023 9.63444842 1.36718387 13.706854 3.4375 17.9375 C6.96389562 20.77581843 10.66295706 21.86013615 15 23 C15 23.33 15 23.66 15 24 C13.39667209 24.08121924 11.79215974 24.13929134 10.1875 24.1875 C8.84751953 24.23970703 8.84751953 24.23970703 7.48046875 24.29296875 C5 24 5 24 3.17578125 22.67578125 C2 21 2 21 2 18 C1.34 18 0.68 18 0 18 C-1.17794853 14.46615441 -1.13264317 11.59722447 -1.125 7.875 C-1.12886719 5.98394531 -1.12886719 5.98394531 -1.1328125 4.0546875 C-1 1 -1 1 0 0 Z " fill="#EC9C56" transform="translate(215,160)"/>
<path d="M0 0 C0.66 0 1.32 0 2 0 C2 0.99 2 1.98 2 3 C2.99 3.33 3.98 3.66 5 4 C5.33 4.99 5.66 5.98 6 7 C14.25 7.33 22.5 7.66 31 8 C31 8.33 31 8.66 31 9 C27.25006257 9.16809448 23.50004074 9.33422759 19.75 9.5 C18.15478516 9.57154297 18.15478516 9.57154297 16.52734375 9.64453125 C15.50253906 9.68964844 14.47773437 9.73476562 13.421875 9.78125 C12.00793457 9.8440918 12.00793457 9.8440918 10.56542969 9.90820312 C8.37813904 9.98646933 6.18869047 10 4 10 C3.34 11.98 2.68 13.96 2 16 C-0.47660152 12.50362139 0.13380004 9.89282768 0.7734375 5.90625 C1.03285574 3.72355856 0.77126284 2.0567009 0 0 Z " fill="#E9832C" transform="translate(113,157)"/>
<path d="M0 0 C1.41655793 -0.0272415 2.83327045 -0.04650467 4.25 -0.0625 C5.43335937 -0.07990234 5.43335937 -0.07990234 6.640625 -0.09765625 C8.90691002 -0.00385306 10.8288895 0.36758937 13 1 C13 1.66 13 2.32 13 3 C13.99 3.33 14.98 3.66 16 4 C18.33221489 8.66442978 17.5262127 14.93666443 17 20 C15.64227237 22.87838259 14.85007628 23.38063848 12 25 C9.6875 24.8125 9.6875 24.8125 8 24 C8.99 24 9.98 24 11 24 C11.33 23.01 11.66 22.02 12 21 C12.66 21 13.32 21 14 21 C14.82622671 15.39436958 15.06795656 10.57710648 14 5 C13.01 4.67 12.02 4.34 11 4 C11 3.34 11 2.68 11 2 C7.37 1.67 3.74 1.34 0 1 C0 0.67 0 0.34 0 0 Z " fill="#E79C57" transform="translate(92,157)"/>
<path d="M0 0 C6.27 0 12.54 0 19 0 C19 5 19 5 17.94140625 7.29296875 C15.03663766 9.84706105 12.73199199 9.42629552 8.9375 9.3125 C7.06384766 9.27576172 7.06384766 9.27576172 5.15234375 9.23828125 C2 9 2 9 0 8 C0 5.36 0 2.72 0 0 Z M3 1 C3 3.31 3 5.62 3 8 C6.96 8 10.92 8 15 8 C15.66 5.69 16.32 3.38 17 1 C12.38 1 7.76 1 3 1 Z " fill="#ECA058" transform="translate(57,157)"/>
<path d="M0 0 C5.29012124 4.40843437 10.18808428 9.07559794 15 14 C11.06329512 15.31223496 8.87511856 14.24296256 5 13 C5.33 12.01 5.66 11.02 6 10 C5.01 9.67 4.02 9.34 3 9 C3.66 9 4.32 9 5 9 C4.67 8.34 4.34 7.68 4 7 C3.01 6.67 2.02 6.34 1 6 C0.67 4.02 0.34 2.04 0 0 Z " fill="#EE9342" transform="translate(247,71)"/>
<path d="M0 0 C9.24 0 18.48 0 28 0 C28 0.33 28 0.66 28 1 C19.42 1 10.84 1 2 1 C1.34 3.31 0.68 5.62 0 8 C-2.0625 10.4375 -2.0625 10.4375 -4 12 C-4.33 12 -4.66 12 -5 12 C-5 10.02 -5 8.04 -5 6 C-3.35 6 -1.7 6 0 6 C0 4.02 0 2.04 0 0 Z " fill="#EEAA65" transform="translate(249,175)"/>
<path d="M0 0 C0.33 0 0.66 0 1 0 C1.02505615 0.67579102 1.0501123 1.35158203 1.07592773 2.04785156 C1.19210742 5.1154168 1.31473437 8.18269158 1.4375 11.25 C1.47681641 12.31347656 1.51613281 13.37695312 1.55664062 14.47265625 C1.59853516 15.49746094 1.64042969 16.52226562 1.68359375 17.578125 C1.72025146 18.52075195 1.75690918 19.46337891 1.79467773 20.43457031 C1.95079003 23.26886213 1.95079003 23.26886213 3 27 C9.6 27.33 16.2 27.66 23 28 C23 28.33 23 28.66 23 29 C19.72933434 29.08706892 16.45896635 29.14041241 13.1875 29.1875 C12.25873047 29.21263672 11.32996094 29.23777344 10.37304688 29.26367188 C9.0340332 29.27817383 9.0340332 29.27817383 7.66796875 29.29296875 C6.84578857 29.3086792 6.0236084 29.32438965 5.17651367 29.34057617 C3 29 3 29 1.2265625 27.85546875 C-0.53220537 25.19491226 -0.33934675 23.18869426 -0.29296875 20.01953125 C-0.28330078 18.85615234 -0.27363281 17.69277344 -0.26367188 16.49414062 C-0.2259668 14.67172852 -0.2259668 14.67172852 -0.1875 12.8125 C-0.17396484 11.58595703 -0.16042969 10.35941406 -0.14648438 9.09570312 C-0.11108741 6.06336336 -0.0617076 3.03190004 0 0 Z " fill="#E19B5A" transform="translate(48,147)"/>
<path d="M0 0 C1.32 0.66 2.64 1.32 4 2 C3.67 3.32 3.34 4.64 3 6 C3.66 6 4.32 6 5 6 C4.67 8.97 4.34 11.94 4 15 C3.34 14.67 2.68 14.34 2 14 C2 12.02 2 10.04 2 8 C0.68 8 -0.64 8 -2 8 C-2.33 5.69 -2.66 3.38 -3 1 C-2.01 1.495 -2.01 1.495 -1 2 C-0.67 1.34 -0.34 0.68 0 0 Z M1 3 C2 5 2 5 2 5 Z " fill="#F6790E" transform="translate(136,79)"/>
<path d="M0 0 C2.99324263 1.0975223 3.84610901 1.67682892 5.25 4.625 C5.4975 5.40875 5.745 6.1925 6 7 C3.45297384 8.27351308 2.5717055 7.80191925 -0.125 7.0625 C-0.84945312 6.86785156 -1.57390625 6.67320312 -2.3203125 6.47265625 C-2.87460938 6.31667969 -3.42890625 6.16070312 -4 6 C-4 5.34 -4 4.68 -4 4 C-4.99 3.67 -5.98 3.34 -7 3 C-6.67 2.34 -6.34 1.68 -6 1 C-5.38125 1.20625 -4.7625 1.4125 -4.125 1.625 C-3.073125 1.810625 -3.073125 1.810625 -2 2 C-1.34 1.34 -0.68 0.68 0 0 Z " fill="#F4790F" transform="translate(88,184)"/>
<path d="M0 0 C14.46428571 -0.26785714 14.46428571 -0.26785714 18 2 C18 2.99 18 3.98 18 5 C18.66 5 19.32 5 20 5 C20 5.99 20 6.98 20 8 C17.47043387 6.95328298 16.20911408 6.33981038 14.75 3.96875 C13.09967624 1.71841822 13.09967624 1.71841822 10.08203125 1.390625 C7.0546875 1.26041667 4.02734375 1.13020833 1 1 C1 6.61 1 12.22 1 18 C0.67 18 0.34 18 0 18 C0 12.06 0 6.12 0 0 Z " fill="#EDAB6C" transform="translate(215,92)"/>
<path d="M0 0 C0.33 0 0.66 0 1 0 C1.33 4.29 1.66 8.58 2 13 C-3.94 13 -9.88 13 -16 13 C-16 12.34 -16 11.68 -16 11 C-10.72 11 -5.44 11 0 11 C0 7.37 0 3.74 0 0 Z " fill="#E8AB76" transform="translate(131,75)"/>
<path d="M0 0 C0.66 0 1.32 0 2 0 C2.92867074 2.78601223 3.16342217 4.61066089 3.1875 7.5 C3.20167969 8.2734375 3.21585938 9.046875 3.23046875 9.84375 C3 12 3 12 1 15 C-4.11901082 18.11591963 -4.11901082 18.11591963 -7.375 17.6875 C-7.91125 17.460625 -8.4475 17.23375 -9 17 C-8.0925 16.67 -7.185 16.34 -6.25 16 C-2.06109844 13.42221442 -0.38485661 10.68381438 1 6 C0.88705328 2.62624825 0.88705328 2.62624825 0 0 Z " fill="#E5893C" transform="translate(240,165)"/>
<path d="M0 0 C0.66 0 1.32 0 2 0 C2 0.66 2 1.32 2 2 C3.32 2 4.64 2 6 2 C6 2.66 6 3.32 6 4 C12.6 4.66 19.2 5.32 26 6 C26 6.33 26 6.66 26 7 C23.14479219 7.10876982 20.29379439 7.18766466 17.4375 7.25 C16.23770508 7.30027344 16.23770508 7.30027344 15.01367188 7.3515625 C9.16094343 7.44711725 5.75755263 6.47595172 1 3 C0.67 2.01 0.34 1.02 0 0 Z " fill="#E89247" transform="translate(78,186)"/>
<path d="M0 0 C2.64 0 5.28 0 8 0 C8 1.32 8 2.64 8 4 C8.66 4.33 9.32 4.66 10 5 C10.625 8.0625 10.625 8.0625 11 11 C7.98385187 9.8829081 6.35491331 8.3874224 4.375 5.9375 C2.32880603 2.99175287 2.32880603 2.99175287 0 2 C0 1.34 0 0.68 0 0 Z " fill="#EE8F3E" transform="translate(238,77)"/>
<path d="M0 0 C2 1.375 2 1.375 4 3 C4 3.66 4 4.32 4 5 C4.99 5.33 5.98 5.66 7 6 C9.45391569 9.68087353 9.22802759 12.44355588 9.125 16.6875 C9.11597656 17.38939453 9.10695312 18.09128906 9.09765625 18.81445312 C9.07413704 20.54311525 9.03826713 22.27160145 9 24 C8.67 24 8.34 24 8 24 C7.95101562 23.19175781 7.90203125 22.38351563 7.8515625 21.55078125 C7.77679688 20.48214844 7.70203125 19.41351563 7.625 18.3125 C7.52058594 16.72888672 7.52058594 16.72888672 7.4140625 15.11328125 C7.00826687 12.06215753 6.38973841 9.73977001 5 7 C2.95894361 6.11306697 2.95894361 6.11306697 1 6 C0.67 4.02 0.34 2.04 0 0 Z " fill="#E9994F" transform="translate(243,93)"/>
<path d="M0 0 C1.59134766 -0.03867188 1.59134766 -0.03867188 3.21484375 -0.078125 C6.0625 0.25 6.0625 0.25 7.94140625 1.765625 C8.31136719 2.25546875 8.68132812 2.7453125 9.0625 3.25 C8.25425781 3.22679687 7.44601563 3.20359375 6.61328125 3.1796875 C5.54464844 3.16164062 4.47601563 3.14359375 3.375 3.125 C2.31925781 3.10179687 1.26351562 3.07859375 0.17578125 3.0546875 C-2.96001859 3.25141271 -5.11395373 3.91942346 -7.9375 5.25 C-7.9375 3.93 -7.9375 2.61 -7.9375 1.25 C-5.23187257 -0.10281371 -3.01856345 0.04390638 0 0 Z " fill="#E9994E" transform="translate(226.9375,155.75)"/>
<path d="M0 0 C-2.42733578 2.65851062 -4.25112871 3.87046204 -7.96118164 4.14526367 C-10.32843239 4.16970625 -12.69511358 4.18564903 -15.0625 4.1875 C-16.30483398 4.20586914 -16.30483398 4.20586914 -17.57226562 4.22460938 C-18.36439453 4.22654297 -19.15652344 4.22847656 -19.97265625 4.23046875 C-20.69718994 4.23457764 -21.42172363 4.23868652 -22.16821289 4.24291992 C-24 4 -24 4 -26 2 C-19.73 2.33 -13.46 2.66 -7 3 C-7 2.34 -7 1.68 -7 1 C-4.53721199 -0.231394 -2.7204945 -0.07159196 0 0 Z " fill="#EA9137" transform="translate(243,189)"/>
<path d="M0 0 C0.33 2.31 0.66 4.62 1 7 C0.01 7.495 0.01 7.495 -1 8 C-1.66 6.35 -2.32 4.7 -3 3 C-7.95 2.67 -12.9 2.34 -18 2 C-18 1.67 -18 1.34 -18 1 C-15.37504621 0.83257698 -12.75004205 0.6660283 -10.125 0.5 C-9.00544922 0.42845703 -9.00544922 0.42845703 -7.86328125 0.35546875 C-2.2265625 0 -2.2265625 0 0 0 Z " fill="#E7862A" transform="translate(74,173)"/>
<path d="M0 0 C0.66 0.66 1.32 1.32 2 2 C4.06874034 2.6425235 4.06874034 2.6425235 6 3 C6 4.32 6 5.64 6 7 C4.02 7 2.04 7 0 7 C-0.38133299 5.0085944 -0.71325582 3.00720923 -1 1 C-0.67 0.67 -0.34 0.34 0 0 Z " fill="#F07B15" transform="translate(157,167)"/>
<path d="M0 0 C0.33 1.32 0.66 2.64 1 4 C-1.70879335 5.35439668 -4.00933268 5.06501451 -7 5 C-7 3.68 -7 2.36 -7 1 C-4.53721199 -0.231394 -2.7204945 -0.07159196 0 0 Z " fill="#F37B12" transform="translate(98,168)"/>
<path d="M0 0 C6.75 1.75 6.75 1.75 9 4 C9.125 6.625 9.125 6.625 9 9 C4.77728219 6.46636932 2.21689838 4.43379675 0 0 Z " fill="#E8964D" transform="translate(249,88)"/>
<path d="M0 0 C2.97 0.495 2.97 0.495 6 1 C5.67 2.32 5.34 3.64 5 5 C5.99 5.33 6.98 5.66 8 6 C9.1875 8.0625 9.1875 8.0625 10 10 C4.98343041 8.5666944 2.98547118 6.09436048 0 2 C0 1.34 0 0.68 0 0 Z " fill="#EC9D55" transform="translate(207,181)"/>
<path d="M0 0 C2.31 0 4.62 0 7 0 C7.625 2.875 7.625 2.875 8 6 C7.34 6.66 6.68 7.32 6 8 C5.67 6.68 5.34 5.36 5 4 C3.68 4 2.36 4 1 4 C0.67 2.68 0.34 1.36 0 0 Z " fill="#EC903D" transform="translate(157,166)"/>
<path d="M0 0 C0.33 0 0.66 0 1 0 C1.02689216 1.47906892 1.04634621 2.95827483 1.0625 4.4375 C1.07410156 5.26121094 1.08570313 6.08492187 1.09765625 6.93359375 C1 9 1 9 0 10 C-2.67058851 10.14115161 -5.32432238 10.04247107 -8 10 C-6.68 9.67 -5.36 9.34 -4 9 C-3.67 7.68 -3.34 6.36 -3 5 C-2.34 5.33 -1.68 5.66 -1 6 C-1 5.01 -1 4.02 -1 3 C-0.67 2.01 -0.34 1.02 0 0 Z " fill="#ED7D1C" transform="translate(162,128)"/>
<path d="M0 0 C0.33 0 0.66 0 1 0 C1.125 3.375 1.125 3.375 1 7 C-1 9 -1 9 -3.5 9.3125 C-4.7375 9.1578125 -4.7375 9.1578125 -6 9 C-6.66 8.01 -7.32 7.02 -8 6 C-5.36 5.67 -2.72 5.34 0 5 C0 3.35 0 1.7 0 0 Z " fill="#E99C59" transform="translate(99,167)"/>
<path d="M0 0 C2.31 0.66 4.62 1.32 7 2 C7.1875 4.875 7.1875 4.875 7 8 C6.01 8.66 5.02 9.32 4 10 C4.0825 9.2575 4.165 8.515 4.25 7.75 C3.92818492 4.21003412 2.60945891 3.28327654 0 1 C0 0.67 0 0.34 0 0 Z " fill="#EB8E3B" transform="translate(237,102)"/>
<path d="M0 0 C4.95 0.33 9.9 0.66 15 1 C15 1.33 15 1.66 15 2 C14.09507813 2.09087891 14.09507813 2.09087891 13.171875 2.18359375 C11.97304687 2.30927734 11.97304687 2.30927734 10.75 2.4375 C9.96109375 2.51871094 9.1721875 2.59992188 8.359375 2.68359375 C6.0104271 2.94463662 6.0104271 2.94463662 3.828125 3.59765625 C2 4 2 4 0 3 C0 2.01 0 1.02 0 0 Z " fill="#E4862C" transform="translate(86,155)"/>
<path d="M0 0 C0.99 0.33 1.98 0.66 3 1 C2.505 1.845625 2.01 2.69125 1.5 3.5625 C-0.14747708 7.33796832 -0.24430947 9.92817548 0 14 C-0.66 14 -1.32 14 -2 14 C-2.05410687 12.22950311 -2.09284119 10.45853151 -2.125 8.6875 C-2.14820312 7.70136719 -2.17140625 6.71523437 -2.1953125 5.69921875 C-2 3 -2 3 0 0 Z " fill="#E99A55" transform="translate(83,161)"/>
<path d="M0 0 C1.15224028 0.92961422 2.29659176 1.8690125 3.4375 2.8125 C4.07558594 3.33457031 4.71367187 3.85664062 5.37109375 4.39453125 C7 6 7 6 8 9 C6.0625 8.1875 6.0625 8.1875 4 7 C3.67 6.01 3.34 5.02 3 4 C1.68 4 0.36 4 -1 4 C-0.67 2.68 -0.34 1.36 0 0 Z " fill="#EAA363" transform="translate(262,86)"/>
<path d="M0 0 C4.29 1.32 8.58 2.64 13 4 C13 4.33 13 4.66 13 5 C11.39667209 5.08121924 9.79215974 5.13929134 8.1875 5.1875 C7.29417969 5.22230469 6.40085938 5.25710937 5.48046875 5.29296875 C3 5 3 5 1.17578125 3.61328125 C0 2 0 2 0 0 Z " fill="#EA8B3C" transform="translate(217,179)"/>
<path d="M0 0 C1.32 0 2.64 0 4 0 C4 0.99 4 1.98 4 3 C4.66 3.33 5.32 3.66 6 4 C5.67 4.66 5.34 5.32 5 6 C4.34 6 3.68 6 3 6 C3 5.34 3 4.68 3 4 C2.01 3.67 1.02 3.34 0 3 C0 2.01 0 1.02 0 0 Z " fill="#EB7E22" transform="translate(82,155)"/>
<path d="M0 0 C0.33 1.32 0.66 2.64 1 4 C2.32 4 3.64 4 5 4 C5 4.99 5 5.98 5 7 C5.66 7.33 6.32 7.66 7 8 C2.25 7.25 2.25 7.25 0 5 C-0.125 2.375 -0.125 2.375 0 0 Z " fill="#E09B54" transform="translate(80,131)"/>
<path d="M0 0 C2.31 1.98 4.62 3.96 7 6 C4 7 4 7 1 6 C0.67 4.02 0.34 2.04 0 0 Z " fill="#EDA35F" transform="translate(247,71)"/>
<path d="M0 0 C1.98 0.495 1.98 0.495 4 1 C4.33 2.32 4.66 3.64 5 5 C3.02 5 1.04 5 -1 5 C-0.67 3.35 -0.34 1.7 0 0 Z " fill="#EE7C1D" transform="translate(243,70)"/>
<path d="M0 0 C-1.97420135 2.52259061 -2.96745642 2.9929808 -6.1875 3.6875 C-7.5796875 3.8421875 -7.5796875 3.8421875 -9 4 C-8.34 3.67 -7.68 3.34 -7 3 C-7 2.34 -7 1.68 -7 1 C-4.53721199 -0.231394 -2.7204945 -0.07159196 0 0 Z " fill="#EA9C51" transform="translate(243,189)"/>
<path d="M0 0 C0.99 0.33 1.98 0.66 3 1 C3 1.66 3 2.32 3 3 C4.65 3.33 6.3 3.66 8 4 C4.98968256 4.93423645 4.13349732 5.04449911 1 4 C0.3125 1.9375 0.3125 1.9375 0 0 Z " fill="#E79E5C" transform="translate(84,178)"/>
<path d="M0 0 C1.32 0.33 2.64 0.66 4 1 C4 2.98 4 4.96 4 7 C3.34 7 2.68 7 2 7 C1.34 4.69 0.68 2.38 0 0 Z " fill="#EB8518" transform="translate(223,167)"/>
<path d="M0 0 C1.32 0 2.64 0 4 0 C4.33 1.98 4.66 3.96 5 6 C3.0625 5.25 3.0625 5.25 1 4 C0.25 1.875 0.25 1.875 0 0 Z " fill="#EA9C47" transform="translate(244,82)"/>
<path d="" fill="#FFFFFF" transform="translate(0,0)"/>
<path d="" fill="#FFFFFF" transform="translate(0,0)"/>
<path d="" fill="#FFFFFF" transform="translate(0,0)"/>
<path d="" fill="#FFFFFF" transform="translate(0,0)"/>
<path d="" fill="#FFFFFF" transform="translate(0,0)"/>
<path d="" fill="#FFFFFF" transform="translate(0,0)"/>
<path d="" fill="#FFFFFF" transform="translate(0,0)"/>
<path d="" fill="#FFFFFF" transform="translate(0,0)"/>
<path d="" fill="#FFFFFF" transform="translate(0,0)"/>
<path d="" fill="#FFFFFF" transform="translate(0,0)"/>
<path d="" fill="#FFFFFF" transform="translate(0,0)"/>
<path d="" fill="#FFFFFF" transform="translate(0,0)"/>
<path d="" fill="#FFFFFF" transform="translate(0,0)"/>
<path d="" fill="#FFFFFF" transform="translate(0,0)"/>
<path d="" fill="#FFFFFF" transform="translate(0,0)"/>
<path d="" fill="#FFFFFF" transform="translate(0,0)"/>
<path d="" fill="#FFFFFF" transform="translate(0,0)"/>
<path d="" fill="#FFFFFF" transform="translate(0,0)"/>
<path d="" fill="#FFFFFF" transform="translate(0,0)"/>
</svg>
