<?xml version="1.0" encoding="UTF-8"?>
<svg version="1.1" xmlns="http://www.w3.org/2000/svg" width="1024" height="1024">
<path d="M0 0 C337.92 0 675.84 0 1024 0 C1024 337.92 1024 675.84 1024 1024 C686.08 1024 348.16 1024 0 1024 C0 686.08 0 348.16 0 0 Z " fill="#FEFEFE" transform="translate(0,0)"/>
<path d="M0 0 C3 0.25 3 0.25 5 2.25 C5.375 4.6875 5.375 4.6875 5 7.25 C3.3125 9.125 3.3125 9.125 1 10.25 C-1.75 9.9375 -1.75 9.9375 -4 9.25 C-4.625 5.875 -4.625 5.875 -5 2.25 C-3 0.25 -3 0.25 0 0 Z " fill="#F4F5F8" transform="translate(721,40.75)"/>
<path d="M0 0 C5.40540541 1.40540541 5.40540541 1.40540541 7 3 C7.1875 5.4375 7.1875 5.4375 7 8 C5 10 5 10 2 10.25 C-1 10 -1 10 -3 8 C-3.3125 5 -3.3125 5 -3 2 C-2.01 1.34 -1.02 0.68 0 0 Z " fill="#F4F5F8" transform="translate(740,19)"/>
<path d="M0 0 C1.875 0.8125 1.875 0.8125 3.875 2.8125 C4.125 5.3125 4.125 5.3125 3.875 7.8125 C1.875 9.8125 1.875 9.8125 -1.125 10.0625 C-4.125 9.8125 -4.125 9.8125 -6.125 7.8125 C-6.5 5.375 -6.5 5.375 -6.125 2.8125 C-4.06860027 0.60921457 -3.05069013 -0.26917854 0 0 Z " fill="#F4F6F9" transform="translate(722.125,19.1875)"/>
<path d="M0 0 C2.3125 1.25 2.3125 1.25 3.3125 2.25 C3.6875 4.625 3.6875 4.625 3.3125 7.25 C0.8125 9.0625 0.8125 9.0625 -1.6875 10.25 C-4.1875 9.0625 -4.1875 9.0625 -6.6875 7.25 C-7.25 4.75 -7.25 4.75 -6.6875 2.25 C-4.33222347 -0.45420638 -3.50969299 -0.97944921 0 0 Z " fill="#F4F6F9" transform="translate(743.6875,40.75)"/>
<path d="M0 0 C3.625 -0.1875 3.625 -0.1875 7 0 C7.33 2.31 7.66 4.62 8 7 C5.75 8.625 5.75 8.625 3 10 C0.75 9.5 0.75 9.5 -1 8 C-1.875 5.5625 -1.875 5.5625 -2 3 C-1.34 2.01 -0.68 1.02 0 0 Z " fill="#F4F5F9" transform="translate(781,41)"/>
<path d="M0 0 C3 0.25 3 0.25 5 2.25 C5.25 4.75 5.25 4.75 5 7.25 C3 9.25 3 9.25 0 9.5 C-3 9.25 -3 9.25 -5 7.25 C-5.25 4.75 -5.25 4.75 -5 2.25 C-3 0.25 -3 0.25 0 0 Z " fill="#F4F5F8" transform="translate(805,19.75)"/>
<path d="M0 0 C2.375 1.375 2.375 1.375 3.375 3.8125 C3.375 6.375 3.375 6.375 2.25 8.1875 C-0.21725382 9.75009409 -1.75487704 9.74296448 -4.625 9.375 C-5.285 8.715 -5.945 8.055 -6.625 7.375 C-6.25 3.75 -6.25 3.75 -5.625 0.375 C-2.625 -0.625 -2.625 -0.625 0 0 Z " fill="#F4F6F9" transform="translate(701.625,19.625)"/>
<path d="M0 0 C2.5 0.25 2.5 0.25 4.5 2.25 C4.9375 4.6875 4.9375 4.6875 4.5 7.25 C2 9.0625 2 9.0625 -0.5 10.25 C-2.15 9.26 -3.8 8.27 -5.5 7.25 C-4.42513369 0.44251337 -4.42513369 0.44251337 0 0 Z " fill="#F4F6F9" transform="translate(826.5,40.75)"/>
<path d="M0 0 C2.875 -0.125 2.875 -0.125 6 0 C8 2 8 2 8.25 4.5 C8 7 8 7 6 9 C3.5625 9.3125 3.5625 9.3125 1 9 C-0.8125 7.5 -0.8125 7.5 -2 6 C-1.34 4.02 -0.68 2.04 0 0 Z " fill="#F3F5F8" transform="translate(823,20)"/>
<path d="M0 0 C2.05078125 0.03255208 4.1015625 0.06510417 6.15234375 0.09765625 C6.77734375 2.41015625 6.77734375 2.41015625 7.15234375 5.09765625 C6.16234375 6.58265625 6.16234375 6.58265625 5.15234375 8.09765625 C2.15234375 8.41015625 2.15234375 8.41015625 -0.84765625 8.09765625 C-2.84765625 6.09765625 -2.84765625 6.09765625 -3.03515625 3.53515625 C-2.77450145 0.14664384 -2.77450145 0.14664384 0 0 Z " fill="#F4F6F9" transform="translate(802.84765625,-0.09765625)"/>
<path d="M0 0 C2.33944736 0.28730055 4.6739143 0.61936779 7 1 C7.6875 3.3125 7.6875 3.3125 8 6 C6.875 7.875 6.875 7.875 5 9 C1.65807308 8.75546876 0.39456443 8.39456443 -2 6 C-1.44444444 1.44444444 -1.44444444 1.44444444 0 0 Z " fill="#F3F5F8" transform="translate(865,20)"/>
<path d="M0 0 C2.64 0 5.28 0 8 0 C8.6875 2.3125 8.6875 2.3125 9 5 C7.875 6.8125 7.875 6.8125 6 8 C3.4375 8.375 3.4375 8.375 1 8 C-1 5 -1 5 -0.625 2.3125 C-0.41875 1.549375 -0.2125 0.78625 0 0 Z " fill="#F4F5F8" transform="translate(780,0)"/>
<path d="M0 0 C2.05078125 0.03255208 4.1015625 0.06510417 6.15234375 0.09765625 C6.83984375 2.41015625 6.83984375 2.41015625 7.15234375 5.09765625 C6.02734375 6.91015625 6.02734375 6.91015625 4.15234375 8.09765625 C1.58984375 8.41015625 1.58984375 8.41015625 -0.84765625 8.09765625 C-2.84765625 6.09765625 -2.84765625 6.09765625 -3.03515625 3.53515625 C-2.77450145 0.14664384 -2.77450145 0.14664384 0 0 Z " fill="#F4F6F9" transform="translate(676.84765625,-0.09765625)"/>
<path d="M0 0 C2.6875 0.875 2.6875 0.875 5 2 C5 3.98 5 5.96 5 8 C2.75 9.1875 2.75 9.1875 0 10 C-2.3125 8.625 -2.3125 8.625 -4 7 C-3.6875 4.625 -3.6875 4.625 -3 2 C-2.01 1.34 -1.02 0.68 0 0 Z " fill="#F4F6F8" transform="translate(720,83)"/>
<path d="M0 0 C4.875 0.875 4.875 0.875 6 2 C6.125 5 6.125 5 6 8 C5.67 8.33 5.34 8.66 5 9 C2.66055264 8.71269945 0.3260857 8.38063221 -2 8 C-2.6875 6.25 -2.6875 6.25 -3 4 C-1.5625 1.75 -1.5625 1.75 0 0 Z " fill="#F4F6F9" transform="translate(866,41)"/>
<path d="M0 0 C1.134375 0.020625 2.26875 0.04125 3.4375 0.0625 C4.0625 2.375 4.0625 2.375 4.4375 5.0625 C3.4475 6.5475 3.4475 6.5475 2.4375 8.0625 C-0.625 8.3125 -0.625 8.3125 -3.5625 8.0625 C-4.5625 7.0625 -4.5625 7.0625 -4.6875 4.0625 C-4.50687014 -0.27261656 -4.44520527 0.07798606 0 0 Z " fill="#F4F5F9" transform="translate(826.5625,-0.0625)"/>
<path d="M0 0 C2.875 -0.125 2.875 -0.125 6 0 C6.66 0.66 7.32 1.32 8 2 C7.44444444 6.55555556 7.44444444 6.55555556 6 8 C4.00041636 8.04080783 1.99954746 8.04254356 0 8 C-1.125 6.25 -1.125 6.25 -2 4 C-1.125 1.75 -1.125 1.75 0 0 Z " fill="#F4F6F9" transform="translate(676,63)"/>
<path d="M0 0 C4.70588235 0.70588235 4.70588235 0.70588235 6 2 C6.04080783 3.99958364 6.04254356 6.00045254 6 8 C3.1875 8.6875 3.1875 8.6875 0 9 C-1.875 7.5625 -1.875 7.5625 -3 6 C-1.125 1.125 -1.125 1.125 0 0 Z " fill="#F3F5F9" transform="translate(656,20)"/>
<path d="M0 0 C2.625 0.625 2.625 0.625 5 2 C6 3.9375 6 3.9375 6 6 C4.875 7.8125 4.875 7.8125 3 9 C-1.42105263 8.57894737 -1.42105263 8.57894737 -3 7 C-3.25 4.5625 -3.25 4.5625 -3 2 C-2.01 1.34 -1.02 0.68 0 0 Z " fill="#F3F5F8" transform="translate(1012,761)"/>
<path d="M0 0 C2.6875 0.875 2.6875 0.875 5 2 C5.04254356 3.99954746 5.04080783 6.00041636 5 8 C4 9 4 9 1 9.125 C-2 9 -2 9 -3 8 C-3.25 5.0625 -3.25 5.0625 -3 2 C-2.01 1.34 -1.02 0.68 0 0 Z " fill="#F4F6F9" transform="translate(657,62)"/>
<path d="M0 0 C2.6875 0.875 2.6875 0.875 5 2 C5.04254356 3.99954746 5.04080783 6.00041636 5 8 C4 9 4 9 0.9375 9.0625 C-0.031875 9.041875 -1.00125 9.02125 -2 9 C-2.33 6.69 -2.66 4.38 -3 2 C-2.01 1.34 -1.02 0.68 0 0 Z " fill="#F4F6F9" transform="translate(804,62)"/>
<path d="M0 0 C1.2375 0.1546875 1.2375 0.1546875 2.5 0.3125 C4.5 3.3125 4.5 3.3125 4.1875 5.4375 C3.5 7.3125 3.5 7.3125 2.5 8.3125 C0.50041636 8.35330783 -1.50045254 8.35504356 -3.5 8.3125 C-4.125 5.4375 -4.125 5.4375 -4.5 2.3125 C-2.5 0.3125 -2.5 0.3125 0 0 Z " fill="#F3F5F8" transform="translate(1013.5,802.6875)"/>
<path d="M0 0 C2.6875 0.875 2.6875 0.875 5 2 C5 3.98 5 5.96 5 8 C-0.75 9.125 -0.75 9.125 -3 8 C-3.1875 5.125 -3.1875 5.125 -3 2 C-2.01 1.34 -1.02 0.68 0 0 Z " fill="#F4F6F9" transform="translate(720,104)"/>
<path d="M0 0 C3.0625 -0.25 3.0625 -0.25 6 0 C7 1 7 1 7.125 4 C7 7 7 7 6 8 C4.00041636 8.04080783 1.99954746 8.04254356 0 8 C-1.125 5.6875 -1.125 5.6875 -2 3 C-1.34 2.01 -0.68 1.02 0 0 Z " fill="#F4F6F9" transform="translate(781,84)"/>
<path d="M0 0 C2.33944736 0.28730055 4.6739143 0.61936779 7 1 C7 2.98 7 4.96 7 7 C4.6875 8.125 4.6875 8.125 2 9 C1.01 8.34 0.02 7.68 -1 7 C-1.25 3.9375 -1.25 3.9375 -1 1 C-0.67 0.67 -0.34 0.34 0 0 Z " fill="#F4F6F9" transform="translate(697,84)"/>
<path d="M0 0 C2.75 1.375 2.75 1.375 5 3 C4.67 4.65 4.34 6.3 4 8 C1.6875 8.625 1.6875 8.625 -1 9 C-1.99 8.34 -2.98 7.68 -4 7 C-4.1875 4.375 -4.1875 4.375 -4 2 C-2.3125 0.8125 -2.3125 0.8125 0 0 Z " fill="#F3F5F8" transform="translate(1013,823)"/>
<path d="M0 0 C3.0625 -0.25 3.0625 -0.25 6 0 C7 1 7 1 7.1875 3.4375 C7 6 7 6 5 8 C2.375 8.125 2.375 8.125 0 8 C-1.125 5.6875 -1.125 5.6875 -2 3 C-1.34 2.01 -0.68 1.02 0 0 Z " fill="#F4F5F8" transform="translate(865,0)"/>
<path d="M0 0 C4.55555556 0.55555556 4.55555556 0.55555556 6 2 C6.04063832 3.66617115 6.042721 5.33388095 6 7 C3.6875 8.125 3.6875 8.125 1 9 C0.01 8.34 -0.98 7.68 -2 7 C-2.3125 4.5 -2.3125 4.5 -2 2 C-1.34 1.34 -0.68 0.68 0 0 Z " fill="#F4F6F8" transform="translate(908,20)"/>
<path d="M0 0 C2.00720923 0.28674418 4.0085944 0.61866701 6 1 C6.625 2.8125 6.625 2.8125 7 5 C6.01 6.485 6.01 6.485 5 8 C2.5 8.375 2.5 8.375 0 8 C-2 5 -2 5 -1.6875 2.875 C-1 1 -1 1 0 0 Z " fill="#F3F5F8" transform="translate(1011,741)"/>
<path d="M0 0 C0.598125 0.350625 1.19625 0.70125 1.8125 1.0625 C1.9375 3.4375 1.9375 3.4375 1.8125 6.0625 C1.1525 6.7225 0.4925 7.3825 -0.1875 8.0625 C-2.8125 7.6875 -2.8125 7.6875 -5.1875 7.0625 C-6.3125 2.3125 -6.3125 2.3125 -5.1875 0.0625 C-2.1875 -0.9375 -2.1875 -0.9375 0 0 Z " fill="#F3F5F9" transform="translate(639.1875,20.9375)"/>
<path d="M0 0 C3 0.125 3 0.125 4 1.125 C4.25 3.5625 4.25 3.5625 4 6.125 C1 8.125 1 8.125 -1.6875 7.75 C-2.450625 7.54375 -3.21375 7.3375 -4 7.125 C-4.04254356 5.12545254 -4.04080783 3.12458364 -4 1.125 C-3 0.125 -3 0.125 0 0 Z " fill="#F4F6F8" transform="translate(889,-0.125)"/>
<path d="M0 0 C3 0.125 3 0.125 4 1.125 C4.1875 3.5625 4.1875 3.5625 4 6.125 C3.34 6.785 2.68 7.445 2 8.125 C-2.55555556 7.56944444 -2.55555556 7.56944444 -4 6.125 C-4.125 3.625 -4.125 3.625 -4 1.125 C-3 0.125 -3 0.125 0 0 Z " fill="#F3F5F8" transform="translate(658,-0.125)"/>
<path d="M0 0 C1.2065625 0.0309375 1.2065625 0.0309375 2.4375 0.0625 C2.81813221 2.3885857 3.15019945 4.72305264 3.4375 7.0625 C2.4375 8.0625 2.4375 8.0625 0 8.25 C-2.5625 8.0625 -2.5625 8.0625 -4.5625 6.0625 C-3.83457637 0.09352625 -3.83457637 0.09352625 0 0 Z " fill="#F4F6F9" transform="translate(805.5625,83.9375)"/>
<path d="M0 0 C3 0.125 3 0.125 4 1.125 C4.25 3.5625 4.25 3.5625 4 6.125 C1 8.125 1 8.125 -1.125 7.8125 C-3 7.125 -3 7.125 -4 6.125 C-4.125 3.625 -4.125 3.625 -4 1.125 C-3 0.125 -3 0.125 0 0 Z " fill="#F4F6F9" transform="translate(910,-0.125)"/>
<path d="M0 0 C1.98 0 3.96 0 6 0 C6.625 2.875 6.625 2.875 7 6 C6.34 6.66 5.68 7.32 5 8 C2.375 7.625 2.375 7.625 0 7 C-1.125 2.25 -1.125 2.25 0 0 Z " fill="#F4F6F9" transform="translate(865,63)"/>
<path d="M0 0 C1.2065625 0.0309375 1.2065625 0.0309375 2.4375 0.0625 C3.5625 2.375 3.5625 2.375 4.4375 5.0625 C3.4475 6.5475 3.4475 6.5475 2.4375 8.0625 C-0.125 8.3125 -0.125 8.3125 -2.5625 8.0625 C-3.5625 7.0625 -3.5625 7.0625 -3.6875 4.0625 C-3.52180824 0.08589776 -3.52180824 0.08589776 0 0 Z " fill="#F4F6F9" transform="translate(888.5625,62.9375)"/>
<path d="M0 0 C3.125 0.375 3.125 0.375 6 1 C6.125 3.375 6.125 3.375 6 6 C5.34 6.66 4.68 7.32 4 8 C1.375 7.625 1.375 7.625 -1 7 C-1.625 4.625 -1.625 4.625 -2 2 C-1.34 1.34 -0.68 0.68 0 0 Z " fill="#F4F6F9" transform="translate(782,105)"/>
<path d="M0 0 C3 0.125 3 0.125 4 1.125 C4.04063832 2.79117115 4.042721 4.45888095 4 6.125 C1.6875 7.25 1.6875 7.25 -1 8.125 C-1.99 7.465 -2.98 6.805 -4 6.125 C-4.25 3.5625 -4.25 3.5625 -4 1.125 C-3 0.125 -3 0.125 0 0 Z " fill="#F4F6F9" transform="translate(637,-0.125)"/>
<path d="M0 0 C2.625 0.375 2.625 0.375 5 1 C5.625 3.375 5.625 3.375 6 6 C5.34 6.66 4.68 7.32 4 8 C1.375 7.625 1.375 7.625 -1 7 C-1.625 4.625 -1.625 4.625 -2 2 C-1.34 1.34 -0.68 0.68 0 0 Z " fill="#F4F6F9" transform="translate(845,84)"/>
<path d="M0 0 C2.625 0.375 2.625 0.375 5 1 C5.625 3.375 5.625 3.375 6 6 C5.34 6.66 4.68 7.32 4 8 C1.375 7.625 1.375 7.625 -1 7 C-1.625 4.625 -1.625 4.625 -2 2 C-1.34 1.34 -0.68 0.68 0 0 Z " fill="#F3F6F8" transform="translate(677,84)"/>
<path d="M0 0 C2.625 0.375 2.625 0.375 5 1 C5.625 3.375 5.625 3.375 6 6 C5.34 6.66 4.68 7.32 4 8 C1.375 7.625 1.375 7.625 -1 7 C-1.625 4.625 -1.625 4.625 -2 2 C-1.34 1.34 -0.68 0.68 0 0 Z " fill="#F4F6F9" transform="translate(656,84)"/>
<path d="M0 0 C2.625 0.375 2.625 0.375 5 1 C5.6875 2.8125 5.6875 2.8125 6 5 C4.8125 6.8125 4.8125 6.8125 3 8 C0.8125 7.6875 0.8125 7.6875 -1 7 C-1.625 4.625 -1.625 4.625 -2 2 C-1.34 1.34 -0.68 0.68 0 0 Z " fill="#F4F6F9" transform="translate(677,105)"/>
<path d="M0 0 C2.625 0.375 2.625 0.375 5 1 C5.04254356 2.99954746 5.04080783 5.00041636 5 7 C4 8 4 8 1.5 8.125 C-1 8 -1 8 -2 7 C-2.1875 4.5625 -2.1875 4.5625 -2 2 C-1.34 1.34 -0.68 0.68 0 0 Z " fill="#F3F6F9" transform="translate(929,20)"/>
<path d="M0 0 C1.66611905 -0.042721 3.33382885 -0.04063832 5 0 C6 1 6 1 6.0625 4.0625 C6.041875 5.031875 6.02125 6.00125 6 7 C3.625 7.625 3.625 7.625 1 8 C0.34 7.34 -0.32 6.68 -1 6 C-0.625 2.875 -0.625 2.875 0 0 Z " fill="#F4F6F9" transform="translate(928,0)"/>
<path d="M0 0 C1.65 0.33 3.3 0.66 5 1 C5.6875 2.8125 5.6875 2.8125 6 5 C4.8125 6.8125 4.8125 6.8125 3 8 C0.8125 7.6875 0.8125 7.6875 -1 7 C-1.625 5.1875 -1.625 5.1875 -2 3 C-1.34 2.01 -0.68 1.02 0 0 Z " fill="#F4F5F9" transform="translate(719,126)"/>
<path d="M0 0 C0.598125 0.226875 1.19625 0.45375 1.8125 0.6875 C2.4375 3.0625 2.4375 3.0625 2.8125 5.6875 C2.1525 6.3475 1.4925 7.0075 0.8125 7.6875 C-1.8125 7.3125 -1.8125 7.3125 -4.1875 6.6875 C-4.875 4.875 -4.875 4.875 -5.1875 2.6875 C-3.58493056 0.24147296 -2.95482043 -0.4221172 0 0 Z " fill="#F4F6F9" transform="translate(869.1875,84.3125)"/>
<path d="M0 0 C2.625 0.375 2.625 0.375 5 1 C5.125 3.375 5.125 3.375 5 6 C4.34 6.66 3.68 7.32 3 8 C0.875 7.625 0.875 7.625 -1 7 C-1.625 4.625 -1.625 4.625 -2 2 C-1.34 1.34 -0.68 0.68 0 0 Z " fill="#F4F6F9" transform="translate(908,63)"/>
<path d="M0 0 C2.00720923 0.28674418 4.0085944 0.61866701 6 1 C6 2.65 6 4.3 6 6 C4.35 6.66 2.7 7.32 1 8 C-1 6 -1 6 -1.1875 3.4375 C-1 1 -1 1 0 0 Z " fill="#F4F6F9" transform="translate(990,824)"/>
<path d="M0 0 C2.625 0.9375 2.625 0.9375 5 2 C4.67 3.65 4.34 5.3 4 7 C0.25 8.125 0.25 8.125 -2 7 C-2 5.02 -2 3.04 -2 1 C-1.34 0.67 -0.68 0.34 0 0 Z " fill="#F4F6F9" transform="translate(636,84)"/>
<path d="M0 0 C0.99 0.33 1.98 0.66 3 1 C3.38133299 2.9914056 3.71325582 4.99279077 4 7 C3 8 3 8 0.5 8.125 C-2 8 -2 8 -3 7 C-3.25 4.5625 -3.25 4.5625 -3 2 C-2.01 1.34 -1.02 0.68 0 0 Z " fill="#F4F6F9" transform="translate(951,41)"/>
<path d="M0 0 C2.625 -0.1875 2.625 -0.1875 5 0 C5.625 2.375 5.625 2.375 6 5 C5.34 5.66 4.68 6.32 4 7 C1.375 6.625 1.375 6.625 -1 6 C-1.33 5.01 -1.66 4.02 -2 3 C-1.34 2.01 -0.68 1.02 0 0 Z " fill="#F4F6F9" transform="translate(969,804)"/>
<path d="M0 0 C1.2065625 0.0309375 1.2065625 0.0309375 2.4375 0.0625 C2.81883299 2.0539056 3.15075582 4.05529077 3.4375 6.0625 C2.4375 7.0625 2.4375 7.0625 -0.0625 7.1875 C-2.5625 7.0625 -2.5625 7.0625 -3.5625 6.0625 C-3.6875 3.5625 -3.6875 3.5625 -3.5625 1.0625 C-2.5625 0.0625 -2.5625 0.0625 0 0 Z " fill="#F4F5F9" transform="translate(951.5625,20.9375)"/>
<path d="M0 0 C1.67542976 0.28604898 3.34385343 0.61781233 5 1 C5 2.65 5 4.3 5 6 C3.02 6.99 3.02 6.99 1 8 C-0.5625 6.75 -0.5625 6.75 -2 5 C-1.74853421 2.86254078 -1.54074221 1.54074221 0 0 Z " fill="#F4F6F9" transform="translate(656,105)"/>
<path d="M0 0 C2.1875 0.3125 2.1875 0.3125 4 1 C5.125 4.75 5.125 4.75 4 7 C2.35 7 0.7 7 -1 7 C-1.66 5.68 -2.32 4.36 -3 3 C-1.75 1.4375 -1.75 1.4375 0 0 Z " fill="#F4F6F9" transform="translate(991,741)"/>
<path d="M0 0 C2.125 0.375 2.125 0.375 4 1 C5.125 4.75 5.125 4.75 4 7 C2.35 7 0.7 7 -1 7 C-1.625 4.625 -1.625 4.625 -2 2 C-1.34 1.34 -0.68 0.68 0 0 Z " fill="#F4F6F9" transform="translate(594,21)"/>
<path d="M0 0 C2.125 0.375 2.125 0.375 4 1 C5.125 4.75 5.125 4.75 4 7 C2.35 7 0.7 7 -1 7 C-1.625 4.625 -1.625 4.625 -2 2 C-1.34 1.34 -0.68 0.68 0 0 Z " fill="#F4F6F9" transform="translate(594,0)"/>
<path d="M0 0 C1.2065625 0.0309375 1.2065625 0.0309375 2.4375 0.0625 C2.81968767 1.71864657 3.15145102 3.38707024 3.4375 5.0625 C2.4375 6.0625 2.4375 6.0625 -0.125 6.125 C-1.3315625 6.0940625 -1.3315625 6.0940625 -2.5625 6.0625 C-2.94468767 4.40635343 -3.27645102 2.73792976 -3.5625 1.0625 C-2.5625 0.0625 -2.5625 0.0625 0 0 Z " fill="#F4F6F9" transform="translate(595.5625,42.9375)"/>
<path d="M0 0 C2.0625 0.4375 2.0625 0.4375 4 1 C4.625 2.875 4.625 2.875 5 5 C4.34 5.66 3.68 6.32 3 7 C0.375 6.625 0.375 6.625 -2 6 C-1.125 1.125 -1.125 1.125 0 0 Z " fill="#F4F6F9" transform="translate(971,21)"/>
<path d="M0 0 C1.32 0.66 2.64 1.32 4 2 C3.67 3.32 3.34 4.64 3 6 C1.35 6.33 -0.3 6.66 -2 7 C-2.33 5.35 -2.66 3.7 -3 2 C-2.01 1.34 -1.02 0.68 0 0 Z " fill="#F4F6F9" transform="translate(1013,679)"/>
<path d="M0 0 C1.65 0 3.3 0 5 0 C5.33 1.65 5.66 3.3 6 5 C4.02 5.99 4.02 5.99 2 7 C0.4375 5.75 0.4375 5.75 -1 4 C-0.6875 1.8125 -0.6875 1.8125 0 0 Z " fill="#F4F6F9" transform="translate(928,85)"/>
<path d="M0 0 C1.65 0.33 3.3 0.66 5 1 C5 2.65 5 4.3 5 6 C1.25 7.125 1.25 7.125 -1 6 C-0.67 4.02 -0.34 2.04 0 0 Z " fill="#F4F6F9" transform="translate(990,886)"/>
<path d="M0 0 C2.125 0.375 2.125 0.375 4 1 C4 2.65 4 4.3 4 6 C2.35 6.33 0.7 6.66 -1 7 C-1.625 4.625 -1.625 4.625 -2 2 C-1.34 1.34 -0.68 0.68 0 0 Z " fill="#F4F7F9" transform="translate(949,824)"/>
<path d="M0 0 C1.65 0 3.3 0 5 0 C5.33 1.65 5.66 3.3 6 5 C4.02 5.33 2.04 5.66 0 6 C-1.125 2.25 -1.125 2.25 0 0 Z " fill="#F4F6FA" transform="translate(949,64)"/>
<path d="M0 0 C2.0625 0.1875 2.0625 0.1875 4 1 C4.33 1.99 4.66 2.98 5 4 C4.01 5.485 4.01 5.485 3 7 C1.68 6.67 0.36 6.34 -1 6 C-1.625 4.125 -1.625 4.125 -2 2 C-1.34 1.34 -0.68 0.68 0 0 Z " fill="#F4F6F9" transform="translate(971,42)"/>
<path d="M0 0 C1.65 0 3.3 0 5 0 C5.33 1.65 5.66 3.3 6 5 C4.35 5.33 2.7 5.66 1 6 C-0.0625 4.125 -0.0625 4.125 -1 2 C-0.67 1.34 -0.34 0.68 0 0 Z " fill="#F4F6F9" transform="translate(907,106)"/>
<path d="M0 0 C1.67542976 0.28604898 3.34385343 0.61781233 5 1 C5 2.32 5 3.64 5 5 C3.35 5.33 1.7 5.66 0 6 C-0.38218767 4.34385343 -0.71395102 2.67542976 -1 1 C-0.67 0.67 -0.34 0.34 0 0 Z " fill="#F4F6F9" transform="translate(1011,949)"/>
<path d="M0 0 C0.99 0.66 1.98 1.32 3 2 C2.67 3.65 2.34 5.3 2 7 C-0.4375 6.625 -0.4375 6.625 -3 6 C-3.33 5.34 -3.66 4.68 -4 4 C-2.68 2.68 -1.36 1.36 0 0 Z " fill="#F4F5F8" transform="translate(721,147)"/>
<path d="M0 0 C1.65 0.33 3.3 0.66 5 1 C5.33 1.99 5.66 2.98 6 4 C5.34 4.66 4.68 5.32 4 6 C1.375 5.625 1.375 5.625 -1 5 C-0.67 3.35 -0.34 1.7 0 0 Z " fill="#F4F5F9" transform="translate(1011,928)"/>
<path d="M0 0 C1.67542976 0.28604898 3.34385343 0.61781233 5 1 C5 2.65 5 4.3 5 6 C3.35 6 1.7 6 0 6 C-0.38218767 4.34385343 -0.71395102 2.67542976 -1 1 C-0.67 0.67 -0.34 0.34 0 0 Z " fill="#F4F6F9" transform="translate(990,907)"/>
<path d="M0 0 C1.65 0 3.3 0 5 0 C5.33 1.65 5.66 3.3 6 5 C4.34385343 5.38218767 2.67542976 5.71395102 1 6 C0 5 0 5 -0.0625 2.4375 C-0.041875 1.633125 -0.02125 0.82875 0 0 Z " fill="#F3F6F9" transform="translate(781,148)"/>
<path d="M0 0 C1.65 0.33 3.3 0.66 5 1 C4.67 2.65 4.34 4.3 4 6 C2.35 5.67 0.7 5.34 -1 5 C-0.67 3.35 -0.34 1.7 0 0 Z " fill="#F4F6F9" transform="translate(740,169)"/>
<path d="M0 0 C1.65 0.33 3.3 0.66 5 1 C4.67 2.65 4.34 4.3 4 6 C2.35 5.67 0.7 5.34 -1 5 C-0.67 3.35 -0.34 1.7 0 0 Z " fill="#F4F6F8" transform="translate(740,148)"/>
<path d="M0 0 C1.65 0.33 3.3 0.66 5 1 C4.67 2.65 4.34 4.3 4 6 C2.35 5.67 0.7 5.34 -1 5 C-0.67 3.35 -0.34 1.7 0 0 Z " fill="#F4F6F9" transform="translate(887,127)"/>
<path d="M0 0 C1.65 0.33 3.3 0.66 5 1 C4.67 2.65 4.34 4.3 4 6 C2.35 5.67 0.7 5.34 -1 5 C-0.67 3.35 -0.34 1.7 0 0 Z " fill="#F3F5F8" transform="translate(677,127)"/>
<path d="M0 0 C1.65 0.33 3.3 0.66 5 1 C4.67 2.65 4.34 4.3 4 6 C2.35 5.67 0.7 5.34 -1 5 C-0.67 3.35 -0.34 1.7 0 0 Z " fill="#F3F6F9" transform="translate(656,127)"/>
<path d="M0 0 C1.65 0.33 3.3 0.66 5 1 C4.67 2.65 4.34 4.3 4 6 C2.35 5.67 0.7 5.34 -1 5 C-0.67 3.35 -0.34 1.7 0 0 Z " fill="#F3F5F8" transform="translate(614,85)"/>
<path d="M0 0 C1.65 0.33 3.3 0.66 5 1 C4.67 2.65 4.34 4.3 4 6 C2.35 5.67 0.7 5.34 -1 5 C-0.67 3.35 -0.34 1.7 0 0 Z " fill="#F3F5F9" transform="translate(573,43)"/>
<path d="M0 0 C1.32 0 2.64 0 4 0 C4.1875 2.375 4.1875 2.375 4 5 C3.01 5.66 2.02 6.32 1 7 C0.01 6.34 -0.98 5.68 -2 5 C-1.125 1.125 -1.125 1.125 0 0 Z " fill="#F4F6F9" transform="translate(971,1)"/>
<path d="M0 0 C0.99 0.33 1.98 0.66 3 1 C3.75 3 3.75 3 4 5 C3 6 3 6 0.4375 6.0625 C-0.7690625 6.0315625 -0.7690625 6.0315625 -2 6 C-2.33 4.68 -2.66 3.36 -3 2 C-2.01 1.34 -1.02 0.68 0 0 Z " fill="#F4F6F9" transform="translate(971,845)"/>
<path d="M0 0 C1.67542976 0.28604898 3.34385343 0.61781233 5 1 C4.67 2.65 4.34 4.3 4 6 C2.68 6 1.36 6 0 6 C-0.38218767 4.34385343 -0.71395102 2.67542976 -1 1 C-0.67 0.67 -0.34 0.34 0 0 Z " fill="#F4F6F9" transform="translate(969,742)"/>
<path d="M0 0 C-0.33 1.65 -0.66 3.3 -1 5 C-2.65 4.67 -4.3 4.34 -6 4 C-6 2.68 -6 1.36 -6 0 C-3.50907189 -1.24546405 -2.58919267 -0.7767578 0 0 Z " fill="#F3F6F9" transform="translate(619,107)"/>
<path d="M0 0 C1.65 0 3.3 0 5 0 C5.33 0.99 5.66 1.98 6 3 C5.01 3.99 4.02 4.98 3 6 C1.68 5.34 0.36 4.68 -1 4 C-0.67 2.68 -0.34 1.36 0 0 Z " fill="#F4F6F9" transform="translate(969,887)"/>
<path d="M0 0 C1.67542976 0.28604898 3.34385343 0.61781233 5 1 C4.67 2.65 4.34 4.3 4 6 C2.68 5.67 1.36 5.34 0 5 C-0.5625 3.0625 -0.5625 3.0625 -1 1 C-0.67 0.67 -0.34 0.34 0 0 Z " fill="#F3F6F9" transform="translate(698,148)"/>
<path d="M0 0 C2.125 0.375 2.125 0.375 4 1 C4 2.32 4 3.64 4 5 C2.68 5.33 1.36 5.66 0 6 C-0.66 4.68 -1.32 3.36 -2 2 C-1.34 1.34 -0.68 0.68 0 0 Z " fill="#F3F6F9" transform="translate(950,85)"/>
<path d="M0 0 C2.475 0.495 2.475 0.495 5 1 C5 2.32 5 3.64 5 5 C3.0625 5.5625 3.0625 5.5625 1 6 C0 5 0 5 -0.0625 2.4375 C-0.041875 1.633125 -0.02125 0.82875 0 0 Z " fill="#F5F6F9" transform="translate(1011,659)"/>
<path d="M0 0 C2.125 0.375 2.125 0.375 4 1 C3.67 2.65 3.34 4.3 3 6 C1.68 6 0.36 6 -1 6 C-1.625 4.125 -1.625 4.125 -2 2 C-1.34 1.34 -0.68 0.68 0 0 Z " fill="#F4F6F9" transform="translate(720,169)"/>
<path d="M0 0 C1.65 0.33 3.3 0.66 5 1 C4.67 2.65 4.34 4.3 4 6 C2.0625 5.6875 2.0625 5.6875 0 5 C-0.33 4.01 -0.66 3.02 -1 2 C-0.67 1.34 -0.34 0.68 0 0 Z " fill="#F3F6F9" transform="translate(698,169)"/>
<path d="M0 0 C2.0625 0.4375 2.0625 0.4375 4 1 C3.67 2.65 3.34 4.3 3 6 C1.35 5.67 -0.3 5.34 -2 5 C-1.125 1.125 -1.125 1.125 0 0 Z " fill="#F4F5F9" transform="translate(615,127)"/>
<path d="M0 0 C1.32 0 2.64 0 4 0 C4.625 1.875 4.625 1.875 5 4 C4.34 4.66 3.68 5.32 3 6 C0.875 5.625 0.875 5.625 -1 5 C-0.67 3.35 -0.34 1.7 0 0 Z " fill="#F4F6F9" transform="translate(929,106)"/>
<path d="M0 0 C1.9375 0.3125 1.9375 0.3125 4 1 C4.33 1.99 4.66 2.98 5 4 C3.02 4.99 3.02 4.99 1 6 C0.01 5.34 -0.98 4.68 -2 4 C-1.34 2.68 -0.68 1.36 0 0 Z " fill="#F4F5F9" transform="translate(1012,970)"/>
<path d="M0 0 C2.0625 0.4375 2.0625 0.4375 4 1 C3.67 2.32 3.34 3.64 3 5 C1.68 5 0.36 5 -1 5 C-1 1 -1 1 0 0 Z " fill="#F4F6F9" transform="translate(949,866)"/>
<path d="M0 0 C1.65 0 3.3 0 5 0 C4.67 1.65 4.34 3.3 4 5 C2.35 4.67 0.7 4.34 -1 4 C-0.67 2.68 -0.34 1.36 0 0 Z " fill="#F4F6F9" transform="translate(948,846)"/>
<path d="M0 0 C1.65 0.33 3.3 0.66 5 1 C4.67 2.32 4.34 3.64 4 5 C2.35 5 0.7 5 -1 5 C-0.67 3.35 -0.34 1.7 0 0 Z " fill="#F4F6F9" transform="translate(866,148)"/>
<path d="M0 0 C1.98 0.495 1.98 0.495 4 1 C3.67 2.65 3.34 4.3 3 6 C1.68 5.67 0.36 5.34 -1 5 C-0.67 3.35 -0.34 1.7 0 0 Z " fill="#F4F6F9" transform="translate(950,106)"/>
<path d="M0 0 C1.98 0.495 1.98 0.495 4 1 C3.67 2.65 3.34 4.3 3 6 C1.68 5.67 0.36 5.34 -1 5 C-0.67 3.35 -0.34 1.7 0 0 Z " fill="#F3F5F9" transform="translate(594,106)"/>
<path d="M0 0 C1.65 0.33 3.3 0.66 5 1 C4.67 2.32 4.34 3.64 4 5 C2.35 4.67 0.7 4.34 -1 4 C-0.67 2.68 -0.34 1.36 0 0 Z " fill="#F4F6F9" transform="translate(948,763)"/>
<path d="M0 0 C-0.33 1.32 -0.66 2.64 -1 4 C-2.65 3.67 -4.3 3.34 -6 3 C-6 2.01 -6 1.02 -6 0 C-3.50907189 -1.24546405 -2.58919267 -0.7767578 0 0 Z " fill="#F4F6F9" transform="translate(871,170)"/>
<path d="M0 0 C1.98 0.495 1.98 0.495 4 1 C3.67 2.65 3.34 4.3 3 6 C1.68 5.67 0.36 5.34 -1 5 C-0.67 3.35 -0.34 1.7 0 0 Z " fill="#F3F6F9" transform="translate(552,43)"/>
<path d="M0 0 C1.98 0.495 1.98 0.495 4 1 C3.67 2.65 3.34 4.3 3 6 C1.68 5.67 0.36 5.34 -1 5 C-0.67 3.35 -0.34 1.7 0 0 Z " fill="#F3F6F9" transform="translate(552,1)"/>
<path d="M0 0 C0.99 0.33 1.98 0.66 3 1 C3 2.65 3 4.3 3 6 C1.68 5.67 0.36 5.34 -1 5 C-1.33 3.68 -1.66 2.36 -2 1 C-1.34 0.67 -0.68 0.34 0 0 Z " fill="#F4F6F9" transform="translate(574,85)"/>
<path d="M0 0 C1.98 0.495 1.98 0.495 4 1 C4 2.32 4 3.64 4 5 C3.01 5.33 2.02 5.66 1 6 C0.34 5.67 -0.32 5.34 -1 5 C-0.67 3.35 -0.34 1.7 0 0 Z " fill="#F3F5F8" transform="translate(552,22)"/>
<path d="M0 0 C1.32 0.66 2.64 1.32 4 2 C3.67 3.32 3.34 4.64 3 6 C1.68 5.67 0.36 5.34 -1 5 C-0.67 3.35 -0.34 1.7 0 0 Z " fill="#F3F6F9" transform="translate(992,1)"/>
<path d="M0 0 C2.125 0.375 2.125 0.375 4 1 C3.67 2.32 3.34 3.64 3 5 C1.68 5 0.36 5 -1 5 C-1.33 4.01 -1.66 3.02 -2 2 C-1.34 1.34 -0.68 0.68 0 0 Z " fill="#F4F7FA" transform="translate(949,887)"/>
<path d="M0 0 C1.32 0.66 2.64 1.32 4 2 C3.34 3.32 2.68 4.64 2 6 C0.68 5.34 -0.64 4.68 -2 4 C-1.34 2.68 -0.68 1.36 0 0 Z " fill="#F4F6F8" transform="translate(741,190)"/>
<path d="M0 0 C0.99 0.33 1.98 0.66 3 1 C3 2.32 3 3.64 3 5 C1.68 5.33 0.36 5.66 -1 6 C-1.33 4.35 -1.66 2.7 -2 1 C-1.34 0.67 -0.68 0.34 0 0 Z " fill="#F4F6F9" transform="translate(595,127)"/>
<path d="M0 0 C1.98 0.495 1.98 0.495 4 1 C3.67 2.32 3.34 3.64 3 5 C1.68 5 0.36 5 -1 5 C-0.67 3.35 -0.34 1.7 0 0 Z " fill="#F3F6F9" transform="translate(991,680)"/>
<path d="M0 0 C1.32 0.66 2.64 1.32 4 2 C3.67 2.99 3.34 3.98 3 5 C1.35 4.67 -0.3 4.34 -2 4 C-1.34 2.68 -0.68 1.36 0 0 Z " fill="#F3F5F8" transform="translate(762,190)"/>
<path d="M0 0 C1.98 0.495 1.98 0.495 4 1 C3.67 2.32 3.34 3.64 3 5 C1.68 5 0.36 5 -1 5 C-0.67 3.35 -0.34 1.7 0 0 Z " fill="#F3F6F9" transform="translate(992,43)"/>
<path d="M0 0 C1.98 0.495 1.98 0.495 4 1 C4 2.32 4 3.64 4 5 C2.35 4.67 0.7 4.34 -1 4 C-0.67 2.68 -0.34 1.36 0 0 Z " fill="#F3F6F9" transform="translate(531,22)"/>
<path d="M0 0 C1.98 0.495 1.98 0.495 4 1 C3.67 2.32 3.34 3.64 3 5 C1.68 5 0.36 5 -1 5 C-0.67 3.35 -0.34 1.7 0 0 Z " fill="#F4F6F9" transform="translate(991,970)"/>
<path d="M0 0 C0.99 0.33 1.98 0.66 3 1 C3 2.32 3 3.64 3 5 C1.35 5 -0.3 5 -2 5 C-2 3.68 -2 2.36 -2 1 C-1.34 0.67 -0.68 0.34 0 0 Z " fill="#F4F6F9" transform="translate(971,928)"/>
<path d="M0 0 C1.98 0.495 1.98 0.495 4 1 C3.67 2.32 3.34 3.64 3 5 C1.68 4.67 0.36 4.34 -1 4 C-0.67 2.68 -0.34 1.36 0 0 Z " fill="#F4F6FA" transform="translate(928,846)"/>
<path d="M0 0 C1.98 0.495 1.98 0.495 4 1 C3.67 2.32 3.34 3.64 3 5 C1.68 4.67 0.36 4.34 -1 4 C-0.67 2.68 -0.34 1.36 0 0 Z " fill="#F4F6F9" transform="translate(928,784)"/>
<path d="M0 0 C0.99 0.33 1.98 0.66 3 1 C2.67 2.32 2.34 3.64 2 5 C1.01 5 0.02 5 -1 5 C-1.33 3.68 -1.66 2.36 -2 1 C-1.34 0.67 -0.68 0.34 0 0 Z " fill="#F4F7F9" transform="translate(972,106)"/>
<path d="M0 0 C0.99 0 1.98 0 3 0 C3.33 1.32 3.66 2.64 4 4 C2.68 4.33 1.36 4.66 0 5 C-0.5625 3.0625 -0.5625 3.0625 -1 1 C-0.67 0.67 -0.34 0.34 0 0 Z " fill="#F3F5F8" transform="translate(1012,991)"/>
<path d="M0 0 C1.98 0.495 1.98 0.495 4 1 C4 2.32 4 3.64 4 5 C2.35 4.67 0.7 4.34 -1 4 C-0.67 2.68 -0.34 1.36 0 0 Z " fill="#F4F6F9" transform="translate(824,190)"/>
<path d="M0 0 C1.98 0.495 1.98 0.495 4 1 C3.67 2.32 3.34 3.64 3 5 C1.68 4.67 0.36 4.34 -1 4 C-0.67 2.68 -0.34 1.36 0 0 Z " fill="#F4F6F9" transform="translate(594,148)"/>
<path d="M0 0 C0.66 0.33 1.32 0.66 2 1 C1.67 2.65 1.34 4.3 1 6 C-0.32 5.34 -1.64 4.68 -3 4 C-2.67 3.01 -2.34 2.02 -2 1 C-1.34 0.67 -0.68 0.34 0 0 Z " fill="#F3F5F9" transform="translate(533,1)"/>
<path d="M0 0 C1.32 0.66 2.64 1.32 4 2 C3.67 2.99 3.34 3.98 3 5 C1.68 4.67 0.36 4.34 -1 4 C-0.67 2.68 -0.34 1.36 0 0 Z " fill="#F3F6F9" transform="translate(804,211)"/>
<path d="M0 0 C0.99 0.33 1.98 0.66 3 1 C3.33 1.99 3.66 2.98 4 4 C2.35 4.33 0.7 4.66 -1 5 C-0.67 3.35 -0.34 1.7 0 0 Z " fill="#F3F5F8" transform="translate(657,190)"/>
<path d="M0 0 C0.99 0.33 1.98 0.66 3 1 C2.67 2.32 2.34 3.64 2 5 C0.68 4.67 -0.64 4.34 -2 4 C-1.34 2.68 -0.68 1.36 0 0 Z " fill="#F3F6F9" transform="translate(930,148)"/>
<path d="M0 0 C0.99 0.33 1.98 0.66 3 1 C2.67 2.32 2.34 3.64 2 5 C0.68 4.67 -0.64 4.34 -2 4 C-2 3.01 -2 2.02 -2 1 C-1.34 0.67 -0.68 0.34 0 0 Z " fill="#F4F6F9" transform="translate(532,64)"/>
<path d="M0 0 C2.475 0.495 2.475 0.495 5 1 C4.67 1.99 4.34 2.98 4 4 C2.68 4 1.36 4 0 4 C0 2.68 0 1.36 0 0 Z " fill="#F4F6F9" transform="translate(948,722)"/>
<path d="M0 0 C1.32 0.66 2.64 1.32 4 2 C3.67 2.99 3.34 3.98 3 5 C1.68 4.67 0.36 4.34 -1 4 C-0.67 2.68 -0.34 1.36 0 0 Z " fill="#F3F5F8" transform="translate(783,211)"/>
<path d="M0 0 C0.99 0.66 1.98 1.32 3 2 C2.67 2.99 2.34 3.98 2 5 C0.68 4.67 -0.64 4.34 -2 4 C-2 3.01 -2 2.02 -2 1 C-1.34 0.67 -0.68 0.34 0 0 Z " fill="#F4F5F9" transform="translate(637,190)"/>
<path d="M0 0 C1.32 0 2.64 0 4 0 C3.67 1.32 3.34 2.64 3 4 C1.68 3.67 0.36 3.34 -1 3 C-0.67 2.01 -0.34 1.02 0 0 Z " fill="#F4F6F9" transform="translate(928,743)"/>
<path d="M0 0 C0.99 0.33 1.98 0.66 3 1 C2.67 2.32 2.34 3.64 2 5 C1.01 5 0.02 5 -1 5 C-0.67 3.35 -0.34 1.7 0 0 Z " fill="#F3F5F9" transform="translate(888,190)"/>
<path d="M0 0 C0.99 0.66 1.98 1.32 3 2 C2.67 2.99 2.34 3.98 2 5 C0.68 4.67 -0.64 4.34 -2 4 C-1.34 2.68 -0.68 1.36 0 0 Z " fill="#F3F6F9" transform="translate(595,169)"/>
<path d="M0 0 C2.475 0.495 2.475 0.495 5 1 C4.67 1.99 4.34 2.98 4 4 C2.68 3.67 1.36 3.34 0 3 C0 2.01 0 1.02 0 0 Z " fill="#F3F5F9" transform="translate(509,44)"/>
</svg>
