<?xml version="1.0" encoding="UTF-8"?>
<svg version="1.1" xmlns="http://www.w3.org/2000/svg" width="1024" height="1024">
<path d="M0 0 C337.92 0 675.84 0 1024 0 C1024 337.92 1024 675.84 1024 1024 C686.08 1024 348.16 1024 0 1024 C0 686.08 0 348.16 0 0 Z " fill="#FCFDFD" transform="translate(0,0)"/>
<path d="M0 0 C3.19117979 2.65430648 4.61064284 6.04932854 6.265625 9.75390625 C6.73030685 10.77304611 6.73030685 10.77304611 7.20437622 11.81277466 C8.2264259 14.05964934 9.23835715 16.31092269 10.25 18.5625 C10.96916794 20.15032584 11.68873806 21.73796958 12.40869141 23.32543945 C17.75793917 35.14405758 23.00452629 47.00792208 28.21850586 58.88671875 C33.01546202 69.80954879 37.90214227 80.69024245 42.8125 91.5625 C49.34125232 106.02151852 55.76388747 120.52370619 62.11914062 135.05975342 C68.13704611 148.81960766 74.26801015 162.52528202 80.45285034 176.21081543 C85.95676493 188.39491981 91.35174506 200.61984093 96.6328125 212.90209961 C100.14391047 221.06187764 103.74067589 229.17744158 107.46313477 237.24316406 C110 242.78934717 110 242.78934717 110 245 C85.58 245 61.16 245 36 245 C33.628125 239.4725 31.25625 233.945 28.8125 228.25 C27.70612183 225.67300293 27.70612183 225.67300293 26.57739258 223.04394531 C25.00937636 219.39014695 23.4474414 215.73377778 21.88775635 212.07641602 C21.06182351 210.14460197 20.22953846 208.21564868 19.39599609 206.28710938 C18.71077881 204.68319336 18.71077881 204.68319336 18.01171875 203.046875 C17.61815186 202.13260742 17.22458496 201.21833984 16.8190918 200.27636719 C16 198 16 198 16 195 C-15.02 195 -46.04 195 -78 195 C-76.04356537 189.1306961 -74.05913942 183.52697655 -71.6015625 177.88671875 C-71.28472504 177.15105179 -70.96788757 176.41538483 -70.64144897 175.65742493 C-69.6394248 173.33260505 -68.63243414 171.00997992 -67.625 168.6875 C-66.62853441 166.38171934 -65.63312923 164.07548405 -64.63812256 161.76907349 C-63.99384989 160.27599106 -63.34888218 158.78320835 -62.70318604 157.29074097 C-60.38242809 151.9182128 -58.12976992 146.52145701 -55.92333984 141.10083008 C-55 139 -55 139 -54 138 C-52.61839885 137.9072167 -51.23211962 137.88252957 -49.84741211 137.88647461 C-48.96657455 137.88655014 -48.085737 137.88662567 -47.1782074 137.88670349 C-46.22092239 137.89186478 -45.26363739 137.89702606 -44.27734375 137.90234375 C-42.81452721 137.90446617 -42.81452721 137.90446617 -41.32215881 137.90663147 C-38.19390857 137.91224867 -35.06572877 137.92480407 -31.9375 137.9375 C-29.82226666 137.94251278 -27.70703219 137.94707607 -25.59179688 137.95117188 C-20.39450704 137.96222369 -15.19725855 137.97897854 -10 138 C-22.64323758 107.62910487 -22.64323758 107.62910487 -35.5625 77.375 C-35.83726166 76.73794128 -36.11202332 76.10088257 -36.39511108 75.44451904 C-37.1577541 73.677952 -37.92445629 71.91313895 -38.69140625 70.1484375 C-39.11623291 69.17052246 -39.54105957 68.19260742 -39.97875977 67.18505859 C-40.81555029 65.07071736 -40.81555029 65.07071736 -42 64 C-48.60028863 79.12532133 -55.14699473 94.26900882 -61.5 109.5 C-65.65122283 119.45175985 -69.87525034 129.36655756 -74.1875 139.25 C-81.49006316 156.00682438 -88.51226427 172.87965804 -95.55250549 189.74795532 C-99.298153 198.72011661 -103.06080312 207.68508633 -106.8321228 216.64648438 C-107.51840279 218.27750639 -108.20430583 219.90868706 -108.88980103 221.54003906 C-109.83968498 223.80051494 -110.7907654 226.06048367 -111.7421875 228.3203125 C-112.15042503 229.29256271 -112.15042503 229.29256271 -112.56690979 230.28445435 C-114.64807497 235.22117176 -116.82286396 240.10144391 -119 245 C-142.76 245 -166.52 245 -191 245 C-188.74983053 238.24949158 -188.74983053 238.24949158 -187.43798828 235.26928711 C-187.14153915 234.59238327 -186.84509003 233.91547943 -186.53965759 233.21806335 C-186.05983177 232.13365715 -186.05983177 232.13365715 -185.5703125 231.02734375 C-185.22807144 230.24829178 -184.88583038 229.46923981 -184.53321838 228.6665802 C-183.39988397 226.08900503 -182.26255027 223.51321709 -181.125 220.9375 C-180.32253811 219.11561909 -179.52021327 217.29367782 -178.71801758 215.47167969 C-168.29456444 191.81450794 -157.8142086 168.18143476 -147.234375 144.59375 C-146.95080643 143.96143967 -146.66723785 143.32912933 -146.37507629 142.67765808 C-145.05163736 139.72808428 -143.72529101 136.77986151 -142.39526367 133.83325195 C-139.85158815 128.18724904 -137.35977241 122.52514886 -134.94140625 116.82421875 C-134.44584229 115.66567383 -133.95027832 114.50712891 -133.43969727 113.31347656 C-132.51035861 111.13425069 -131.59204498 108.95027464 -130.68725586 106.76074219 C-126.92546249 97.96877191 -126.92546249 97.96877191 -122 95 C-121.25975586 94.54117432 -120.51951172 94.08234863 -119.75683594 93.60961914 C-116.97884721 91.89950758 -114.17838241 90.23062648 -111.375 88.5625 C-100.63014639 82.09085002 -90.24088882 75.23803704 -80 68 C-79.23848633 67.4652002 -78.47697266 66.93040039 -77.69238281 66.37939453 C-67.35863256 59.1064443 -57.4315654 51.45672454 -47.70117188 43.39697266 C-45.41356604 41.51843067 -43.08185842 39.69815682 -40.75 37.875 C-35.97465536 34.07241075 -31.51754101 29.96856662 -27.0546875 25.80859375 C-24.80221358 23.71352253 -22.4951063 21.69466044 -20.1640625 19.6875 C-15.74466154 15.83798852 -11.61783393 11.72990045 -7.5 7.5625 C-6.77296875 6.83095703 -6.0459375 6.09941406 -5.296875 5.34570312 C-3.52890501 3.56610176 -1.76333622 1.78419082 0 0 Z " fill="#233C6F" transform="translate(649,388)"/>
<path d="M0 0 C0.33 0.66 0.66 1.32 1 2 C-0.02129959 4.31555913 -1.09825099 6.4744602 -2.3125 8.6875 C-2.67424316 9.35378418 -3.03598633 10.02006836 -3.40869141 10.70654297 C-20.95854267 42.43041424 -48.08591918 73.8195858 -76.5703125 96.0703125 C-79.11445243 98.09089952 -81.48832778 100.2338314 -83.875 102.4375 C-89.63613594 107.66670007 -95.77470226 112.34673128 -102 117 C-102.70833984 117.53286621 -103.41667969 118.06573242 -104.14648438 118.61474609 C-115.5093245 127.15150646 -127.09446681 135.24092221 -139 143 C-140.45971512 143.95821193 -141.919351 144.91654457 -143.37890625 145.875 C-216.38777073 193.64419837 -313.34325035 242.61436549 -410.875 233.5 C-422.22670874 231.03840601 -435.09561611 225.8010507 -442 216 C-448.55940018 204.71092706 -449.76274818 192.90134208 -447.0625 180.125 C-439.7113501 155.0829987 -422.59752967 133.70453263 -405 115 C-405 118.64888013 -405.82482909 119.39508818 -408 122.25 C-419.22549016 137.84728348 -426.42753343 154.52436538 -425 174 C-424.17766456 177.42309513 -422.92718207 180.06582189 -421 183 C-420.56042969 183.68449219 -420.12085938 184.36898437 -419.66796875 185.07421875 C-412.04118766 195.21107969 -398.99827953 199.01358921 -387 201 C-381.81029776 201.4715703 -376.64525848 201.58217297 -371.4375 201.5625 C-370.35524643 201.56327042 -370.35524643 201.56327042 -369.25112915 201.5640564 C-351.4899351 201.5110668 -334.35875974 198.51078532 -317 195 C-315.99791504 194.80809082 -314.99583008 194.61618164 -313.96337891 194.41845703 C-268.15859676 185.57028887 -223.47871047 164.68820638 -182 144 C-180.98599121 143.49500977 -179.97198242 142.99001953 -178.92724609 142.46972656 C-142.46031501 124.18434862 -107.233572 102.00404228 -75 77 C-74.47212891 76.59539551 -73.94425781 76.19079102 -73.40039062 75.77392578 C-61.03559387 66.29401112 -49.30651233 56.14556326 -37.875 45.5625 C-37.25955322 44.9955542 -36.64410645 44.4286084 -36.01000977 43.84448242 C-33.20229145 41.21900794 -30.60170956 38.59124841 -28.1953125 35.58984375 C-27.47085937 34.73519531 -26.74640625 33.88054687 -26 33 C-25.34 33 -24.68 33 -24 33 C-23.7834375 32.47019531 -23.566875 31.94039063 -23.34375 31.39453125 C-21.49948468 28.10809333 -19.00289963 25.47727163 -16.5 22.6875 C-10.24868819 15.58477552 -5.05379887 7.98321325 0 0 Z " fill="#F0772B" transform="translate(687,320)"/>
<path d="M0 0 C0 6.27 0 12.54 0 19 C35.97 19 71.94 19 109 19 C108.28726894 22.56365528 107.77044445 24.85290072 106.3293457 28.00146484 C105.98841385 28.75350189 105.64748199 29.50553894 105.29621887 30.28036499 C104.74160225 31.48349838 104.74160225 31.48349838 104.17578125 32.7109375 C103.79189743 33.55612946 103.40801361 34.40132141 103.01249695 35.27212524 C101.784108 37.97536745 100.54890478 40.67541572 99.3125 43.375 C98.0945686 46.03914904 96.87832068 48.7040229 95.6660614 51.37075806 C94.91365069 53.0254631 94.15811096 54.67875126 93.39851379 56.33016968 C89.99546953 63.80575048 87.06334711 71.34163224 84 79 C33.18 79 -17.64 79 -70 79 C-70 55.24 -70 31.48 -70 7 C-62.41 6.67 -54.82 6.34 -47 6 C-42.63373137 5.60608663 -38.33741953 5.19180075 -34 4.625 C-32.44466553 4.43200317 -32.44466553 4.43200317 -30.85791016 4.23510742 C-23.85120187 3.33318357 -16.96733612 2.14445433 -10.0859375 0.55078125 C-7 0 -7 0 0 0 Z " fill="#263264" transform="translate(364,554)"/>
<path d="M0 0 C23.43 0 46.86 0 71 0 C71 25.08 71 50.16 71 76 C67.04 76.99 63.08 77.98 59 79 C56.62815858 82.55776212 56.70175606 84.28020607 56.6875 88.5 C56.67074219 89.6446875 56.65398437 90.789375 56.63671875 91.96875 C56.7243488 95.34229021 56.7243488 95.34229021 60 98 C63.63 98 67.26 98 71 98 C71 112.19 71 126.38 71 141 C64.68875 142.2065625 64.68875 142.2065625 58.25 143.4375 C56.9496582 143.68943115 55.64931641 143.9413623 54.30957031 144.20092773 C42.76747298 146.37139315 31.48179919 147.17999885 19.75 147.1875 C18.72648437 147.19974609 17.70296875 147.21199219 16.6484375 147.22460938 C15.64554687 147.22654297 14.64265625 147.22847656 13.609375 147.23046875 C12.72217773 147.23457764 11.83498047 147.23868652 10.92089844 147.24291992 C8 147 8 147 0 145 C0 97.15 0 49.3 0 0 Z " fill="#254A7D" transform="translate(294,369)"/>
<path d="M0 0 C1.89931974 1.64408829 3.7465965 3.31518068 5.55078125 5.0625 C5.30078125 6.9375 5.30078125 6.9375 4.55078125 9.0625 C2.48828125 10.3125 2.48828125 10.3125 0.55078125 11.0625 C0.00550781 10.61519531 -0.53976562 10.16789062 -1.1015625 9.70703125 C-6.29285756 5.54512119 -11.53037498 2.09888084 -17.44921875 -0.9375 C-16.81693359 0.27486328 -16.81693359 0.27486328 -16.171875 1.51171875 C-15.35009766 3.11466797 -15.35009766 3.11466797 -14.51171875 4.75 C-13.69380859 6.33361328 -13.69380859 6.33361328 -12.859375 7.94921875 C-11.60216115 10.72484047 -10.88852306 13.06522126 -10.44921875 16.0625 C-8.13921875 16.0625 -5.82921875 16.0625 -3.44921875 16.0625 C-4.41281285 18.01549875 -5.38652469 19.95033641 -6.44921875 21.8515625 C-9.30546923 27.09545987 -10.53371711 32.1840158 -11.44921875 38.0625 C-12.10921875 38.0625 -12.76921875 38.0625 -13.44921875 38.0625 C-14.10921875 33.7725 -14.76921875 29.4825 -15.44921875 25.0625 C-22.04921875 24.7325 -28.64921875 24.4025 -35.44921875 24.0625 C-35.44921875 31.6525 -35.44921875 39.2425 -35.44921875 47.0625 C-30.16921875 47.0625 -24.88921875 47.0625 -19.44921875 47.0625 C-20.81080067 52.50882768 -20.81080067 52.50882768 -23.44921875 55.0625 C-26.3671875 55.453125 -26.3671875 55.453125 -29.63671875 55.3125 C-30.72339844 55.27640625 -31.81007813 55.2403125 -32.9296875 55.203125 C-33.76113281 55.15671875 -34.59257812 55.1103125 -35.44921875 55.0625 C-35.32160156 56.00609375 -35.19398438 56.9496875 -35.0625 57.921875 C-34.21034384 68.94457025 -34.21034384 68.94457025 -37.828125 73.625 C-40.51277046 76.64101101 -43.47849097 79.33264204 -46.44921875 82.0625 C-47.10921875 83.0525 -47.76921875 84.0425 -48.44921875 85.0625 C-51.26953125 85.35546875 -51.26953125 85.35546875 -54.57421875 85.25 C-56.21777344 85.20939453 -56.21777344 85.20939453 -57.89453125 85.16796875 C-58.73757813 85.13316406 -59.580625 85.09835937 -60.44921875 85.0625 C-60.12824219 85.83464844 -59.80726563 86.60679687 -59.4765625 87.40234375 C-58.35309237 90.31140519 -57.89732592 91.9876685 -58.44921875 95.0625 C-60.94921875 97.375 -60.94921875 97.375 -63.44921875 99.0625 C-64.29246547 97.484424 -65.12345793 95.8997958 -65.94921875 94.3125 C-66.41328125 93.43078125 -66.87734375 92.5490625 -67.35546875 91.640625 C-68.44921875 89.0625 -68.44921875 89.0625 -68.44921875 85.0625 C-73.72921875 85.0625 -79.00921875 85.0625 -84.44921875 85.0625 C-79.33718777 91.28584206 -73.86679114 96.20735469 -67.44921875 101.0625 C-68.39288706 103.50030981 -68.90328315 104.78486608 -71.27734375 105.9921875 C-76.06590859 106.14721298 -79.94233356 101.96639135 -83.44921875 99.0625 C-95.44060346 87.80046606 -103.06641867 72.39646205 -103.78515625 55.94921875 C-103.96129319 45.69337754 -103.55690673 36.63368146 -99.44921875 27.0625 C-99.07539063 26.17433594 -98.7015625 25.28617187 -98.31640625 24.37109375 C-95.50578711 18.27521449 -91.81916931 13.13544261 -87.44921875 8.0625 C-86.93875 7.45664062 -86.42828125 6.85078125 -85.90234375 6.2265625 C-64.13111256 -17.59245776 -24.93980334 -19.72909482 0 0 Z " fill="#EF8933" transform="translate(524.44921875,331.9375)"/>
<path d="M0 0 C7.45458359 8.09938935 8.39838561 15.90060128 8.06640625 26.44921875 C7.63614478 32.93665029 5.60706161 38.24920301 2.6640625 44.01171875 C2.18138916 44.96691406 2.18138916 44.96691406 1.68896484 45.94140625 C-3.04608765 55.1857163 -8.46374215 63.1927866 -15.3359375 71.01171875 C-16.19468128 72.04807621 -17.05000978 73.08727078 -17.90234375 74.12890625 C-28.82349136 87.36119224 -40.92800018 100.24304528 -54.4921875 110.79296875 C-56.76456064 112.56591922 -58.97663975 114.37391977 -61.1796875 116.23046875 C-70.87593107 124.38809021 -80.85168235 131.89917734 -91.3359375 139.01171875 C-92.42044189 139.74986816 -92.42044189 139.74986816 -93.52685547 140.50292969 C-108.04907179 150.35969564 -122.84696556 159.79623227 -137.8984375 168.82421875 C-138.619104 169.26330566 -139.33977051 169.70239258 -140.08227539 170.15478516 C-141.79745058 171.1705827 -143.56290297 172.1006649 -145.3359375 173.01171875 C-145.9959375 172.68171875 -146.6559375 172.35171875 -147.3359375 172.01171875 C-146.70316895 171.59510986 -146.07040039 171.17850098 -145.41845703 170.74926758 C-119.11835641 153.41719559 -119.11835641 153.41719559 -94.3359375 134.01171875 C-93.26457998 133.11427636 -92.19295012 132.21715902 -91.12109375 131.3203125 C-63.58630972 108.1459215 -36.18691282 81.40822366 -23.3359375 47.01171875 C-22.82740234 45.70654297 -22.82740234 45.70654297 -22.30859375 44.375 C-19.06508968 35.09289848 -18.87692929 25.19685993 -23.09765625 16.21875 C-28.33216963 6.88909681 -36.87346859 2.06890339 -46.98046875 -1.1484375 C-65.1960056 -5.70762309 -87.3053235 -3.76293241 -105.390625 0.7421875 C-107.62878572 1.05229411 -109.19689239 0.68796395 -111.3359375 0.01171875 C-79.66014105 -10.10215648 -28.52587425 -24.28038461 0 0 Z " fill="#55B0DA" transform="translate(682.3359375,265.98828125)"/>
<path d="M0 0 C0.99 0 1.98 0 3 0 C3.34611328 1.63582031 3.34611328 1.63582031 3.69921875 3.3046875 C5.69677939 12.59954454 7.96649575 21.76190907 10.5625 30.90625 C12.36502427 37.25652228 14.0892474 43.62784129 15.8125 50 C16.12678955 51.15306641 16.4410791 52.30613281 16.76489258 53.49414062 C17.20031372 55.10579102 17.20031372 55.10579102 17.64453125 56.75 C17.90596924 57.71421875 18.16740723 58.6784375 18.43676758 59.671875 C19 62 19 62 19 64 C14.57916835 63.2531799 10.41843259 61.88289994 6.1875 60.4375 C5.14819336 60.08655273 5.14819336 60.08655273 4.08789062 59.72851562 C2.39099886 59.15508324 0.69536922 58.57791831 -1 58 C-1.43868408 58.93066284 -1.43868408 58.93066284 -1.88623047 59.88012695 C-3.21337351 62.69208036 -4.54414324 65.50230246 -5.875 68.3125 C-6.56529297 69.77719727 -6.56529297 69.77719727 -7.26953125 71.27148438 C-7.71425781 72.20927734 -8.15898438 73.14707031 -8.6171875 74.11328125 C-9.22989502 75.40939331 -9.22989502 75.40939331 -9.85498047 76.73168945 C-11 79 -11 79 -13 82 C-13.66 82 -14.32 82 -15 82 C-15.87633276 80.97267747 -16.70137211 79.90132698 -17.5 78.8125 C-21.81887132 73.55520726 -29.05366509 69.53420671 -35.90112305 68.79467773 C-36.59761963 68.75802002 -37.29411621 68.7213623 -38.01171875 68.68359375 C-38.76904297 68.64169922 -39.52636719 68.59980469 -40.30664062 68.55664062 C-41.09232422 68.51732422 -41.87800781 68.47800781 -42.6875 68.4375 C-43.48478516 68.39431641 -44.28207031 68.35113281 -45.10351562 68.30664062 C-47.06881447 68.20072632 -49.03438496 68.09987449 -51 68 C-49.71118756 64.74886092 -48.41845238 61.49929559 -47.125 58.25 C-46.76019531 57.32960938 -46.39539063 56.40921875 -46.01953125 55.4609375 C-45.66503906 54.57148438 -45.31054688 53.68203125 -44.9453125 52.765625 C-44.62062988 51.94868164 -44.29594727 51.13173828 -43.96142578 50.29003906 C-43.05905131 48.14065548 -42.06871204 46.07088948 -41 44 C-41.928125 43.9175 -42.85625 43.835 -43.8125 43.75 C-49.12534498 43.01757075 -54.02778798 40.93313849 -59 39 C-59 38.01 -59 37.02 -59 36 C-58.1234375 35.52433594 -57.246875 35.04867187 -56.34375 34.55859375 C-45.63865131 28.67670309 -35.30527236 22.25937549 -24.97265625 15.75 C-18.77660646 11.84785798 -12.53296189 8.02721817 -6.26806641 4.23681641 C-2.95176881 2.36209542 -2.95176881 2.36209542 0 0 Z " fill="#72C5E7" transform="translate(588,271)"/>
<path d="M0 0 C2 2 2 2 3.125 5.5625 C6.15480596 13.89446639 12.56688642 19.33676566 20.3125 23.22265625 C20.869375 23.47917969 21.42625 23.73570312 22 24 C20.57417482 27.28085283 18.83258594 29.35503935 16.25 31.8125 C13.68471651 34.30396239 11.26690417 36.79737513 9 39.5625 C5.69075162 43.48947475 1.91877853 46.69656686 -2 50 C-2.91394531 50.80179687 -3.82789063 51.60359375 -4.76953125 52.4296875 C-25.08857098 70.16379941 -46.51792899 83.14561855 -72 92 C-72.76618652 92.27320068 -73.53237305 92.54640137 -74.32177734 92.82788086 C-79.33164314 94.5713573 -84.26696731 95.82710604 -89.5 96.6875 C-90.26103027 96.81487549 -91.02206055 96.94225098 -91.80615234 97.07348633 C-99.87513811 98.31097427 -107.86042881 98.27818788 -116 98 C-113.28711538 96.19141025 -111.35741258 95.37287334 -108.3125 94.375 C-89.24702367 87.51943502 -72.27676997 76.16426175 -57 63 C-55.93010709 62.12289569 -54.85839127 61.24801169 -53.78515625 60.375 C-44.02216221 52.34740214 -35.46480741 43.36818347 -27 34 C-26.41831055 33.3615918 -25.83662109 32.72318359 -25.23730469 32.06542969 C-16.77416035 22.73779701 -9.31304502 12.84770557 -2.10058594 2.52783203 C-1 1 -1 1 0 0 Z " fill="#48A3D2" transform="translate(513,380)"/>
<path d="M0 0 C6.06375 -0.103125 12.1275 -0.20625 18.375 -0.3125 C21.21424072 -0.38078003 21.21424072 -0.38078003 24.11083984 -0.45043945 C33.788079 -0.58632998 42.1376691 -0.47244973 49.62255859 6.51464844 C55.07508367 12.64173262 55.38262628 17.58739174 55.25 25.578125 C54.74571867 32.48047566 52.25549347 36.40144321 47 41 C46.01 41.66 45.02 42.32 44 43 C44.61900166 46.27553138 45.77096992 48.3873709 47.72265625 51.07421875 C48.52993164 52.19860352 48.52993164 52.19860352 49.35351562 53.34570312 C49.91748047 54.11849609 50.48144531 54.89128906 51.0625 55.6875 C52.18033652 57.23166237 53.29632889 58.77716202 54.41015625 60.32421875 C54.90652588 61.00572998 55.40289551 61.68724121 55.91430664 62.3894043 C57 64 57 64 57 65 C51.68918803 65.88952806 46.20143829 66.78206667 41 65 C36.81650403 61.51056229 34.29796869 56.52681342 31.89111328 51.7175293 C30.90213622 49.73492258 30.90213622 49.73492258 29 47 C26.21101681 46.61378774 23.67080331 46.39768076 20.875 46.3125 C18.27625 46.209375 15.6775 46.10625 13 46 C13 52.27 13 58.54 13 65 C8.71 65 4.42 65 0 65 C0 43.55 0 22.1 0 0 Z " fill="#274275" transform="translate(294,668)"/>
<path d="M0 0 C3.96 0 7.92 0 12 0 C12 21.78 12 43.56 12 66 C7.71 66 3.42 66 -1 66 C-1.33 53.13 -1.66 40.26 -2 27 C-3.835625 30.238125 -5.67125 33.47625 -7.5625 36.8125 C-8.66948814 38.74095542 -9.77836727 40.66832906 -10.890625 42.59375 C-12.66188413 45.66110413 -14.41114198 48.73546896 -16.109375 51.84375 C-16.67140625 52.8234375 -17.2334375 53.803125 -17.8125 54.8125 C-18.27269531 55.64394531 -18.73289062 56.47539063 -19.20703125 57.33203125 C-21 59 -21 59 -24.69921875 59.26171875 C-25.78847656 59.17535156 -26.87773437 59.08898437 -28 59 C-28.33209473 58.41621582 -28.66418945 57.83243164 -29.00634766 57.23095703 C-30.54470632 54.52829085 -32.08484507 51.82664293 -33.625 49.125 C-34.14707031 48.2071875 -34.66914063 47.289375 -35.20703125 46.34375 C-35.72910156 45.42851563 -36.25117188 44.51328125 -36.7890625 43.5703125 C-37.26037598 42.74289551 -37.73168945 41.91547852 -38.21728516 41.06298828 C-40.76688377 36.68237144 -43.3922496 32.34625067 -46 28 C-46.33 40.54 -46.66 53.08 -47 66 C-51.29 66 -55.58 66 -60 66 C-60 44.55 -60 23.1 -60 1 C-55.71 1 -51.42 1 -47 1 C-46.0821875 2.65386719 -45.164375 4.30773437 -44.21875 6.01171875 C-35.56500431 21.61931915 -35.56500431 21.61931915 -26.2578125 36.83984375 C-25 39 -25 39 -25 41 C-24.34 41 -23.68 41 -23 41 C-22.75121094 40.14792969 -22.50242187 39.29585937 -22.24609375 38.41796875 C-20.90844833 34.74887865 -19.12093065 31.60401323 -17.0625 28.3125 C-16.26016662 27.00485733 -15.45946859 25.69621025 -14.66015625 24.38671875 C-14.2336377 23.68853027 -13.80711914 22.9903418 -13.36767578 22.27099609 C-10.3469437 17.25513573 -7.4546677 12.16305018 -4.54321289 7.08325195 C-4.09582764 6.30554443 -3.64844238 5.52783691 -3.1875 4.7265625 C-2.78917969 4.03127441 -2.39085937 3.33598633 -1.98046875 2.61962891 C-1 1 -1 1 0 0 Z " fill="#274A7D" transform="translate(507,667)"/>
<path d="M0 0 C8.59012484 5.02148513 13.44727517 11.59182552 16.5625 20.9375 C17.70551929 30.18293453 15.92509752 37.30186732 10.5625 44.9375 C4.10836151 51.75423054 -3.48170514 54.88831913 -12.75 55.5 C-20.39336815 55.24271973 -27.18341761 52.1167097 -32.64453125 46.78125 C-38.6791267 39.36187369 -41.02427162 32.802002 -40.79296875 23.23046875 C-40.05707616 16.41335391 -37.47024489 9.70536358 -32.4375 4.9375 C-22.47071774 -1.76175397 -11.64448565 -5.46395096 0 0 Z " fill="#26558B" transform="translate(558.4375,346.0625)"/>
<path d="M0 0 C4.62 0 9.24 0 14 0 C21.01932385 13.62574629 27.26634864 27.56678902 33.47851562 41.57226562 C34.83980598 44.63910077 36.20708957 47.70313728 37.578125 50.765625 C38.30218136 52.38537285 39.02614813 54.00516075 39.75 55.625 C40.07291016 56.34606934 40.39582031 57.06713867 40.72851562 57.81005859 C41.93441675 60.51932537 43.06145716 63.18437147 44 66 C39.05 66 34.1 66 29 66 C27.02 61.71 25.04 57.42 23 53 C12.44 52.67 1.88 52.34 -9 52 C-9.99 54.97 -10.98 57.94 -12 61 C-12.99 63.475 -12.99 63.475 -14 66 C-18.95 66 -23.9 66 -29 66 C-23.76273015 52.96276993 -18.07916474 40.15699687 -12.25 27.375 C-10.97184148 24.56575942 -9.69453971 21.75613212 -8.41790771 18.94619751 C-7.63206062 17.21717991 -6.8452211 15.48861287 -6.05718994 13.7605896 C-3.97968864 9.19700276 -1.9560994 4.61698127 0 0 Z " fill="#293F6F" transform="translate(711,667)"/>
<path d="M0 0 C16.5 0 33 0 50 0 C50 3.96 50 7.92 50 12 C38.12 12 26.24 12 14 12 C14 17.28 14 22.56 14 28 C24.23 28 34.46 28 45 28 C45 31.3 45 34.6 45 38 C34.77 38 24.54 38 14 38 C14 43.61 14 49.22 14 55 C26.21 55 38.42 55 51 55 C51 58.63 51 62.26 51 66 C34.17 66 17.34 66 0 66 C0 44.22 0 22.44 0 0 Z " fill="#274678" transform="translate(545,667)"/>
<path d="M0 0 C16.5 0 33 0 50 0 C50 3.63 50 7.26 50 11 C38.12 11 26.24 11 14 11 C14 15.95 14 20.9 14 26 C24.23 26 34.46 26 45 26 C45 29.63 45 33.26 45 37 C29.655 37.495 29.655 37.495 14 38 C13.67 43.28 13.34 48.56 13 54 C25.21 54 37.42 54 50 54 C50 57.63 50 61.26 50 65 C33.5 65 17 65 0 65 C0 43.55 0 22.1 0 0 Z " fill="#27467A" transform="translate(373,668)"/>
<path d="M0 0 C0.93392578 -0.01998047 1.86785156 -0.03996094 2.83007812 -0.06054688 C9.42972779 -0.05596697 15.46551429 0.95143799 21.1875 4.4375 C22.34707207 7.91621621 21.96206651 8.77969645 20.75 12.125 C20.31880859 13.33736328 20.31880859 13.33736328 19.87890625 14.57421875 C19.53666016 15.49654297 19.53666016 15.49654297 19.1875 16.4375 C18.29998047 16.13005859 18.29998047 16.13005859 17.39453125 15.81640625 C16.60433594 15.54699219 15.81414063 15.27757812 15 15 C14.22269531 14.73316406 13.44539062 14.46632813 12.64453125 14.19140625 C8.12858158 12.8057492 3.91068714 12.25979368 -0.8125 12.1875 C-1.823125 12.16171875 -2.83375 12.1359375 -3.875 12.109375 C-7.27341868 12.4889856 -9.10750272 13.37010922 -11.8125 15.4375 C-12.97061388 18.38479537 -12.97061388 18.38479537 -12.8125 21.4375 C-8.91266257 26.60705194 -0.78667619 28.04536855 5.25 29.4375 C19.40246951 32.81545569 19.40246951 32.81545569 23.41015625 38.40625 C25.47318468 43.79707806 25.11212915 50.16971128 23.55859375 55.66015625 C20.63464567 61.62605929 14.94571285 64.49154252 8.94140625 66.55078125 C4.83819848 67.52000931 1.13474136 67.82156532 -3.0625 67.8125 C-4.17685425 67.81117065 -4.17685425 67.81117065 -5.3137207 67.80981445 C-11.72228897 67.67298906 -17.02938315 66.23869722 -22.8125 63.4375 C-23.4725 63.12941406 -24.1325 62.82132813 -24.8125 62.50390625 C-26.16344621 61.85032348 -27.49228762 61.15112831 -28.8125 60.4375 C-28.20551257 56.30998551 -26.77439209 53.1053852 -24.8125 49.4375 C-20.94682317 50.2809204 -17.60330907 51.83630125 -14.03125 53.5 C-8.13365904 55.99193984 -0.91118161 56.8037272 5.23828125 54.75390625 C7.13437447 53.7625091 7.13437447 53.7625091 9.1875 51.4375 C10.1043463 48.39375267 10.1043463 48.39375267 9.1875 45.4375 C4.34399682 41.64567381 -1.73047538 40.82338792 -7.59960938 39.5078125 C-14.77086642 37.77071119 -20.63640393 35.22736676 -25.25 29.3125 C-27.73288427 24.74399293 -28.62988738 20.58979573 -27.8125 15.4375 C-24.77568836 8.46921438 -19.96451377 4.0089895 -12.953125 1.0769043 C-8.71057943 -0.19034329 -4.39340813 -0.03294307 0 0 Z " fill="#274474" transform="translate(643.8125,666.5625)"/>
<path d="M0 0 C0 3.3 0 6.6 0 10 C-6.76404376 11.61081867 -13.4784947 12.6981502 -20.375 13.5625 C-21.33921875 13.68818359 -22.3034375 13.81386719 -23.296875 13.94335938 C-33.50839399 15.25059807 -43.57418663 16.16991634 -53.875 16.125 C-54.78507812 16.12886719 -55.69515625 16.13273438 -56.6328125 16.13671875 C-60.8782872 16.13051192 -64.86401389 16.09023902 -69 15 C-69 12.69 -69 10.38 -69 8 C-67.05287109 7.83564453 -67.05287109 7.83564453 -65.06640625 7.66796875 C-37.38972253 5.4003037 -37.38972253 5.4003037 -10.0859375 0.55078125 C-6.67147584 -0.05863533 -3.46133929 -0.09154676 0 0 Z " fill="#1D2142" transform="translate(364,554)"/>
<path d="M0 0 C3.01125 -0.061875 6.0225 -0.12375 9.125 -0.1875 C10.06230957 -0.21481201 10.99961914 -0.24212402 11.96533203 -0.27026367 C18.01110613 -0.33014195 21.8850556 0.72141488 26.84765625 4.3515625 C29.3652957 7.95306706 28.54925745 12.83174622 28 17 C25.69658839 21.18026552 23.496263 22.65703723 19 24 C15.72352342 24.23615235 12.47019558 24.18815563 9.1875 24.125 C6.155625 24.08375 3.12375 24.0425 0 24 C0 16.08 0 8.16 0 0 Z " fill="#F6F7F8" transform="translate(307,679)"/>
<path d="M0 0 C6.6 0 13.2 0 20 0 C20 7.92 20 15.84 20 24 C12.41 24 4.82 24 -3 24 C-3 14.58905248 -2.26435407 8.77437202 0 0 Z " fill="#FDFCFA" transform="translate(461,355)"/>
<path d="M0 0 C8.58 0 17.16 0 26 0 C24.09655229 3.80689543 22.91451812 5.23037866 19.8125 7.9375 C18.91660156 8.72253906 18.02070312 9.50757813 17.09765625 10.31640625 C16.60281738 10.74453613 16.10797852 11.17266602 15.59814453 11.61376953 C13.88895528 13.09632018 12.19223025 14.592383 10.49609375 16.08984375 C4.19182623 21.63360965 -2.19190487 27.07050865 -8.75 32.3125 C-9.62640137 33.0238208 -9.62640137 33.0238208 -10.52050781 33.74951172 C-14.64551771 37 -14.64551771 37 -18 37 C-11.50922644 23.15429665 -11.50922644 23.15429665 -6.3515625 17.70703125 C-2.32318792 12.61917087 -1.04103838 6.24623029 0 0 Z " fill="#294D81" transform="translate(580,374)"/>
<path d="M0 0 C0.79075928 0.00523682 1.58151855 0.01047363 2.39624023 0.01586914 C3.67724609 0.02070313 3.67724609 0.02070313 4.98413086 0.02563477 C5.88196289 0.03401367 6.77979492 0.04239258 7.70483398 0.05102539 C8.6065332 0.05553711 9.50823242 0.06004883 10.43725586 0.06469727 C12.67234712 0.07652315 14.90730835 0.09300319 17.14233398 0.11352539 C17.00956055 0.75676758 16.87678711 1.40000977 16.73999023 2.06274414 C15.30392762 9.41077257 14.62434453 16.64236193 14.14233398 24.11352539 C6.55233398 24.11352539 -1.03766602 24.11352539 -8.85766602 24.11352539 C-5.82478576 0.35596338 -5.82478576 0.35596338 0 0 Z " fill="#FCFCF8" transform="translate(436.857666015625,354.886474609375)"/>
<path d="M0 0 C7.59 0 15.18 0 23 0 C23.33 2.866875 23.66 5.73375 24 8.6875 C24.10441406 9.58170654 24.20882813 10.47591309 24.31640625 11.3972168 C24.39761719 12.11562744 24.47882813 12.83403809 24.5625 13.57421875 C24.64628906 14.30213623 24.73007812 15.03005371 24.81640625 15.7800293 C25.01482608 18.17927338 25 20.59256514 25 23 C18.73 23 12.46 23 6 23 C0 8.4 0 8.4 0 0 Z " fill="#FCF9F7" transform="translate(428,386)"/>
<path d="M0 0 C7.59 0 15.18 0 23 0 C23 7.26 23 14.52 23 22 C16.4 22 9.8 22 3 22 C1.20023225 14.20100644 0 8.06992376 0 0 Z " fill="#FDFDFD" transform="translate(458,387)"/>
<path d="M0 0 C-1.73840925 12.10367442 -12.93932393 23.11813039 -22.25 30.25 C-31.05226885 36.33156757 -40.35133002 40.60581747 -51 42 C-44.18485876 35.03534926 -37.02795389 28.05468201 -28.01953125 24.12890625 C-23.27437664 21.47639236 -17.4598579 16.91971579 -15 12 C-15.99 11.67 -16.98 11.34 -18 11 C-16.33325061 9.14336777 -14.64581021 7.31773139 -12.9375 5.5 C-12.23850586 4.71302734 -12.23850586 4.71302734 -11.52539062 3.91015625 C-7.77995735 -0.01363099 -5.32102343 -0.58458185 0 0 Z " fill="#ED6537" transform="translate(549,407)"/>
<path d="M0 0 C1.65 0 3.3 0 5 0 C5 1.98 5 3.96 5 6 C6.134375 6.12375 7.26875 6.2475 8.4375 6.375 C9.613125 6.58125 10.78875 6.7875 12 7 C12.33 7.66 12.66 8.32 13 9 C12.0625 11.125 12.0625 11.125 11 13 C10.505 12.835 10.01 12.67 9.5 12.5 C5.96555911 11.79311182 2.60309299 11.93994845 -1 12 C-1 13.32 -1 14.64 -1 16 C-0.25234375 16.24234375 0.4953125 16.4846875 1.265625 16.734375 C2.74289062 17.23710937 2.74289062 17.23710937 4.25 17.75 C5.22453125 18.07484375 6.1990625 18.3996875 7.203125 18.734375 C10.23803671 20.10771494 11.94560227 21.38664918 14 24 C13.93858483 27.50066452 13.71246637 29.93130044 11.75 32.875 C9.54832896 34.29035995 7.57531492 34.65198447 5 35 C5 36.65 5 38.3 5 40 C3.35 40 1.7 40 0 40 C0 38.35 0 36.7 0 35 C-0.56589844 34.89042969 -1.13179687 34.78085937 -1.71484375 34.66796875 C-2.81505859 34.43013672 -2.81505859 34.43013672 -3.9375 34.1875 C-4.66839844 34.03667969 -5.39929688 33.88585937 -6.15234375 33.73046875 C-6.76207031 33.48941406 -7.37179687 33.24835938 -8 33 C-9 30 -9 30 -8 27 C-7.360625 27.33 -6.72125 27.66 -6.0625 28 C-1.98763159 29.33056928 1.75190425 29.16659199 6 29 C6.33 27.68 6.66 26.36 7 25 C6.25234375 24.82984375 5.5046875 24.6596875 4.734375 24.484375 C3.74953125 24.24203125 2.7646875 23.9996875 1.75 23.75 C0.77546875 23.51796875 -0.1990625 23.2859375 -1.203125 23.046875 C-4.38910721 21.85435652 -5.91361635 20.67135102 -8 18 C-8.72853147 15.25729328 -8.56809165 12.77228723 -8 10 C-6.25 7.5 -6.25 7.5 -4 6 C-2.68 6 -1.36 6 0 6 C0 4.02 0 2.04 0 0 Z " fill="#EFF5F8" transform="translate(544,352)"/>
<path d="M0 0 C0.66 0 1.32 0 2 0 C3.67257264 3.78908876 5.33705115 7.58167885 7 11.375 C7.47695313 12.45523438 7.95390625 13.53546875 8.4453125 14.6484375 C8.89648438 15.6796875 9.34765625 16.7109375 9.8125 17.7734375 C10.23144531 18.72653809 10.65039062 19.67963867 11.08203125 20.66162109 C12 23 12 23 12 25 C5.07 25 -1.86 25 -9 25 C-8.28653598 20.71921589 -7.78470648 18.04074836 -6.15234375 14.2578125 C-5.79462891 13.41992188 -5.43691406 12.58203125 -5.06835938 11.71875 C-4.50858398 10.43484375 -4.50858398 10.43484375 -3.9375 9.125 C-3.56044922 8.24585938 -3.18339844 7.36671875 -2.79492188 6.4609375 C-1.86913928 4.30468436 -0.93738089 2.15123021 0 0 Z " fill="#F1F2F4" transform="translate(717,683)"/>
<path d="M0 0 C2.9719385 1.12451727 5.33440687 2.22293791 8 4 C6.47966201 8.16192525 3.50786398 10.18447195 0 12.625 C-0.61085449 13.05449951 -1.22170898 13.48399902 -1.85107422 13.92651367 C-12.73427661 21.40820529 -25.24323114 29.24130918 -38 33 C-38.66 32.67 -39.32 32.34 -40 32 C-38.51113281 31.12601562 -38.51113281 31.12601562 -36.9921875 30.234375 C-22.98240885 21.84586813 -11.2922452 11.76058716 0 0 Z " fill="#EB6C30" transform="translate(438,438)"/>
<path d="M0 0 C8.636895 3.454758 13.24232693 8.40808731 17.1875 16.765625 C18 19 18 19 18 22 C12.06 22 6.12 22 0 22 C0 14.74 0 7.48 0 0 Z " fill="#FCF7F1" transform="translate(488,326)"/>
<path d="M0 0 C0 6.93 0 13.86 0 21 C-5.61 21 -11.22 21 -17 21 C-15.3372084 12.68604198 -11.10642237 6.36442505 -4.61328125 0.9609375 C-3 0 -3 0 0 0 Z " fill="#FCFCF8" transform="translate(481,327)"/>
<path d="M0 0 C0.495 0.99 0.495 0.99 1 2 C-0.02127153 4.31549552 -1.09845563 6.47442439 -2.3125 8.6875 C-2.67206787 9.35088379 -3.03163574 10.01426758 -3.40209961 10.69775391 C-18.67450122 38.33725061 -18.67450122 38.33725061 -26 42 C-26.76183594 42.0928125 -27.52367187 42.185625 -28.30859375 42.28125 C-31.83737034 43.22362285 -33.46453852 44.96226947 -36.0625 47.5 C-41.206652 52.50940534 -41.206652 52.50940534 -45 53 C-42.41165127 50.40694518 -39.81804318 47.82033675 -37.2109375 45.24609375 C-36.27507813 44.31925781 -35.33921875 43.39242187 -34.375 42.4375 C-33.89804687 41.96892578 -33.42109375 41.50035156 -32.9296875 41.01757812 C-30.88252679 38.98463381 -28.99410767 36.99194177 -27.2890625 34.66015625 C-26.86367188 34.11230469 -26.43828125 33.56445312 -26 33 C-25.34 33 -24.68 33 -24 33 C-23.7834375 32.47019531 -23.566875 31.94039063 -23.34375 31.39453125 C-21.49948468 28.10809333 -19.00289963 25.47727163 -16.5 22.6875 C-10.24868819 15.58477552 -5.05379887 7.98321325 0 0 Z " fill="#EE582C" transform="translate(687,320)"/>
<path d="M0 0 C7.88933677 0.91705111 14.20247434 6.94574686 20 12 C19.75 13.875 19.75 13.875 19 16 C16.953125 17.1328125 16.953125 17.1328125 15 18 C14.443125 17.55269531 13.88625 17.10539062 13.3125 16.64453125 C8.38884777 12.74386758 3.40737001 9.19727328 -2 6 C-1.125 1.125 -1.125 1.125 0 0 Z " fill="#F17F2A" transform="translate(510,325)"/>
<path d="M0 0 C0 4.07434009 -1.76293677 7.0960044 -3.5 10.6875 C-3.83386719 11.38939453 -4.16773438 12.09128906 -4.51171875 12.81445312 C-5.33599411 14.54543137 -6.16732406 16.2730471 -7 18 C-11.95 18 -16.9 18 -22 18 C-22 17.34 -22 16.68 -22 16 C-21.34 16 -20.68 16 -20 16 C-19.78859375 15.43410156 -19.5771875 14.86820312 -19.359375 14.28515625 C-17.50864658 11.17401796 -15.15907057 9.57588396 -12.25 7.4375 C-11.22390625 6.67308594 -10.1978125 5.90867187 -9.140625 5.12109375 C-6.179813 3.12144087 -3.2312587 1.51404786 0 0 Z " fill="#FCF7F0" transform="translate(463,330)"/>
<path d="M0 0 C0.02685938 2.14576637 0.04633088 4.29162645 0.0625 6.4375 C0.07410156 7.63246094 0.08570313 8.82742188 0.09765625 10.05859375 C0 13 0 13 -1 14 C-5.00220653 14.14355117 -8.99441683 14.04216403 -13 14 C-12.67 9.71 -12.34 5.42 -12 1 C-7.94863773 0.36449219 -4.09744212 -0.05661405 0 0 Z " fill="#68C1E7" transform="translate(622,291)"/>
<path d="M0 0 C0.02685938 2.14576637 0.04633088 4.29162645 0.0625 6.4375 C0.07410156 7.63246094 0.08570313 8.82742188 0.09765625 10.05859375 C0 13 0 13 -1 14 C-5.00220653 14.14355117 -8.99441683 14.04216403 -13 14 C-12.67 9.71 -12.34 5.42 -12 1 C-7.915021 0.45533613 -4.1274515 0 0 0 Z " fill="#73C5E8" transform="translate(617,270)"/>
<path d="M0 0 C0 4.62 0 9.24 0 14 C-3.96 14 -7.92 14 -12 14 C-12 9.71 -12 5.42 -12 1 C-7.915021 0.45533613 -4.1274515 0 0 0 Z " fill="#F1862E" transform="translate(387,462)"/>
<path d="M0 0 C0.33 0.66 0.66 1.32 1 2 C0.33333333 3.33333333 -0.33333333 4.66666667 -1 6 C-0.67 6.66 -0.34 7.32 0 8 C1.65 7.34 3.3 6.68 5 6 C5 9 5 9 3.53125 10.53393555 C2.8609375 11.062854 2.190625 11.59177246 1.5 12.13671875 C0.778125 12.71357422 0.05625 13.29042969 -0.6875 13.88476562 C-1.450625 14.47966797 -2.21375 15.07457031 -3 15.6875 C-3.763125 16.29400391 -4.52625 16.90050781 -5.3125 17.52539062 C-7.20203196 19.02520662 -9.09789044 20.51619013 -11 22 C-11.66 21.67 -12.32 21.34 -13 21 C-9.36802942 13.25251246 -6.0453872 6.19283567 0 0 Z " fill="#30588B" transform="translate(575,390)"/>
<path d="M0 0 C0.33 0 0.66 0 1 0 C1.33 2.64 1.66 5.28 2 8 C2.88751953 8.29003906 2.88751953 8.29003906 3.79296875 8.5859375 C7.9146645 9.94414719 11.9950524 11.32050585 16 13 C15.67 14.65 15.34 16.3 15 18 C9.49633208 18.32374517 5.56327794 18.53286034 1 15 C0.67 15.99 0.34 16.98 0 18 C0.08378906 17.37351562 0.16757812 16.74703125 0.25390625 16.1015625 C0.35574219 15.28429687 0.45757813 14.46703125 0.5625 13.625 C0.66691406 12.81289063 0.77132812 12.00078125 0.87890625 11.1640625 C1.18237328 8.95100814 1.18237328 8.95100814 0 7 C-0.04022391 4.6670134 -0.04320247 2.33293334 0 0 Z " fill="#2C72A8" transform="translate(535,364)"/>
<path d="M0 0 C-1.134375 0.268125 -2.26875 0.53625 -3.4375 0.8125 C-4.613125 1.204375 -5.78875 1.59625 -7 2 C-7.33 2.99 -7.66 3.98 -8 5 C-9.77503906 5.18175781 -9.77503906 5.18175781 -11.5859375 5.3671875 C-22.90358097 6.52486349 -22.90358097 6.52486349 -34.0546875 8.73046875 C-36.29284822 9.04057536 -37.86095489 8.6762452 -40 8 C-30.97276566 5.17971168 -21.93529921 2.62365134 -12.6875 0.625 C-11.88207764 0.44549805 -11.07665527 0.26599609 -10.24682617 0.08105469 C-6.47193262 -0.70673523 -3.68809854 -1.13092786 0 0 Z " fill="#8ACDEB" transform="translate(611,258)"/>
<path d="M0 0 C-0.00390625 2.6640625 -0.00390625 2.6640625 -1 6 C-3.3954619 8.21363314 -6.11538252 9.76027073 -8.9375 11.375 C-9.67935547 11.82488281 -10.42121094 12.27476562 -11.18554688 12.73828125 C-16.65313925 16 -16.65313925 16 -19 16 C-18.74040381 12.7439221 -17.93493717 11.94320537 -15.41796875 9.74609375 C-14.35191406 8.98425781 -13.28585937 8.22242188 -12.1875 7.4375 C-11.12917969 6.67308594 -10.07085938 5.90867187 -8.98046875 5.12109375 C-7.99691406 4.42113281 -7.01335938 3.72117187 -6 3 C-5.25363281 2.41347656 -4.50726562 1.82695312 -3.73828125 1.22265625 C-2 0 -2 0 0 0 Z " fill="#499DD1" transform="translate(588,402)"/>
<path d="M0 0 C0 2.97 0 5.94 0 9 C-4.455 9.495 -4.455 9.495 -9 10 C-9 7.03 -9 4.06 -9 1 C-5.8035914 -0.06546953 -3.34252724 -0.07427838 0 0 Z " fill="#F39944" transform="translate(383,446)"/>
<path d="M0 0 C0 2.97 0 5.94 0 9 C-2.97 9.66 -5.94 10.32 -9 11 C-9 7.7 -9 4.4 -9 1 C-5.94152152 0.45627049 -3.11227195 0 0 0 Z " fill="#F28836" transform="translate(366,451)"/>
<path d="M0 0 C0 2.97 0 5.94 0 9 C-4.455 9.495 -4.455 9.495 -9 10 C-9 7.03 -9 4.06 -9 1 C-5.68756695 0.17189174 -3.34023421 -0.09278428 0 0 Z " fill="#F19A36" transform="translate(391,426)"/>
<path d="M0 0 C0 0.99 0 1.98 0 3 C-1.53125 4.38671875 -1.53125 4.38671875 -3.5 5.6875 C-4.1496875 6.12449219 -4.799375 6.56148438 -5.46875 7.01171875 C-5.9740625 7.33785156 -6.479375 7.66398437 -7 8 C-7.33 7.34 -7.66 6.68 -8 6 C-9.65 6.33 -11.3 6.66 -13 7 C-13 4 -13 4 -11 1.8125 C-6.98946389 -0.61053223 -4.62201404 -0.31335688 0 0 Z " fill="#F3EFF2" transform="translate(627,408)"/>
<path d="M0 0 C0.33 0 0.66 0 1 0 C1 6.27 1 12.54 1 19 C3.97 19 6.94 19 10 19 C10.33 17.35 10.66 15.7 11 14 C11.33 14 11.66 14 12 14 C12 16.31 12 18.62 12 21 C7.71 21 3.42 21 -1 21 C-1.02688864 17.87494304 -1.04678462 14.75011575 -1.0625 11.625 C-1.07087891 10.73554687 -1.07925781 9.84609375 -1.08789062 8.9296875 C-1.09111328 8.07890625 -1.09433594 7.228125 -1.09765625 6.3515625 C-1.10289307 5.56604004 -1.10812988 4.78051758 -1.11352539 3.97119141 C-1 2 -1 2 0 0 Z " fill="#333965" transform="translate(507,712)"/>
<path d="M0 0 C0.33 0.66 0.66 1.32 1 2 C-0.1518492 4.51501957 -1.35736708 6.89428607 -2.6875 9.3125 C-3.21633789 10.30926758 -3.21633789 10.30926758 -3.75585938 11.32617188 C-5.85492655 15.2058006 -8.11592406 18.63415968 -11 22 C-11 21.01 -11 20.02 -11 19 C-11.66 18.67 -12.32 18.34 -13 18 C-12.48050781 17.3709375 -11.96101562 16.741875 -11.42578125 16.09375 C-7.2048762 10.91319371 -3.40670998 5.7488231 0 0 Z " fill="#EA785A" transform="translate(687,320)"/>
<path d="M0 0 C0.99 0 1.98 0 3 0 C3.33 1.98 3.66 3.96 4 6 C3.01 6.33 2.02 6.66 1 7 C0.62243192 8.32148827 0.2981424 9.65835921 0 11 C-0.98189187 12.67739862 -1.98133771 14.34467377 -3 16 C-3.33 16.99 -3.66 17.98 -4 19 C-4.66 19 -5.32 19 -6 19 C-4.57052516 14.32171871 -3.04014231 9.89627625 -0.75 5.5625 C-0.1725 4.386875 0.405 3.21125 1 2 C0.67 1.34 0.34 0.68 0 0 Z " fill="#F2AB3F" transform="translate(462,329)"/>
<path d="M0 0 C10.56 0 21.12 0 32 0 C32 0.33 32 0.66 32 1 C31.12674072 1.02505615 30.25348145 1.0501123 29.35375977 1.07592773 C26.12397448 1.17087709 22.89435846 1.27012029 19.66479492 1.37231445 C18.26510801 1.41571434 16.86536641 1.45738564 15.46557617 1.49731445 C13.45738505 1.55489445 11.44938851 1.61914 9.44140625 1.68359375 C8.23170166 1.72025146 7.02199707 1.75690918 5.77563477 1.79467773 C3.09294544 1.68938266 3.09294544 1.68938266 2 3 C1.76924918 4.34747084 1.58846937 5.70377565 1.4375 7.0625 C1.293125 8.361875 1.14875 9.66125 1 11 C0.67 11 0.34 11 0 11 C0 7.37 0 3.74 0 0 Z " fill="#195089" transform="translate(294,668)"/>
<path d="M0 0 C-0.47610659 4.99911924 -2.03162219 7.97832683 -5 12 C-5.99 10.68 -6.98 9.36 -8 8 C-3.45945946 0 -3.45945946 0 0 0 Z " fill="#ED6A44" transform="translate(676,339)"/>
<path d="M0 0 C0 0.99 0 1.98 0 3 C-2.91516484 3.53084792 -5.83160557 4.04999055 -8.75 4.5625 C-9.575 4.71396484 -10.4 4.86542969 -11.25 5.02148438 C-12.44882812 5.2293457 -12.44882812 5.2293457 -13.671875 5.44140625 C-14.4050293 5.57232666 -15.13818359 5.70324707 -15.89355469 5.83813477 C-18.16233287 6.01247412 -19.83778579 5.66874807 -22 5 C-19.27318889 4.15820605 -16.54398557 3.32636931 -13.8125 2.5 C-12.65911133 2.14228516 -12.65911133 2.14228516 -11.48242188 1.77734375 C-7.55643872 0.59786383 -4.14951179 -0.3326262 0 0 Z " fill="#90D1EE" transform="translate(593,261)"/>
<path d="M0 0 C0.51046875 0.42023438 1.0209375 0.84046875 1.546875 1.2734375 C-1.61393623 3.86927281 -4.81086487 5.44988904 -8.578125 7.0234375 C-9.63257813 7.47203125 -10.68703125 7.920625 -11.7734375 8.3828125 C-14.453125 9.2734375 -14.453125 9.2734375 -16.453125 8.2734375 C-14.21498747 6.71152869 -11.96543452 5.17459868 -9.703125 3.6484375 C-9.06890625 3.20242188 -8.4346875 2.75640625 -7.78125 2.296875 C-3.00217062 -0.88917792 -3.00217062 -0.88917792 0 0 Z " fill="#F27D48" transform="translate(414.453125,461.7265625)"/>
<path d="M0 0 C0 3.77110589 -1.13327343 4.9680326 -3.3125 8 C-3.92738281 8.86625 -4.54226563 9.7325 -5.17578125 10.625 C-6.68648007 12.59181988 -8.19346467 14.31019465 -10 16 C-10.66 15.67 -11.32 15.34 -12 15 C-10.38462556 11.10082032 -7.72075127 8.28706228 -4.875 5.25 C-4.40707031 4.74339844 -3.93914062 4.23679687 -3.45703125 3.71484375 C-2.30873459 2.47280859 -1.15491328 1.23588506 0 0 Z " fill="#EE8A4C" transform="translate(282,435)"/>
<path d="M0 0 C0.66 0.33 1.32 0.66 2 1 C1.84518205 3.70931419 1.51827919 5.46584039 -0.40234375 7.4453125 C-1.89771708 8.67679642 -3.4462924 9.8429837 -5 11 C-5 6.83792635 -4.80887095 4.88240467 -1.9375 1.75 C-1.298125 1.1725 -0.65875 0.595 0 0 Z " fill="#1C284E" transform="translate(649,388)"/>
<path d="M0 0 C0.66 0.99 1.32 1.98 2 3 C0.88222229 5.31625061 -0.24374092 7.62784605 -1.375 9.9375 C-1.85066406 10.9265332 -1.85066406 10.9265332 -2.3359375 11.93554688 C-4.7734375 16.88671875 -4.7734375 16.88671875 -7 18 C-5.06375702 11.79522136 -2.74390859 5.89174281 0 0 Z M3 0 C3.66 0.33 4.32 0.66 5 1 C4.01 1 3.02 1 2 1 C2.33 0.67 2.66 0.34 3 0 Z " fill="#286295" transform="translate(518,496)"/>
<path d="M0 0 C-0.125 2.75 -0.125 2.75 -1 6 C-5.94736842 10 -5.94736842 10 -9 10 C-7.25 6.125 -7.25 6.125 -5 5 C-5 4.01 -5 3.02 -5 2 C-2 0 -2 0 0 0 Z " fill="#54A1D5" transform="translate(588,402)"/>
<path d="M0 0 C0.66 0.66 1.32 1.32 2 2 C-1.3 5.3 -4.6 8.6 -8 12 C-8.66 11.34 -9.32 10.68 -10 10 C-6.7 6.7 -3.4 3.4 0 0 Z " fill="#EE773D" transform="translate(435,441)"/>
<path d="M0 0 C0.66 0.66 1.32 1.32 2 2 C0.25792116 3.6549749 -1.49276372 5.29875421 -3.25 6.9375 C-3.74113281 7.40607422 -4.23226562 7.87464844 -4.73828125 8.35742188 C-7.36518686 10.79168774 -9.36532157 12.59326218 -13 13 C-8.66666667 8.66666667 -4.33333333 4.33333333 0 0 Z " fill="#EE673F" transform="translate(655,360)"/>
<path d="M0 0 C0.66 0.33 1.32 0.66 2 1 C0.65365543 5.4062186 -1.19374374 7.43077702 -5 10 C-5.66 10 -6.32 10 -7 10 C-5.79618552 7.50638429 -4.54571278 5.31856917 -3 3 C-2.01 3 -1.02 3 0 3 C0 2.01 0 1.02 0 0 Z " fill="#334672" transform="translate(569,385)"/>
<path d="M0 0 C2 2 2 2 2 5 C0.51448079 7.18052998 -1.24174197 9.02195971 -3 11 C-3.66 10.34 -4.32 9.68 -5 9 C-4.34 8.67 -3.68 8.34 -3 8 C-3.0928125 6.8553125 -3.0928125 6.8553125 -3.1875 5.6875 C-3 3 -3 3 -1.5 1.1875 C-1.005 0.795625 -0.51 0.40375 0 0 Z " fill="#22325C" transform="translate(643,394)"/>
<path d="M0 0 C0.66 0.33 1.32 0.66 2 1 C-1.63 4.96 -5.26 8.92 -9 13 C-9.66 12.67 -10.32 12.34 -11 12 C-3.70159453 3.55353075 -3.70159453 3.55353075 0 0 Z " fill="#F2A538" transform="translate(444,333)"/>
<path d="M0 0 C0.433125 0.66 0.86625 1.32 1.3125 2 C2.1478125 2.99 2.1478125 2.99 3 4 C3.99 4 4.98 4 6 4 C4.29374499 6.78388975 3.52373261 7.85384206 0.3125 8.75 C-0.450625 8.8325 -1.21375 8.915 -2 9 C-2 8.34 -2 7.68 -2 7 C-1.34 7 -0.68 7 0 7 C-0.185625 6.401875 -0.37125 5.80375 -0.5625 5.1875 C-1 3 -1 3 0 0 Z " fill="#DFE9EF" transform="translate(551,378)"/>
<path d="M0 0 C0.66 0 1.32 0 2 0 C2 3.96 2 7.92 2 12 C1.01 12.495 1.01 12.495 0 13 C-0.83796731 8.34462607 -1.0161692 4.62921525 0 0 Z " fill="#446087" transform="translate(573,367)"/>
<path d="M0 0 C1.32 0.66 2.64 1.32 4 2 C3.25 3.9375 3.25 3.9375 2 6 C-0.125 6.75 -0.125 6.75 -2 7 C-2.33 6.34 -2.66 5.68 -3 5 C-2.34 4.67 -1.68 4.34 -1 4 C-0.34786708 1.97536745 -0.34786708 1.97536745 0 0 Z " fill="#E96535" transform="translate(453,431)"/>
<path d="M0 0 C-1.49097658 3.7952131 -3.75700849 5.61042731 -7 8 C-7.33 7.01 -7.66 6.02 -8 5 C-3.22727273 0 -3.22727273 0 0 0 Z " fill="#ED5E38" transform="translate(644,382)"/>
<path d="M0 0 C0 3 0 3 -1.3125 4.38671875 C-2.875 5.59114583 -4.4375 6.79557292 -6 8 C-6 6.35 -6 4.7 -6 3 C-4.02 2.01 -2.04 1.02 0 0 Z " fill="#1E2F56" transform="translate(634,409)"/>
<path d="M0 0 C0.99 0.66 1.98 1.32 3 2 C2.75 3.875 2.75 3.875 2 6 C-0.0625 7.25 -0.0625 7.25 -2 8 C-2.66 7.01 -3.32 6.02 -4 5 C-3.01 5 -2.02 5 -1 5 C-0.67 3.35 -0.34 1.7 0 0 Z " fill="#F0843B" transform="translate(527,335)"/>
<path d="M0 0 C1.32 0.33 2.64 0.66 4 1 C3.67 3.64 3.34 6.28 3 9 C2.34 9 1.68 9 1 9 C0.67 6.03 0.34 3.06 0 0 Z " fill="#E8884C" transform="translate(510,361)"/>
<path d="M0 0 C0.99 0.33 1.98 0.66 3 1 C-0.96 4.465 -0.96 4.465 -5 8 C-5 5 -5 5 -2.5 2.3125 C-1.675 1.549375 -0.85 0.78625 0 0 Z " fill="#1F325D" transform="translate(633,404)"/>
<path d="M0 0 C2.5654594 2.5654594 2.54046087 4.47686668 3 8 C2.34 7.67 1.68 7.34 1 7 C1 6.01 1 5.02 1 4 C-0.65 4.66 -2.3 5.32 -4 6 C-2.68 4.02 -1.36 2.04 0 0 Z " fill="#6AC0E1" transform="translate(513,380)"/>
<path d="M0 0 C2.5 1.375 2.5 1.375 5 3 C5 3.66 5 4.32 5 5 C5.99 5 6.98 5 8 5 C8 5.66 8 6.32 8 7 C5.69 6.34 3.38 5.68 1 5 C0.67 3.35 0.34 1.7 0 0 Z " fill="#4687B8" transform="translate(542,364)"/>
<path d="M0 0 C0 0.66 0 1.32 0 2 C0.99 2.33 1.98 2.66 3 3 C3 3.66 3 4.32 3 5 C0.625 4.6875 0.625 4.6875 -2 4 C-2.66 3.01 -3.32 2.02 -4 1 C-2 0 -2 0 0 0 Z " fill="#2C4476" transform="translate(533,393)"/>
<path d="M0 0 C3.63 0 7.26 0 11 0 C11 0.33 11 0.66 11 1 C9.1128125 1.12375 9.1128125 1.12375 7.1875 1.25 C3.66188788 1.66557143 3.66188788 1.66557143 1 4.0625 C0.67 4.701875 0.34 5.34125 0 6 C0 4.02 0 2.04 0 0 Z " fill="#163D74" transform="translate(580,375)"/>
<path d="M0 0 C0.66 0.33 1.32 0.66 2 1 C2.625 3.5625 2.625 3.5625 3 6 C0.5625 5.625 0.5625 5.625 -2 5 C-2.33 4.34 -2.66 3.68 -3 3 C-2.01 2.01 -1.02 1.02 0 0 Z " fill="#69BEE3" transform="translate(604,329)"/>
<path d="M0 0 C3.125 -0.1875 3.125 -0.1875 6 0 C5.67 0.99 5.34 1.98 5 3 C2.69 3 0.38 3 -2 3 C-1.34 2.01 -0.68 1.02 0 0 Z " fill="#6EC2EA" transform="translate(594,260)"/>
<path d="M0 0 C0.33 0 0.66 0 1 0 C1 1.65 1 3.3 1 5 C1.66 5.33 2.32 5.66 3 6 C3.33 6.99 3.66 7.98 4 9 C2.68 9 1.36 9 0 9 C0 6.03 0 3.06 0 0 Z " fill="#F6B669" transform="translate(382,427)"/>
<path d="M0 0 C-1.36983503 3.16115776 -1.9890638 3.9927092 -5 6 C-5.33 4.68 -5.66 3.36 -6 2 C-2.25 0 -2.25 0 0 0 Z " fill="#EB6F43" transform="translate(466,425)"/>
<path d="M0 0 C0.99 0 1.98 0 3 0 C3.33 1.98 3.66 3.96 4 6 C3.01 6.33 2.02 6.66 1 7 C1.020625 6.21625 1.04125 5.4325 1.0625 4.625 C1.18684063 2.01885039 1.18684063 2.01885039 0 0 Z " fill="#F0A434" transform="translate(462,329)"/>
<path d="M0 0 C0 3.90838866 -1.50567876 5.11594107 -4 8 C-4.99 7.67 -5.98 7.34 -7 7 C-4.69 4.69 -2.38 2.38 0 0 Z " fill="#EE945F" transform="translate(282,435)"/>
<path d="M0 0 C-1.39332574 3.36720387 -2.9789286 4.9859524 -6 7 C-5.37162381 3.35541809 -4.14650034 0 0 0 Z " fill="#2B3E64" transform="translate(627,411)"/>
<path d="M0 0 C1 3 1 3 -0.25 5.5625 C-2 8 -2 8 -5 10 C-3.66511872 6.40608886 -2.03977277 3.24509304 0 0 Z " fill="#EFA743" transform="translate(432,346)"/>
<path d="M0 0 C0.99 0.33 1.98 0.66 3 1 C0.03 3.475 0.03 3.475 -3 6 C-3.66 5.67 -4.32 5.34 -5 5 C-4.360625 4.731875 -3.72125 4.46375 -3.0625 4.1875 C-0.66868314 3.11332248 -0.66868314 3.11332248 0 0 Z " fill="#F0673F" transform="translate(664,350)"/>
</svg>
