<svg xmlns="http://www.w3.org/2000/svg" width="1024" height="1024" viewBox="0 0 1024 1024" version="1.1"><path d="M 259.676 230.657 C 258.407 231.926, 258.997 235.752, 260.673 237.128 C 261.594 237.882, 264.969 241.792, 268.173 245.816 L 274 253.131 274 357.097 C 274 447.895, 274.187 461.135, 275.478 461.630 C 276.291 461.942, 282.773 461.028, 289.883 459.598 C 304.256 456.710, 324.216 456.077, 338.460 458.058 C 365.130 461.767, 394.163 475.762, 413.712 494.331 L 421.259 501.500 433.210 501.500 C 443.030 501.500, 445.370 501.214, 446.331 499.895 C 446.974 499.012, 452.399 484.957, 458.388 468.663 C 467.410 444.112, 469.059 438.776, 468.015 437.518 C 466.913 436.190, 458.885 436, 403.878 436 L 341 436 341 347.125 C 341 298.244, 341.262 256.939, 341.583 255.337 C 341.903 253.736, 345.301 248.657, 349.134 244.053 C 354.443 237.673, 356.030 235.064, 355.801 233.090 L 355.500 230.500 307.926 230.240 C 281.761 230.098, 260.048 230.285, 259.676 230.657 M 553.183 291.279 C 552.050 292.645, 547.686 303.895, 520.706 375 C 473.963 498.195, 459.979 535.371, 454.919 549.898 L 451.646 559.295 453.934 561.148 C 456.070 562.877, 458.705 563, 493.642 563 C 527.283 563, 531.126 562.836, 531.687 561.373 C 532.031 560.478, 531.312 556.640, 530.089 552.845 L 527.867 545.944 533.665 529.972 L 539.463 514 592.109 514 C 633.057 514, 644.965 514.278, 645.698 515.250 C 646.216 515.938, 648.976 523.047, 651.832 531.048 L 657.024 545.596 654.956 551.897 C 653.818 555.363, 653.025 559.166, 653.193 560.349 L 653.500 562.500 691 562.788 C 711.625 562.946, 729.919 562.822, 731.653 562.511 C 738.144 561.348, 742.005 572.999, 675.476 393 C 670.902 380.625, 661.260 354.525, 654.049 335 C 646.838 315.475, 639.940 297.475, 638.719 295 L 636.500 290.500 595.382 290.239 C 562.596 290.031, 554.044 290.242, 553.183 291.279 M 592.048 368.500 C 591.394 370.150, 585.703 385.900, 579.402 403.500 C 573.101 421.100, 566.433 439.663, 564.585 444.750 L 561.225 454 593.112 454 C 610.651 454, 625 453.761, 625 453.469 C 625 453.177, 621.220 442.714, 616.600 430.219 C 609.149 410.068, 595.022 371.030, 593.722 367 C 593.393 365.981, 592.857 366.461, 592.048 368.500 M 307.460 507.250 C 307.198 507.938, 306.847 512.507, 306.679 517.405 L 306.375 526.310 301.888 527.450 C 292.773 529.764, 283.897 537.721, 279.160 547.825 C 276.891 552.665, 276.502 554.824, 276.515 562.500 C 276.534 573.534, 278.858 579.480, 285.805 586.277 C 292.159 592.494, 298.034 595.202, 314.227 599.382 C 321.776 601.330, 329.306 603.624, 330.960 604.479 C 339.982 609.145, 338.536 623.581, 328.595 628.096 C 324.010 630.179, 314.732 630.605, 310.315 628.936 C 304.778 626.844, 301.160 622.081, 299.573 614.794 C 298.823 611.349, 295.563 610.710, 284 611.742 L 275.500 612.500 275.603 618.049 C 275.741 625.510, 280.419 635.288, 286.558 640.946 C 291.139 645.170, 300.127 649.983, 303.971 650.273 C 305.821 650.412, 306 651.106, 306 658.131 C 306 669.367, 305.646 669, 316.485 669 C 322.862 669, 326.091 668.595, 326.832 667.703 C 327.424 666.989, 328.042 662.887, 328.204 658.587 L 328.500 650.768 334.164 649.019 C 341.597 646.723, 345.697 644.100, 351.427 637.974 C 358.833 630.057, 360.500 625.469, 360.500 613 C 360.500 603.824, 360.191 601.894, 358.046 597.696 C 354.912 591.562, 347.400 584.529, 340.718 581.474 C 337.848 580.162, 329.425 577.473, 322 575.499 C 314.575 573.525, 307.062 570.926, 305.305 569.723 C 294.770 562.514, 300.637 548.200, 314.911 546.285 C 323.556 545.126, 332.844 550.946, 334.666 558.664 L 335.571 562.500 346.450 562.786 C 352.434 562.943, 357.717 562.683, 358.191 562.209 C 359.495 560.905, 357.115 551.221, 353.962 545 C 349.551 536.295, 340.213 528.902, 330.750 526.624 C 328.033 525.970, 328 525.866, 328 517.915 C 328 506.230, 327.787 506, 316.933 506 C 310.657 506, 307.793 506.378, 307.460 507.250" stroke="none" fill="#1a4a70" fill-rule="evenodd"/><path d="M 615.046 168.250 C 615.072 170.037, 616.584 177.575, 618.407 185 C 620.231 192.425, 621.601 198.647, 621.452 198.826 C 621.303 199.005, 616.753 197.732, 611.341 195.996 C 589.695 189.053, 567.752 186, 539.500 186 C 493.461 186, 450.595 196.103, 417.515 214.751 C 406.385 221.024, 402.721 224.108, 403.617 226.444 C 404.526 228.814, 408.443 228.377, 425.198 224.035 C 454.432 216.459, 473.759 213.995, 503.856 214.009 C 523.612 214.017, 541.494 215.567, 556.470 218.567 C 573.604 221.999, 595.985 228.721, 609.272 234.426 L 613.044 236.045 608.955 242.066 C 601.487 253.063, 594 265.377, 594 266.662 C 594 269.494, 597.583 269.908, 609.087 268.405 C 636.051 264.882, 656.845 258.800, 678.965 247.967 C 698.708 238.299, 711.981 230.426, 711.993 228.377 C 712.025 223.127, 652.804 181.983, 625.279 168.131 C 617.029 163.980, 614.986 164.003, 615.046 168.250 M 687.250 259.181 C 678.862 263.642, 672 267.838, 672 268.506 C 672 269.174, 677.293 274.236, 683.762 279.756 C 709.798 301.970, 728.019 324.593, 742.934 353.225 C 762.578 390.932, 770.564 430.584, 767.060 473 C 764.510 503.860, 757.694 528.508, 743.935 556.631 C 727.193 590.847, 700.648 622.922, 669.478 646.598 C 653.664 658.610, 643.591 664.817, 625.633 673.613 C 601.691 685.341, 582.038 691.606, 553.236 696.694 C 538.500 699.297, 535.721 699.472, 509.500 699.455 C 484.836 699.439, 480.011 699.168, 469 697.178 C 454.491 694.556, 437.601 689.989, 427.224 685.880 C 423.222 684.296, 419.172 683.005, 418.224 683.011 C 417.276 683.016, 414.250 684.844, 411.500 687.072 C 408.750 689.300, 401.710 694.470, 395.856 698.563 C 390.002 702.655, 384.970 706.635, 384.674 707.408 C 383.869 709.506, 386.602 711.483, 397.072 716.376 C 434.094 733.676, 484.983 742.827, 529.167 740.128 C 598.496 735.893, 658.205 712.411, 709 669.404 C 750.037 634.659, 784.060 583.144, 797.811 534.930 C 824.224 442.326, 802.794 352.441, 736.739 278.769 C 724.530 265.153, 708.415 250.993, 705.175 251.035 C 703.704 251.054, 695.638 254.720, 687.250 259.181 M 294.500 468.661 C 276.946 471.829, 257.507 480.304, 242.823 491.191 C 217.721 509.803, 200.752 537.784, 195.983 568.429 C 194.803 576.011, 194.519 597.245, 195.498 604.762 C 201.520 651.025, 233.482 690.473, 276.664 704.941 C 292.842 710.361, 299.019 711.332, 317.500 711.358 C 336.013 711.384, 342.235 710.508, 357 705.793 C 375.586 699.859, 390.886 690.367, 405.627 675.627 C 430.742 650.512, 443.304 618.250, 441.693 583 C 440.242 551.244, 427.083 522.608, 403.659 500.228 C 386.487 483.821, 367.224 473.733, 344.055 469.011 C 332.081 466.571, 307.064 466.394, 294.500 468.661 M 310 487.498 C 293.385 492.899, 274.692 524.645, 267.308 560 C 264.870 571.674, 264.883 603.421, 267.332 617 C 270.900 636.792, 278.373 656.761, 287.047 669.687 C 292.053 677.148, 300.988 685.896, 306.500 688.735 C 323.358 697.418, 341.859 685.426, 356.233 656.500 C 381.270 606.119, 373.081 534.535, 338.060 497.643 C 328.860 487.951, 319.271 484.485, 310 487.498 M 356 491.408 C 356 491.632, 358.857 496.088, 362.348 501.310 C 365.839 506.533, 370.648 515.461, 373.034 521.153 C 375.420 526.844, 377.661 531.850, 378.014 532.278 C 378.367 532.705, 385.305 532.930, 393.432 532.778 L 408.210 532.500 403.777 526.500 C 394.550 514.011, 379.633 501.746, 365.424 494.964 C 357.266 491.070, 356 490.592, 356 491.408 M 270.186 495.062 C 263.377 498.160, 253.690 504.612, 245.789 511.311 C 240.932 515.429, 228 530.643, 228 532.239 C 228 532.687, 234.607 532.929, 242.683 532.777 L 257.366 532.500 260.995 523.500 C 265.265 512.907, 267.865 507.759, 273.265 499.203 C 275.451 495.739, 277.073 492.744, 276.869 492.547 C 276.666 492.350, 273.659 493.482, 270.186 495.062 M 313.728 505.722 C 315.503 505.943, 318.653 505.946, 320.728 505.730 C 322.802 505.513, 321.350 505.333, 317.500 505.328 C 313.650 505.324, 311.952 505.501, 313.728 505.722 M 217.602 553.750 C 215.345 560.625, 213 572.507, 213 577.065 L 213 581 230.849 581 L 248.698 581 249.355 571.250 C 249.716 565.888, 250.629 558.688, 251.382 555.250 L 252.752 549 235.956 549 L 219.161 549 217.602 553.750 M 383.032 551.750 C 384.490 556.072, 387 571.811, 387 576.631 L 387 581 405 581 L 423 581 422.978 577.250 C 422.952 572.602, 419.681 557.565, 417.628 552.651 L 416.102 549 399.103 549 L 382.104 549 383.032 551.750 M 213 600.872 C 213 604.992, 216.850 621.252, 219.156 626.868 L 220.538 630.235 236.833 630.368 L 253.127 630.500 252.461 627 C 250.775 618.129, 249.034 605.108, 249.018 601.250 L 249 597 231 597 L 213 597 213 600.872 M 386.996 601.750 C 386.992 606.079, 384.719 622.282, 383.347 627.750 L 382.783 630 399.215 630 L 415.648 630 418.317 621.750 C 421.200 612.840, 423 604.426, 423 599.864 L 423 597 405 597 L 387 597 386.996 601.750 M 229.611 648.250 C 231.542 651.561, 243.386 664.904, 247.199 668.065 C 253.885 673.607, 262.864 679.392, 270.143 682.847 C 273.797 684.581, 277.050 686, 277.373 686 C 277.696 686, 275.681 682.513, 272.895 678.250 C 267.955 670.690, 261.667 658.289, 258.950 650.750 L 257.598 647 243.240 647 C 232.031 647, 229.042 647.274, 229.611 648.250 M 375.061 654.750 C 371.610 663.068, 365.776 673.583, 360.357 681.252 C 358.511 683.866, 357 686.209, 357 686.458 C 357 688.366, 373.064 679.973, 381.500 673.657 C 389.462 667.696, 406 650.113, 406 647.608 C 406 647.274, 399.762 647, 392.139 647 L 378.277 647 375.061 654.750" stroke="none" fill="#e4a154" fill-rule="evenodd"/></svg>